<svg width="27" height="28" viewBox="0 0 27 28" fill="none" xmlns="http://www.w3.org/2000/svg">
<path d="M13.5 26.5C11.0277 26.5 8.61099 25.7669 6.55538 24.3934C4.49976 23.0199 2.89761 21.0676 1.95151 18.7835C1.00542 16.4995 0.757874 13.9861 1.24019 11.5614C1.7225 9.13661 2.91301 6.90933 4.66117 5.16117C6.40933 3.41301 8.63661 2.2225 11.0614 1.74019C13.4861 1.25787 15.9995 1.50542 18.2835 2.45151C20.5676 3.39761 22.5199 4.99976 23.8934 7.05538C25.2669 9.11099 26 11.5277 26 14C25.9964 17.3141 24.6783 20.4914 22.3349 22.8349C19.9914 25.1783 16.8141 26.4964 13.5 26.5ZM13.5 3.58334C11.4398 3.58334 9.42583 4.19427 7.71281 5.33886C5.9998 6.48346 4.66467 8.11032 3.87626 10.0137C3.08785 11.9171 2.88156 14.0116 3.28349 16.0322C3.68542 18.0528 4.67751 19.9089 6.13431 21.3657C7.59111 22.8225 9.44718 23.8146 11.4678 24.2165C13.4884 24.6184 15.5829 24.4122 17.4863 23.6237C19.3897 22.8353 21.0165 21.5002 22.1611 19.7872C23.3057 18.0742 23.9167 16.0602 23.9167 14C23.9136 11.2383 22.8152 8.5905 20.8623 6.63766C18.9095 4.68481 16.2617 3.58637 13.5 3.58334Z" fill="#FFA9A9" stroke="white" stroke-width="1.5"/>
</svg>
