<svg width="31" height="30" viewBox="0 0 31 30" fill="none" xmlns="http://www.w3.org/2000/svg">
<path d="M28.5983 11.454C29.1834 13.6978 29.2045 16.0515 28.6599 18.3055C28.1152 20.5594 27.0216 22.6437 25.4764 24.3727H21.0983V17.8103C21.0979 17.7369 21.0802 17.6646 21.0467 17.5993L20.578 16.6618C20.5283 16.563 20.4453 16.485 20.3436 16.4415L17.2358 15.0962L16.9827 14.3134C17.4159 13.9329 17.758 13.4597 17.9836 12.9291C18.2092 12.3984 18.3125 11.8238 18.2858 11.2478V7.49776C18.2862 7.43607 18.2743 7.37492 18.251 7.31781C18.2277 7.2607 18.1933 7.20875 18.1499 7.16495C17.2738 6.42429 16.1507 6.04101 15.0046 6.09152C13.8584 6.04101 12.7354 6.42429 11.8593 7.16495C11.8158 7.20875 11.7814 7.2607 11.7581 7.31781C11.7348 7.37492 11.723 7.43607 11.7233 7.49776V11.2478C11.6961 11.8234 11.7986 12.3978 12.0234 12.9284C12.2482 13.4591 12.5894 13.9324 13.0218 14.3134L12.7686 15.0962L9.66082 16.4415C9.55915 16.485 9.47614 16.563 9.42644 16.6618L8.95769 17.5993C8.92585 17.665 8.9098 17.7373 8.91082 17.8103V24.3727H4.5327C2.51016 22.1163 1.27057 19.267 0.998535 16.249C0.726503 13.2311 1.43658 10.206 3.02302 7.62423C4.60946 5.04251 6.98739 3.04229 9.80267 1.92145C12.618 0.800618 15.72 0.61913 18.6467 1.40402L18.8905 0.499333C15.7056 -0.35185 12.329 -0.130105 9.28278 1.13028C6.23656 2.39067 3.69039 4.61949 2.03797 7.47213C0.385546 10.3248 -0.281091 13.6423 0.141133 16.9118C0.563358 20.1814 2.05092 23.2207 4.37383 25.56C6.69673 27.8993 9.72558 29.4081 12.9921 29.8533C16.2585 30.2985 19.5807 29.6552 22.4449 28.0228C25.309 26.3904 27.5557 23.86 28.8374 20.8227C30.1192 17.7854 30.3646 14.4104 29.5358 11.2196L28.5983 11.454ZM12.6608 7.70401C13.3497 7.23392 14.1712 6.99732 15.0046 7.02901C15.8395 7.00144 16.6612 7.24301 17.3483 7.71808V9.77589C17.1139 9.71495 16.8796 9.59776 16.8796 9.37276C16.8796 9.24844 16.8302 9.12921 16.7423 9.04131C16.6544 8.9534 16.5351 8.90401 16.4108 8.90401H13.5983C13.474 8.90401 13.3548 8.9534 13.2669 9.04131C13.1789 9.12921 13.1296 9.24844 13.1296 9.37276C13.1296 9.59307 12.8952 9.71026 12.6608 9.77589V7.70401ZM12.6608 11.2478V10.7368C12.9385 10.7104 13.2051 10.6145 13.4361 10.458C13.6671 10.3016 13.8551 10.0896 13.9827 9.84151H16.0264C16.1541 10.0896 16.342 10.3016 16.573 10.458C16.804 10.6145 17.0706 10.7104 17.3483 10.7368V11.2478C17.3483 12.5462 16.7342 14.0603 15.0046 14.0603C13.2749 14.0603 12.6608 12.5462 12.6608 11.2478ZM16.3358 15.3493L15.0046 16.6806L13.6733 15.3493L13.8514 14.7915C14.5921 15.0682 15.4077 15.0682 16.1483 14.7915L16.3358 15.3493ZM9.84832 17.9228L10.1905 17.2384L13.003 16.0149L14.5358 17.5337V19.2165H15.4733V17.5337L16.9967 16.0103L19.8092 17.2337L20.1608 17.9228V24.3727H18.7546V22.029H17.8171V24.3727H12.1921V22.029H11.2546V24.3727H9.84832V17.9228ZM15.0046 29.0602C11.462 29.0627 8.05018 27.7228 5.45613 25.3102H24.553C21.9589 27.7228 18.5471 29.0627 15.0046 29.0602Z" fill="#272835"/>
<path d="M15.0046 3.74768V2.81018C11.8966 2.81018 8.91586 4.04483 6.71817 6.24252C4.52048 8.44021 3.28583 11.4209 3.28583 14.5289H4.22333C4.22333 11.6696 5.3592 8.92731 7.38108 6.90543C9.40295 4.88356 12.1452 3.74768 15.0046 3.74768Z" fill="#272835"/>
<path d="M4.22333 15.4664H3.28583V16.4039H4.22333V15.4664Z" fill="#272835"/>
<path d="M24.3796 11.2477C25.4921 11.2477 26.5796 10.9178 27.5047 10.2997C28.4297 9.68161 29.1506 8.8031 29.5764 7.77527C30.0021 6.74744 30.1135 5.61644 29.8965 4.5253C29.6794 3.43415 29.1437 2.43188 28.357 1.64521C27.5704 0.858536 26.5681 0.322808 25.477 0.105766C24.3858 -0.111276 23.2548 0.000117896 22.227 0.42586C21.1991 0.851603 20.3206 1.57257 19.7026 2.4976C19.0845 3.42262 18.7546 4.51016 18.7546 5.62268C18.7546 7.11452 19.3472 8.54526 20.4021 9.60015C21.457 10.655 22.8877 11.2477 24.3796 11.2477ZM24.3796 0.935182C25.3067 0.935182 26.213 1.2101 26.9838 1.72517C27.7547 2.24024 28.3555 2.97232 28.7103 3.82885C29.065 4.68538 29.1579 5.62788 28.977 6.53716C28.7961 7.44645 28.3497 8.28168 27.6941 8.93724C27.0386 9.5928 26.2033 10.0392 25.2941 10.2201C24.3848 10.401 23.4423 10.3081 22.5857 9.95336C21.7292 9.59857 20.9971 8.99777 20.4821 8.22691C19.967 7.45606 19.6921 6.54978 19.6921 5.62268C19.6921 4.37948 20.1859 3.18719 21.065 2.30812C21.9441 1.42904 23.1364 0.935182 24.3796 0.935182Z" fill="#272835"/>
<path d="M23.9108 8.43518H24.8483V6.09143H27.1921V5.15393H24.8483V2.81018H23.9108V5.15393H21.5671V6.09143H23.9108V8.43518Z" fill="#272835"/>
</svg>
