<svg width="30" height="30" viewBox="0 0 30 30" fill="none" xmlns="http://www.w3.org/2000/svg">
<path d="M15.0006 2.00001H15C12.4288 2.00001 9.91543 2.76244 7.77759 4.1909C5.63975 5.61936 3.97351 7.64968 2.98957 10.0251C2.00563 12.4006 1.74819 15.0144 2.2498 17.5362C2.75141 20.0579 3.98953 22.3743 5.80762 24.1924C7.6257 26.0105 9.94208 27.2486 12.4638 27.7502C14.9856 28.2518 17.5995 27.9944 19.9749 27.0104C22.3503 26.0265 24.3806 24.3603 25.8091 22.2224C27.2376 20.0846 28 17.5712 28 15V14.9995C27.9962 11.5529 26.6254 8.24869 24.1884 5.81164C21.7513 3.37459 18.4471 2.00379 15.0006 2.00001ZM14.9995 29.5C12.1318 29.4999 9.3286 28.6495 6.94424 27.0563C4.55972 25.463 2.70122 23.1984 1.60375 20.5489C0.506283 17.8994 0.219135 14.9839 0.77862 12.1712C1.33811 9.35847 2.7191 6.77482 4.74696 4.74696C6.77482 2.7191 9.35847 1.33811 12.1712 0.77862C14.9839 0.219135 17.8994 0.506283 20.5489 1.60375C23.1984 2.70122 25.463 4.55972 27.0563 6.94424C28.6495 9.3286 29.4999 12.1318 29.5 14.9995C29.4958 18.844 27.9668 22.5298 25.2483 25.2483C22.5298 27.9668 18.844 29.4958 14.9995 29.5Z" fill="black" stroke="white"/>
<path d="M14.4342 17.9858C12.2493 17.9858 10.4719 16.2084 10.4719 14.0235C10.4719 11.8386 12.2493 10.0613 14.4342 10.0613C16.6191 10.0613 18.3965 11.8386 18.3965 14.0235C18.3965 16.2084 16.6191 17.9858 14.4342 17.9858ZM14.4342 10.3443C12.4055 10.3443 10.7549 11.9949 10.7549 14.0235C10.7549 16.0522 12.4055 17.7028 14.4342 17.7028C16.4629 17.7028 18.1134 16.0522 18.1134 14.0235C18.1134 11.9949 16.4629 10.3443 14.4342 10.3443Z" fill="#263238"/>
<path d="M14.4344 14.7313C15.3723 14.7313 16.1325 13.971 16.1325 13.0332C16.1325 12.0954 15.3723 11.3351 14.4344 11.3351C13.4966 11.3351 12.7363 12.0954 12.7363 13.0332C12.7363 13.971 13.4966 14.7313 14.4344 14.7313Z" fill="white"/>
<path d="M14.4343 14.8726C13.42 14.8726 12.5947 14.0473 12.5947 13.033C12.5947 12.0186 13.42 11.1934 14.4343 11.1934C15.4487 11.1934 16.274 12.0186 16.274 13.033C16.274 14.0473 15.4487 14.8726 14.4343 14.8726ZM14.4343 11.4764C13.576 11.4764 12.8777 12.1746 12.8777 13.033C12.8777 13.8914 13.576 14.5896 14.4343 14.5896C15.2927 14.5896 15.991 13.8914 15.991 13.033C15.991 12.1746 15.2927 11.4764 14.4343 11.4764Z" fill="#263238"/>
<path d="M12.8964 13.1745H12.7362C12.6581 13.1745 12.5947 13.1111 12.5947 13.033C12.5947 12.0186 13.42 11.1934 14.4343 11.1934C14.9811 11.1934 15.496 11.4345 15.8469 11.8551C15.871 11.8839 15.8826 11.921 15.8792 11.9586C15.8758 11.996 15.8577 12.0305 15.8288 12.0546L15.7023 12.1599C14.916 12.8142 13.9195 13.1745 12.8964 13.1745ZM12.884 12.8915H12.8964C13.8533 12.8915 14.7856 12.5544 15.5211 11.9422L15.5339 11.9315C15.2429 11.6405 14.8495 11.4761 14.4343 11.4761C13.6238 11.4764 12.9559 12.0993 12.884 12.8915Z" fill="#263238"/>
<path d="M14.4347 14.7309C14.1239 14.7309 13.8335 14.646 13.5828 14.5002L13.583 15.0153L14.4332 15.9954L15.2812 15.0125L15.2809 14.5036C15.0315 14.6474 14.7431 14.7309 14.4347 14.7309Z" fill="white"/>
<path d="M14.4331 16.1371C14.3921 16.1371 14.353 16.1193 14.3262 16.0884L13.476 15.1084C13.4536 15.0826 13.4414 15.0498 13.4414 15.0158L13.4412 14.5007C13.4412 14.4501 13.4683 14.4031 13.5119 14.3779C13.5564 14.3527 13.6101 14.353 13.6537 14.3782C14.1275 14.6544 14.736 14.6552 15.21 14.3813C15.2539 14.3561 15.3077 14.3561 15.3515 14.3813C15.3954 14.4065 15.4223 14.4532 15.4223 14.5038L15.4226 15.0127C15.4226 15.0467 15.4104 15.0795 15.388 15.1052L14.5401 16.0882C14.5135 16.119 14.4745 16.1371 14.4331 16.1371ZM13.7245 14.9626L14.4329 15.7791L15.1396 14.9601V14.7311C14.6915 14.9173 14.1716 14.9168 13.7245 14.7285V14.9626Z" fill="#263238"/>
<path d="M16.0169 15.2567L15.2819 15.0125L14.4354 15.9951L13.5841 15.015L12.8536 15.257C12.531 15.364 12.2703 15.5816 12.0994 15.857C12.643 16.549 13.4859 16.995 14.4343 16.995C15.3829 16.995 16.2261 16.5487 16.77 15.8564C16.5996 15.5813 16.339 15.364 16.0169 15.2567Z" fill="white"/>
<path d="M14.4343 17.1366C13.4752 17.1366 12.5834 16.7022 11.9876 15.9449C11.9508 15.8982 11.9471 15.8333 11.9785 15.7827C12.1721 15.4705 12.467 15.2362 12.8084 15.123L13.5391 14.881C13.5929 14.8632 13.6529 14.8796 13.6905 14.9223L14.4349 15.779L15.1747 14.9203C15.212 14.877 15.272 14.8603 15.3267 14.8784L16.0617 15.1227C16.4027 15.2362 16.6973 15.4702 16.8906 15.7821C16.922 15.8328 16.9184 15.8973 16.8816 15.9443C16.2858 16.7019 15.394 17.1366 14.4343 17.1366ZM12.2749 15.8492C12.8152 16.4888 13.5966 16.8536 14.4343 16.8536C15.2723 16.8536 16.054 16.4885 16.5943 15.8486C16.4375 15.6344 16.2199 15.4736 15.9722 15.3913L15.3272 15.177L14.5427 16.0878C14.5158 16.1189 14.4768 16.1367 14.4357 16.137C14.3947 16.137 14.3556 16.1195 14.3287 16.0883L13.5388 15.1796L12.8978 15.3918C12.6499 15.4739 12.4319 15.6347 12.2749 15.8492Z" fill="#263238"/>
<path d="M14.434 17.1366C14.3559 17.1366 14.2925 17.0732 14.2925 16.9951V15.9955C14.2925 15.9174 14.3559 15.854 14.434 15.854C14.5121 15.854 14.5755 15.9174 14.5755 15.9955V16.9951C14.5755 17.0732 14.5121 17.1366 14.434 17.1366Z" fill="#263238"/>
<path d="M17.4354 17.9861C17.3978 17.9861 17.3618 17.9711 17.3352 17.9448L16.5915 17.2011C16.5623 17.1719 16.5473 17.1314 16.5504 17.0901C16.5535 17.0491 16.5745 17.0114 16.6076 16.9868C16.9022 16.77 17.1626 16.5116 17.3811 16.2184C17.4057 16.1853 17.4433 16.1649 17.4844 16.1618C17.5263 16.1598 17.5656 16.1737 17.5948 16.2028L18.336 16.9441C18.3912 16.9993 18.3912 17.089 18.336 17.1442L17.5353 17.9448C17.509 17.9711 17.4731 17.9861 17.4354 17.9861ZM16.9059 17.1147L17.4357 17.6445L18.0363 17.044L17.5084 16.5161C17.3293 16.7369 17.1275 16.9373 16.9059 17.1147Z" fill="#263238"/>
<path d="M20.3375 20.9705C20.2288 20.9705 20.1201 20.9291 20.0372 20.8462L17.4357 18.2447C17.2704 18.0791 17.2704 17.8097 17.4357 17.6441L18.0363 17.0439C18.2018 16.8783 18.471 16.8783 18.6365 17.0439L21.2381 19.6454C21.3182 19.7255 21.3623 19.8322 21.3623 19.9456C21.3623 20.0591 21.3182 20.1658 21.2381 20.2459L20.6378 20.8462C20.5551 20.9291 20.4465 20.9705 20.3375 20.9705ZM18.3365 17.2026C18.3003 17.2026 18.2641 17.2162 18.2364 17.2439L17.6358 17.8442C17.5806 17.8994 17.5806 17.9894 17.6358 18.0446L20.2373 20.6461C20.2925 20.7016 20.3822 20.7013 20.4377 20.6461L21.038 20.0455C21.0648 20.0189 21.0793 19.9833 21.0793 19.9454C21.0793 19.9077 21.0646 19.8721 21.038 19.8452L18.4365 17.2437C18.4087 17.2165 18.3728 17.2026 18.3365 17.2026Z" fill="#263238"/>
<path d="M20.0946 21.948H9.05685C8.8228 21.948 8.63232 21.7575 8.63232 21.5235V7.93857C8.63232 7.70451 8.8228 7.51404 9.05685 7.51404H19.8116C20.0456 7.51404 20.2361 7.70451 20.2361 7.93857V17.9014C20.2361 17.9795 20.1727 18.0429 20.0946 18.0429C20.0165 18.0429 19.9531 17.9795 19.9531 17.9014V7.93857C19.9531 7.86045 19.8897 7.79706 19.8116 7.79706H9.05685C8.97874 7.79706 8.91534 7.86045 8.91534 7.93857V21.5235C8.91534 21.6016 8.97874 21.665 9.05685 21.665H20.0946C20.1727 21.665 20.2361 21.7284 20.2361 21.8065C20.2361 21.8846 20.1727 21.948 20.0946 21.948Z" fill="#263238"/>
<path d="M18.6792 23.08H7.92453C7.69047 23.08 7.5 22.8895 7.5 22.6555V9.35361C7.5 9.11955 7.69047 8.92908 7.92453 8.92908H8.20755C8.28566 8.92908 8.34906 8.99247 8.34906 9.07059C8.34906 9.1487 8.28566 9.2121 8.20755 9.2121H7.92453C7.84642 9.2121 7.78302 9.27549 7.78302 9.35361V22.6555C7.78302 22.7336 7.84642 22.797 7.92453 22.797H18.6792C18.7574 22.797 18.8208 22.7336 18.8208 22.6555V22.3725C18.8208 22.2944 18.8841 22.231 18.9623 22.231C19.0404 22.231 19.1038 22.2944 19.1038 22.3725V22.6555C19.1038 22.8895 18.9133 23.08 18.6792 23.08Z" fill="#263238"/>
<path d="M23.2493 26.7497C24.113 26.7497 24.9574 26.4935 25.6756 26.0136C26.3937 25.5338 26.9535 24.8517 27.284 24.0537C27.6146 23.2557 27.7011 22.3776 27.5326 21.5305C27.364 20.6833 26.9481 19.9051 26.3374 19.2944C25.7266 18.6836 24.9484 18.2677 24.1013 18.0992C23.2541 17.9307 22.376 18.0172 21.578 18.3477C20.78 18.6782 20.098 19.238 19.6181 19.9562C19.1382 20.6744 18.8821 21.5187 18.8821 22.3825C18.8821 23.5407 19.3422 24.6515 20.1612 25.4705C20.9802 26.2895 22.091 26.7497 23.2493 26.7497ZM23.2493 19.6598C23.7878 19.6598 24.3142 19.8195 24.7619 20.1186C25.2096 20.4178 25.5586 20.843 25.7647 21.3405C25.9708 21.838 26.0247 22.3855 25.9196 22.9136C25.8146 23.4418 25.5553 23.9269 25.1745 24.3077C24.7937 24.6884 24.3086 24.9478 23.7804 25.0528C23.2523 25.1579 22.7049 25.1039 22.2074 24.8979C21.7099 24.6918 21.2846 24.3428 20.9855 23.8951C20.6863 23.4473 20.5266 22.9209 20.5266 22.3825C20.5266 21.6604 20.8135 20.9678 21.3241 20.4572C21.8347 19.9466 22.5272 19.6598 23.2493 19.6598Z" fill="#272835" stroke="white"/>
<path d="M22.4485 24.1871V24.6871H22.9485H23.5501H24.0501V24.1871V23.3981H25.054H25.554V22.8981V22.3824V21.8824H25.054H24.0501V21.0934V20.5934H23.5501H22.9485H22.4485V21.0934V21.8824H21.4446H20.9446V22.3824V22.8981V23.3981H21.4446H22.4485V24.1871Z" fill="#272835" stroke="white"/>
<path d="M15.1417 18.9766H10.8964C10.8183 18.9766 10.7549 18.9132 10.7549 18.8351C10.7549 18.757 10.8183 18.6936 10.8964 18.6936H15.1417C15.2198 18.6936 15.2832 18.757 15.2832 18.8351C15.2832 18.9132 15.2198 18.9766 15.1417 18.9766Z" fill="#263238"/>
<path d="M15.1417 19.8256H10.8964C10.8183 19.8256 10.7549 19.7622 10.7549 19.6841C10.7549 19.606 10.8183 19.5426 10.8964 19.5426H15.1417C15.2198 19.5426 15.2832 19.606 15.2832 19.6841C15.2832 19.7622 15.2198 19.8256 15.1417 19.8256Z" fill="#263238"/>
<path d="M13.019 20.6749H10.8964C10.8183 20.6749 10.7549 20.6115 10.7549 20.5334C10.7549 20.4552 10.8183 20.3918 10.8964 20.3918H13.019C13.0971 20.3918 13.1605 20.4552 13.1605 20.5334C13.1605 20.6115 13.0971 20.6749 13.019 20.6749Z" fill="#263238"/>
<path d="M22.3585 7.79706H21.2265C21.1484 7.79706 21.085 7.73366 21.085 7.65555C21.085 7.57743 21.1484 7.51404 21.2265 7.51404H22.3585C22.4367 7.51404 22.5001 7.57743 22.5001 7.65555C22.5001 7.73366 22.4367 7.79706 22.3585 7.79706Z" fill="#263238"/>
<path d="M20.6605 6.09894H19.5285C19.4504 6.09894 19.387 6.03554 19.387 5.95743C19.387 5.87931 19.4504 5.81592 19.5285 5.81592H20.6605C20.7387 5.81592 20.8021 5.87931 20.8021 5.95743C20.8021 6.03554 20.7387 6.09894 20.6605 6.09894Z" fill="#263238"/>
<path d="M20.0944 6.66509C20.0162 6.66509 19.9529 6.6017 19.9529 6.52358V5.39151C19.9529 5.3134 20.0162 5.25 20.0944 5.25C20.1725 5.25 20.2359 5.3134 20.2359 5.39151V6.52358C20.2359 6.6017 20.1725 6.66509 20.0944 6.66509Z" fill="#263238"/>
<path d="M21.7921 8.36297C21.714 8.36297 21.6506 8.29957 21.6506 8.22146V7.08939C21.6506 7.01127 21.714 6.94788 21.7921 6.94788C21.8702 6.94788 21.9336 7.01127 21.9336 7.08939V8.22146C21.9336 8.29957 21.8702 8.36297 21.7921 8.36297Z" fill="#263238"/>
</svg>
