<svg width="30" height="30" viewBox="0 0 30 30" fill="none" xmlns="http://www.w3.org/2000/svg">
<path fill-rule="evenodd" clip-rule="evenodd" d="M18.588 7.34082C18.494 6.99181 18.1821 6.75 17.8265 6.75C16.1732 6.75 11.5768 6.75 9.92346 6.75C9.56788 6.75 9.25602 6.99181 9.16196 7.34082C8.71778 8.98584 7.5 13.5 7.5 13.5H20.25C20.25 13.5 19.0322 8.98584 18.588 7.34082Z" stroke="#222A33" stroke-miterlimit="2" stroke-linecap="round" stroke-linejoin="round"/>
<path d="M21.0991 13.977C20.9837 13.689 20.7041 13.5 20.3932 13.5C18.1927 13.5 9.5922 13.5 7.39171 13.5C7.08089 13.5 6.80127 13.689 6.68589 13.977C6.53443 14.3542 6.32472 14.8774 6.17739 15.2452C6.06013 15.5374 6 15.849 6 16.1636V17.991C6 18.4102 6.3405 18.75 6.76068 18.75C8.32715 18.75 12.0486 18.75 15.3958 18.75" stroke="#222A33" stroke-miterlimit="2" stroke-linecap="round" stroke-linejoin="round"/>
<path d="M6 15H7.71005C8.07634 15 8.411 15.2241 8.57476 15.579C8.76978 16.0016 9 16.5 9 16.5" stroke="#222A33" stroke-miterlimit="2" stroke-linecap="round" stroke-linejoin="round"/>
<path d="M8.25 12.75C8.25 12.75 7.58825 11.25 6.75 11.25" stroke="#222A33" stroke-miterlimit="2" stroke-linecap="round" stroke-linejoin="round"/>
<path d="M20.25 12.75C20.25 12.75 20.9116 11.25 21.75 11.25" stroke="#222A33" stroke-miterlimit="2" stroke-linecap="round" stroke-linejoin="round"/>
<path fill-rule="evenodd" clip-rule="evenodd" d="M9.75 18.75H7.5V20.2555C7.5 20.4526 7.56171 20.642 7.67132 20.782C7.78125 20.9215 7.93007 21 8.085 21C8.41768 21 8.83232 21 9.165 21C9.31993 21 9.46875 20.9215 9.57868 20.782C9.68828 20.642 9.75 20.4526 9.75 20.2555C9.75 19.6001 9.75 18.75 9.75 18.75Z" stroke="#222A33" stroke-miterlimit="2" stroke-linecap="round" stroke-linejoin="round"/>
<path d="M15.0006 2.00001H15C12.4288 2.00001 9.91543 2.76244 7.77759 4.1909C5.63975 5.61936 3.97351 7.64968 2.98957 10.0251C2.00563 12.4006 1.74819 15.0144 2.2498 17.5362C2.75141 20.0579 3.98953 22.3743 5.80762 24.1924C7.6257 26.0105 9.94208 27.2486 12.4638 27.7502C14.9856 28.2518 17.5995 27.9944 19.9749 27.0104C22.3503 26.0265 24.3806 24.3603 25.8091 22.2224C27.2376 20.0846 28 17.5712 28 15V14.9995C27.9962 11.5529 26.6254 8.24869 24.1884 5.81164C21.7513 3.37459 18.4471 2.00379 15.0006 2.00001ZM14.9995 29.5C12.1318 29.4999 9.3286 28.6495 6.94424 27.0563C4.55972 25.463 2.70122 23.1984 1.60375 20.5489C0.506283 17.8994 0.219135 14.9839 0.77862 12.1712C1.33811 9.35847 2.7191 6.77482 4.74696 4.74696C6.77482 2.7191 9.35847 1.33811 12.1712 0.77862C14.9839 0.219135 17.8994 0.506283 20.5489 1.60375C23.1984 2.70122 25.463 4.55972 27.0563 6.94424C28.6495 9.3286 29.4999 12.1318 29.5 14.9995C29.4958 18.844 27.9668 22.5298 25.2483 25.2483C22.5298 27.9668 18.844 29.4958 14.9995 29.5Z" fill="black" stroke="white"/>
<path d="M20.25 24C21.14 24 22.01 23.7141 22.7501 23.1784C23.4901 22.6427 24.0669 21.8814 24.4075 20.9906C24.748 20.0998 24.8372 19.1196 24.6635 18.1739C24.4899 17.2283 24.0613 16.3596 23.432 15.6779C22.8026 14.9961 22.0008 14.5318 21.1279 14.3437C20.255 14.1556 19.3502 14.2521 18.5279 14.6211C17.7057 14.9901 17.0029 15.6149 16.5084 16.4166C16.0139 17.2183 15.75 18.1608 15.75 19.125C15.75 20.4179 16.2241 21.6579 17.068 22.5721C17.9119 23.4864 19.0565 24 20.25 24ZM20.25 15.0625C20.9917 15.0625 21.7167 15.3008 22.3334 15.7472C22.9501 16.1935 23.4307 16.828 23.7145 17.5703C23.9984 18.3127 24.0726 19.1295 23.9279 19.9176C23.7832 20.7056 23.4261 21.4295 22.9016 21.9976C22.3772 22.5658 21.709 22.9527 20.9816 23.1094C20.2542 23.2662 19.5002 23.1857 18.8149 22.8783C18.1297 22.5708 17.544 22.0501 17.132 21.382C16.7199 20.7139 16.5 19.9285 16.5 19.125C16.5 18.0476 16.8951 17.0142 17.5983 16.2524C18.3016 15.4905 19.2554 15.0625 20.25 15.0625Z" fill="#272835"/>
<path d="M19.875 21.75H20.625V19.875H22.5V19.125H20.625V17.25H19.875V19.125H18V19.875H19.875V21.75Z" fill="#272835"/>
</svg>
