<svg width="30" height="30" viewBox="0 0 30 30" fill="none" xmlns="http://www.w3.org/2000/svg">
<path fill-rule="evenodd" clip-rule="evenodd" d="M15.2923 21.7804H15.2911L10.3278 21.7792C10.1654 21.7792 10.0348 21.6473 10.0348 21.4862C10.0348 21.3238 10.1654 21.1932 10.3278 21.1932L15.2911 21.1945H15.2923C16.3872 21.1945 17.4578 20.8893 18.3879 20.3119L24.6061 16.4497C24.7831 16.3178 24.8832 16.1689 24.9088 15.9943C24.9381 15.8051 24.86 15.6269 24.7025 15.5171C24.5609 15.4182 24.362 15.3767 24.1251 15.3938C23.8126 15.417 23.4501 15.5415 23.0509 15.7636C23.0009 15.7917 22.5639 16.0676 21.8425 16.5229C21.1577 16.9538 20.1237 17.6056 18.7517 18.4687C18.615 18.5553 18.4343 18.5138 18.3476 18.3771C18.261 18.2404 18.3025 18.0597 18.4392 17.9731C19.8112 17.1113 20.8452 16.4594 21.5287 16.0285C22.4516 15.4475 22.7189 15.279 22.7653 15.2534C23.2401 14.9897 23.682 14.842 24.0812 14.8115C24.4535 14.7834 24.7843 14.8615 25.037 15.0373C25.3776 15.2741 25.5509 15.6757 25.4886 16.0834C25.4374 16.4167 25.2543 16.7023 24.9442 16.9294C24.9406 16.9318 24.9369 16.9343 24.9332 16.9367C24.9308 16.9379 24.9284 16.9391 24.9271 16.9404L18.6992 20.8087C17.6738 21.4447 16.4959 21.7804 15.2923 21.7804Z" fill="#212121"/>
<path fill-rule="evenodd" clip-rule="evenodd" d="M17.5723 19.3571H14.6121C14.4498 19.3571 14.3192 19.2264 14.3192 19.0641C14.3192 18.9017 14.4498 18.7711 14.6121 18.7711H17.5723C17.9739 18.7711 18.3023 18.4574 18.3206 18.057C18.3303 17.8532 18.2571 17.6591 18.1143 17.5102C17.9678 17.3564 17.77 17.2721 17.5564 17.2721H13.8969C13.8956 17.2721 13.8956 17.2721 13.8944 17.2721C13.6417 17.2697 13.0509 17.2648 12.4369 17.4003C11.7582 17.5504 11.2126 17.8324 10.8159 18.2401C10.7255 18.3329 10.6413 18.433 10.5644 18.538C10.4692 18.6686 10.2861 18.6979 10.1555 18.6027C10.0249 18.5075 9.99556 18.3244 10.0908 18.1937C10.1835 18.0656 10.2861 17.9447 10.3959 17.8324C10.8744 17.3417 11.5177 17.0036 12.3112 16.829C12.913 16.696 13.4757 16.6838 13.8993 16.6874H17.5576C17.9263 16.6874 18.2839 16.84 18.5391 17.1073C18.793 17.3734 18.9236 17.7213 18.9065 18.0863C18.8723 18.798 18.2864 19.3571 17.5723 19.3571Z" fill="#212121"/>
<path fill-rule="evenodd" clip-rule="evenodd" d="M10.3254 22.1978H7.04418C6.88183 22.1978 6.75 22.066 6.75 21.9036V17.4896C6.75 17.3273 6.88183 17.1954 7.04418 17.1954H10.3254C10.4877 17.1954 10.6196 17.3273 10.6196 17.4896V21.9036C10.6196 22.066 10.4877 22.1978 10.3254 22.1978ZM7.33593 21.6119H10.0336V17.7814H7.33593V21.6119Z" fill="#212121"/>
<path fill-rule="evenodd" clip-rule="evenodd" d="M15.6591 14.6976C15.0622 14.6976 14.4751 14.5389 13.9599 14.2398C13.4729 13.9554 13.0579 13.5501 12.7612 13.0692C12.478 12.6102 12.3108 12.0927 12.2754 11.5702C12.2376 11.0062 12.3486 10.4618 12.6074 9.94913C12.6086 9.94791 12.6086 9.94547 12.6099 9.94425L15.4004 4.65625C15.4516 4.55981 15.5505 4.5 15.6591 4.5C15.7678 4.5 15.8679 4.55981 15.9179 4.65625L18.7084 9.94303C18.7096 9.94425 18.7096 9.94669 18.7108 9.94791C18.9696 10.4606 19.0807 11.0062 19.0429 11.569C19.0075 12.0902 18.839 12.609 18.557 13.068C18.2604 13.5501 17.8454 13.9554 17.3583 14.2386C16.8432 14.5389 16.2561 14.6976 15.6591 14.6976ZM13.1287 10.214C12.9187 10.6315 12.8284 11.0734 12.8589 11.5299C12.8882 11.9572 13.0261 12.382 13.2593 12.7604C13.5059 13.1608 13.8501 13.4964 14.2541 13.7333C14.6789 13.9811 15.1648 14.1117 15.6579 14.1117C16.1511 14.1117 16.6369 13.9811 17.0617 13.7333C17.4657 13.4977 17.81 13.1608 18.0566 12.7604C18.2897 12.382 18.4276 11.9572 18.4569 11.5299C18.4875 11.0734 18.3971 10.6303 18.1872 10.214L15.6591 5.4204L13.1287 10.214Z" fill="#212121"/>
<path fill-rule="evenodd" clip-rule="evenodd" d="M15.6613 12.9401C15.4989 12.9401 15.3683 12.8095 15.3683 12.6472V9.59912C15.3683 9.43677 15.4989 9.30615 15.6613 9.30615C15.8236 9.30615 15.9542 9.43677 15.9542 9.59912V12.6472C15.9542 12.8095 15.8224 12.9401 15.6613 12.9401Z" fill="#212121"/>
<path fill-rule="evenodd" clip-rule="evenodd" d="M17.1844 11.4161H14.1363C13.974 11.4161 13.8434 11.2855 13.8434 11.1232C13.8434 10.9608 13.974 10.8302 14.1363 10.8302H17.1844C17.3467 10.8302 17.4774 10.9608 17.4774 11.1232C17.4774 11.2855 17.3467 11.4161 17.1844 11.4161Z" fill="#212121"/>
<path d="M15.0006 2.00001H15C12.4288 2.00001 9.91543 2.76244 7.77759 4.1909C5.63975 5.61936 3.97351 7.64968 2.98957 10.0251C2.00563 12.4006 1.74819 15.0144 2.2498 17.5362C2.75141 20.0579 3.98953 22.3743 5.80762 24.1924C7.6257 26.0105 9.94208 27.2486 12.4638 27.7502C14.9856 28.2518 17.5995 27.9944 19.9749 27.0104C22.3503 26.0265 24.3806 24.3603 25.8091 22.2224C27.2376 20.0846 28 17.5712 28 15V14.9995C27.9962 11.5529 26.6254 8.24869 24.1884 5.81164C21.7513 3.37459 18.4471 2.00379 15.0006 2.00001ZM14.9995 29.5C12.1318 29.4999 9.3286 28.6495 6.94424 27.0563C4.55972 25.463 2.70122 23.1984 1.60375 20.5489C0.506283 17.8994 0.219135 14.9839 0.77862 12.1712C1.33811 9.35847 2.7191 6.77482 4.74696 4.74696C6.77482 2.7191 9.35847 1.33811 12.1712 0.77862C14.9839 0.219135 17.8994 0.506283 20.5489 1.60375C23.1984 2.70122 25.463 4.55972 27.0563 6.94424C28.6495 9.3286 29.4999 12.1318 29.5 14.9995C29.4958 18.844 27.9668 22.5298 25.2483 25.2483C22.5298 27.9668 18.844 29.4958 14.9995 29.5Z" fill="black" stroke="white"/>
</svg>
