<svg width="27" height="28" viewBox="0 0 27 28" fill="none" xmlns="http://www.w3.org/2000/svg">
<path fill-rule="evenodd" clip-rule="evenodd" d="M16.49 7.61735C16.4116 7.32651 16.1518 7.125 15.8554 7.125C14.4776 7.125 10.6474 7.125 9.26955 7.125C8.97324 7.125 8.71335 7.32651 8.63496 7.61735C8.26482 8.9882 7.25 12.75 7.25 12.75H17.875C17.875 12.75 16.8602 8.9882 16.49 7.61735Z" stroke="#222A33" stroke-miterlimit="2" stroke-linecap="round" stroke-linejoin="round"/>
<path d="M18.5825 13.1475C18.4864 12.9075 18.2534 12.75 17.9944 12.75C16.1606 12.75 8.9935 12.75 7.15976 12.75C6.90074 12.75 6.66773 12.9075 6.57158 13.1475C6.44536 13.4619 6.2706 13.8978 6.14783 14.2044C6.05011 14.4478 6 14.7075 6 14.9697V16.4925C6 16.8419 6.28375 17.125 6.6339 17.125C7.93929 17.125 11.0405 17.125 13.8298 17.125" stroke="#222A33" stroke-miterlimit="2" stroke-linecap="round" stroke-linejoin="round"/>
<path d="M6 14H7.42504C7.73029 14 8.00916 14.1868 8.14563 14.4825C8.30815 14.8346 8.5 15.25 8.5 15.25" stroke="#222A33" stroke-miterlimit="2" stroke-linecap="round" stroke-linejoin="round"/>
<path d="M7.875 12.125C7.875 12.125 7.32354 10.875 6.625 10.875" stroke="#222A33" stroke-miterlimit="2" stroke-linecap="round" stroke-linejoin="round"/>
<path d="M17.875 12.125C17.875 12.125 18.4263 10.875 19.125 10.875" stroke="#222A33" stroke-miterlimit="2" stroke-linecap="round" stroke-linejoin="round"/>
<path fill-rule="evenodd" clip-rule="evenodd" d="M9.125 17.125H7.25V18.3795C7.25 18.5439 7.30143 18.7017 7.39277 18.8183C7.48437 18.9345 7.60839 19 7.7375 19C8.01473 19 8.36027 19 8.6375 19C8.76661 19 8.89062 18.9345 8.98223 18.8183C9.07357 18.7017 9.125 18.5439 9.125 18.3795C9.125 17.8334 9.125 17.125 9.125 17.125Z" stroke="#222A33" stroke-miterlimit="2" stroke-linecap="round" stroke-linejoin="round"/>
<path d="M13.5 26.5C11.0277 26.5 8.61099 25.7669 6.55538 24.3934C4.49976 23.0199 2.89761 21.0676 1.95151 18.7835C1.00542 16.4995 0.757874 13.9861 1.24019 11.5614C1.7225 9.13661 2.91301 6.90933 4.66117 5.16117C6.40933 3.41301 8.63661 2.2225 11.0614 1.74019C13.4861 1.25787 15.9995 1.50542 18.2835 2.45151C20.5676 3.39761 22.5199 4.99976 23.8934 7.05538C25.2669 9.11099 26 11.5277 26 14C25.9964 17.3141 24.6783 20.4914 22.3349 22.8349C19.9914 25.1783 16.8141 26.4964 13.5 26.5ZM13.5 3.58334C11.4398 3.58334 9.42583 4.19427 7.71281 5.33886C5.9998 6.48346 4.66467 8.11032 3.87626 10.0137C3.08785 11.9171 2.88156 14.0116 3.28349 16.0322C3.68542 18.0528 4.67751 19.9089 6.13431 21.3657C7.59111 22.8225 9.44718 23.8146 11.4678 24.2165C13.4884 24.6184 15.5829 24.4122 17.4863 23.6237C19.3897 22.8353 21.0165 21.5002 22.1611 19.7872C23.3057 18.0742 23.9167 16.0602 23.9167 14C23.9136 11.2383 22.8152 8.5905 20.8623 6.63766C18.9095 4.68481 16.2617 3.58637 13.5 3.58334Z" fill="#FFA9A9" stroke="white" stroke-width="1.5"/>
<path d="M17.875 21.5C18.6167 21.5 19.3417 21.2617 19.9584 20.8153C20.5751 20.369 21.0557 19.7345 21.3395 18.9922C21.6234 18.2498 21.6976 17.433 21.5529 16.6449C21.4082 15.8569 21.0511 15.133 20.5266 14.5649C20.0022 13.9967 19.334 13.6098 18.6066 13.4531C17.8792 13.2963 17.1252 13.3768 16.4399 13.6842C15.7547 13.9917 15.169 14.5124 14.757 15.1805C14.3449 15.8486 14.125 16.634 14.125 17.4375C14.125 18.5149 14.5201 19.5483 15.2233 20.3101C15.9266 21.072 16.8804 21.5 17.875 21.5ZM17.875 14.0521C18.4931 14.0521 19.0973 14.2506 19.6112 14.6226C20.1251 14.9946 20.5256 15.5234 20.7621 16.142C20.9986 16.7606 21.0605 17.4413 20.94 18.098C20.8194 18.7547 20.5217 19.3579 20.0847 19.8313C19.6477 20.3048 19.0908 20.6272 18.4847 20.7579C17.8785 20.8885 17.2501 20.8214 16.6791 20.5652C16.1081 20.309 15.62 19.8751 15.2767 19.3183C14.9333 18.7616 14.75 18.1071 14.75 17.4375C14.75 16.5396 15.0792 15.6785 15.6653 15.0436C16.2513 14.4088 17.0462 14.0521 17.875 14.0521Z" fill="#272835"/>
<path d="M17.5625 19.625H18.1875V18.0625H19.75V17.4375H18.1875V15.875H17.5625V17.4375H16V18.0625H17.5625V19.625Z" fill="#272835"/>
</svg>
