<svg width="30" height="30" viewBox="0 0 30 30" fill="none" xmlns="http://www.w3.org/2000/svg">
<path d="M15.0006 2.00001H15C12.4288 2.00001 9.91543 2.76244 7.77759 4.1909C5.63975 5.61936 3.97351 7.64968 2.98957 10.0251C2.00563 12.4006 1.74819 15.0144 2.2498 17.5362C2.75141 20.0579 3.98953 22.3743 5.80762 24.1924C7.6257 26.0105 9.94208 27.2486 12.4638 27.7502C14.9856 28.2518 17.5995 27.9944 19.9749 27.0104C22.3503 26.0265 24.3806 24.3603 25.8091 22.2224C27.2376 20.0846 28 17.5712 28 15V14.9995C27.9962 11.5529 26.6254 8.24869 24.1884 5.81164C21.7513 3.37459 18.4471 2.00379 15.0006 2.00001ZM14.9995 29.5C12.1318 29.4999 9.3286 28.6495 6.94424 27.0563C4.55972 25.463 2.70122 23.1984 1.60375 20.5489C0.506283 17.8994 0.219135 14.9839 0.77862 12.1712C1.33811 9.35847 2.7191 6.77482 4.74696 4.74696C6.77482 2.7191 9.35847 1.33811 12.1712 0.77862C14.9839 0.219135 17.8994 0.506283 20.5489 1.60375C23.1984 2.70122 25.463 4.55972 27.0563 6.94424C28.6495 9.3286 29.4999 12.1318 29.5 14.9995C29.4958 18.844 27.9668 22.5298 25.2483 25.2483C22.5298 27.9668 18.844 29.4958 14.9995 29.5Z" fill="black" stroke="white"/>
<path d="M10.1008 23.1168C9.79593 23.1168 9.48883 23.0633 9.19345 22.9534L8.83743 22.8209L10.4465 21.1871L10.2182 20.322L9.3739 20.092L7.76009 21.7314L7.62759 21.3639C7.27608 20.3891 7.51497 19.2864 8.23605 18.5544C8.88867 17.8913 9.82887 17.6264 10.7214 17.8446L13.0229 15.5068L13.3736 15.852L10.8658 18.3988L10.7232 18.3551C9.96418 18.1227 9.14574 18.3311 8.58645 18.8994C8.09366 19.3998 7.87685 20.1125 7.98751 20.7991L9.22529 19.5419L10.6214 19.9221L10.9937 21.3328L9.75005 22.5955C10.4243 22.7094 11.1258 22.4898 11.618 21.9897C12.1792 21.4194 12.3852 20.5844 12.1556 19.8109L12.1142 19.6716L14.7336 17.0113L15.0843 17.3565L12.6655 19.8133C12.8815 20.7173 12.6212 21.6716 11.9688 22.3347C11.4676 22.8438 10.7901 23.1168 10.1008 23.1168Z" fill="#282D33"/>
<path d="M16.75 15.6647L16.3992 15.3196L19.4533 12.2175L19.596 12.2612C20.3545 12.4934 21.1732 12.2851 21.7327 11.717C22.2253 11.2167 22.4422 10.5039 22.3319 9.81734L21.094 11.0745L19.6979 10.6945L19.326 9.28417L20.5695 8.02113C19.8947 7.90693 19.1931 8.12703 18.7007 8.62703C18.1396 9.19693 17.9338 10.0318 18.164 10.8057L18.2054 10.945L15.4017 13.7917L15.0511 13.4465L17.654 10.8034C17.4374 9.89897 17.6975 8.94462 18.35 8.28186C19.0732 7.54774 20.1626 7.30494 21.1257 7.66316L21.4817 7.79566L19.8728 9.42972L20.1008 10.2944L20.9453 10.5243L22.5593 8.88495L22.6918 9.25269C23.0428 10.2272 22.804 11.3299 22.083 12.0622C21.43 12.7252 20.4897 12.9902 19.5977 12.7717L16.75 15.6647Z" fill="#282D33"/>
<path d="M15.3127 18.3281C15.1655 18.3281 15.0272 18.2714 14.9237 18.1686L12.826 16.046C12.6142 15.8355 12.6142 15.4928 12.826 15.2822L12.8273 15.281L12.0234 14.4823L13.8607 12.6562L14.6645 13.4553C14.7681 13.3546 14.9045 13.2994 15.0497 13.2994C15.1968 13.2994 15.3352 13.3561 15.439 13.459L17.5365 15.5817C17.7481 15.792 17.7482 16.1344 17.5369 16.3451L15.7023 18.1684C15.5979 18.2714 15.4598 18.3281 15.3127 18.3281ZM12.6897 14.4824L13.2184 15.0077C13.234 15.0234 13.2522 15.0355 13.2698 15.0423L13.6041 15.1709L13.1642 15.6084C13.1337 15.6387 13.1337 15.6898 13.1642 15.7201L15.2617 17.8426C15.2791 17.8599 15.299 17.8636 15.3126 17.8636C15.3262 17.8636 15.3463 17.8599 15.3642 17.8421L17.1982 16.0197C17.2285 15.9893 17.2286 15.9382 17.1981 15.9079L15.1009 13.7854C15.0831 13.7678 15.0632 13.764 15.0496 13.764C15.0361 13.764 15.0162 13.7677 14.9985 13.7855L14.5544 14.2276L14.4207 13.8938C14.4126 13.8734 14.4004 13.8553 14.3848 13.8399L13.8606 13.3187L12.6897 14.4824Z" fill="#282D33"/>
<path d="M15.1867 15.3432L9.54407 9.61292L9.19356 9.95806L14.8362 15.6884L15.1867 15.3432Z" fill="#282D33"/>
<path d="M9.70238 10.4375L8.46765 10.309L7.38275 8.58126L8.18081 7.77039L9.88808 8.87615L10.0137 10.1221L9.70238 10.4375ZM8.75681 9.84454L9.49899 9.92177L9.42225 9.16055L8.24999 8.40129L8.00622 8.64909L8.75681 9.84454Z" fill="#282D33"/>
<path d="M17.2133 15.3545L16.8628 15.0094L14.5015 17.4077L14.852 17.7529L17.2133 15.3545Z" fill="#282D33"/>
<path d="M19.4999 24.4999C20.3636 24.4999 21.208 24.2438 21.9262 23.7639C22.6444 23.284 23.2041 22.602 23.5347 21.804C23.8652 21.006 23.9517 20.1279 23.7832 19.2807C23.6147 18.4336 23.1987 17.6554 22.588 17.0446C21.9772 16.4339 21.199 16.0179 20.3519 15.8494C19.5047 15.6809 18.6266 15.7674 17.8286 16.0979C17.0306 16.4285 16.3486 16.9882 15.8687 17.7064C15.3888 18.4246 15.1327 19.269 15.1327 20.1327C15.1327 21.291 15.5928 22.4018 16.4118 23.2208C17.2308 24.0398 18.3416 24.4999 19.4999 24.4999ZM19.4999 17.41C20.0384 17.41 20.5648 17.5697 21.0125 17.8689C21.4603 18.1681 21.8092 18.5933 22.0153 19.0908C22.2214 19.5883 22.2753 20.1357 22.1702 20.6639C22.0652 21.192 21.8059 21.6771 21.4251 22.0579C21.0443 22.4387 20.5592 22.698 20.0311 22.8031C19.5029 22.9081 18.9555 22.8542 18.458 22.6481C17.9605 22.442 17.5352 22.0931 17.2361 21.6453C16.9369 21.1976 16.7772 20.6712 16.7772 20.1327C16.7772 19.4106 17.0641 18.7181 17.5747 18.2075C18.0853 17.6969 18.7778 17.41 19.4999 17.41Z" fill="#272835" stroke="white"/>
<path d="M18.6991 21.9374V22.4374H19.1991H19.8007H20.3007V21.9374V21.1483H21.3046H21.8046V20.6483V20.1327V19.6327H21.3046H20.3007V18.8436V18.3436H19.8007H19.1991H18.6991V18.8436V19.6327H17.6952H17.1952V20.1327V20.6483V21.1483H17.6952H18.6991V21.9374Z" fill="#272835" stroke="white"/>
</svg>
