<svg width="27" height="28" viewBox="0 0 27 28" fill="none" xmlns="http://www.w3.org/2000/svg">
<path d="M14.5755 12.75C12.5671 12.75 9.2786 12.75 7.27021 12.75C6.98653 12.75 6.73132 12.93 6.62601 13.2043C6.48778 13.5636 6.29637 14.0618 6.16191 14.4121C6.05488 14.6904 6 14.9871 6 15.2868V17.0271C6 17.4264 6.31078 17.75 6.69428 17.75C8.12399 17.75 11.5206 17.75 14.5755 17.75" stroke="#222A33" stroke-miterlimit="2" stroke-linecap="round" stroke-linejoin="round"/>
<path fill-rule="evenodd" clip-rule="evenodd" d="M17.115 7.61735C17.0366 7.32651 16.7768 7.125 16.4804 7.125C15.1026 7.125 11.2724 7.125 9.89455 7.125C9.59824 7.125 9.33835 7.32651 9.25996 7.61735C8.88982 8.9882 7.875 12.75 7.875 12.75H13.5C13.5 12.75 18.0833 9.41667 17.115 7.61735Z" fill="#EDEBF2" stroke="#222A33" stroke-miterlimit="2" stroke-linecap="round" stroke-linejoin="round"/>
<path d="M18.0036 23.0154L17.6636 22.6997L17.4434 22.4953C17.3382 22.3978 16.1237 21.2622 14.9316 19.7728C14.3357 19.0284 13.7363 18.1843 13.2837 17.3284C12.8354 16.4805 12.5068 15.576 12.5068 14.7221L18.0036 23.0154ZM18.0036 23.0154L18.3438 22.6999M18.0036 23.0154L18.3438 22.6999M18.3438 22.6999L18.5643 22.4953L18.5645 22.4952M18.3438 22.6999L18.5645 22.4952M18.5645 22.4952C18.6694 22.3978 19.8837 21.2622 21.0756 19.7728C21.6714 19.0283 22.2708 18.1843 22.7232 17.3283C23.1715 16.4805 23.5 15.576 23.5 14.7221C23.5 11.4868 21.0741 8.78101 18.0038 8.78101C14.9328 8.78101 12.5067 11.4867 12.5068 14.7221L18.5645 22.4952ZM14.1898 14.7223C14.1898 12.3717 15.9399 10.5315 18.0038 10.5315C20.0671 10.5315 21.817 12.3716 21.817 14.7223C21.817 15.1728 21.6436 15.7309 21.3249 16.3592C21.0103 16.9796 20.5758 17.6267 20.104 18.244C19.3555 19.2231 18.5344 20.0997 18.0037 20.6383C17.4729 20.0997 16.6516 19.2231 15.9031 18.244C15.4311 17.6267 14.9966 16.9795 14.6819 16.3592C14.3633 15.7309 14.1898 15.1728 14.1898 14.7223Z" fill="#A1A6AB" stroke="white"/>
<path d="M6 14.625H7.42504C7.73029 14.625 8.00916 14.8118 8.14563 15.1075C8.30815 15.4596 8.5 15.875 8.5 15.875" stroke="#222A33" stroke-miterlimit="2" stroke-linecap="round" stroke-linejoin="round"/>
<path d="M7.875 12.125C7.875 12.125 7.32354 11.5 6.625 11.5" stroke="#222A33" stroke-width="2" stroke-miterlimit="2" stroke-linecap="round" stroke-linejoin="round"/>
<path fill-rule="evenodd" clip-rule="evenodd" d="M9.75 17.75H7.25V19.0045C7.25 19.1689 7.31857 19.3267 7.44036 19.4433C7.5625 19.5595 7.72786 19.625 7.9 19.625C8.26964 19.625 8.73036 19.625 9.1 19.625C9.27214 19.625 9.4375 19.5595 9.55964 19.4433C9.68143 19.3267 9.75 19.1689 9.75 19.0045C9.75 18.4584 9.75 17.75 9.75 17.75Z" stroke="#222A33" stroke-miterlimit="2" stroke-linecap="round" stroke-linejoin="round"/>
<path d="M13.5 26.5C11.0277 26.5 8.61099 25.7669 6.55538 24.3934C4.49976 23.0199 2.89761 21.0676 1.95151 18.7835C1.00542 16.4995 0.757874 13.9861 1.24019 11.5614C1.7225 9.13661 2.91301 6.90933 4.66117 5.16117C6.40933 3.41301 8.63661 2.2225 11.0614 1.74019C13.4861 1.25787 15.9995 1.50542 18.2835 2.45151C20.5676 3.39761 22.5199 4.99976 23.8934 7.05538C25.2669 9.11099 26 11.5277 26 14C25.9964 17.3141 24.6783 20.4914 22.3349 22.8349C19.9914 25.1783 16.8141 26.4964 13.5 26.5ZM13.5 3.58334C11.4398 3.58334 9.42583 4.19427 7.71281 5.33886C5.9998 6.48346 4.66467 8.11032 3.87626 10.0137C3.08785 11.9171 2.88156 14.0116 3.28349 16.0322C3.68542 18.0528 4.67751 19.9089 6.13431 21.3657C7.59111 22.8225 9.44718 23.8146 11.4678 24.2165C13.4884 24.6184 15.5829 24.4122 17.4863 23.6237C19.3897 22.8353 21.0165 21.5002 22.1611 19.7872C23.3057 18.0742 23.9167 16.0602 23.9167 14C23.9136 11.2383 22.8152 8.5905 20.8623 6.63766C18.9095 4.68481 16.2617 3.58637 13.5 3.58334Z" fill="#FFA9A9" stroke="white" stroke-width="1.5"/>
<path d="M18 17.5C18.5933 17.5 19.1734 17.3241 19.6667 16.9944C20.1601 16.6648 20.5446 16.1962 20.7716 15.6481C20.9987 15.0999 21.0581 14.4967 20.9424 13.9147C20.8266 13.3328 20.5409 12.7982 20.1213 12.3787C19.7018 11.9591 19.1672 11.6734 18.5853 11.5576C18.0033 11.4419 17.4001 11.5013 16.8519 11.7284C16.3038 11.9554 15.8352 12.3399 15.5056 12.8333C15.1759 13.3266 15 13.9067 15 14.5C15 15.2957 15.3161 16.0587 15.8787 16.6213C16.4413 17.1839 17.2043 17.5 18 17.5ZM18 12C18.4945 12 18.9778 12.1466 19.3889 12.4213C19.8 12.696 20.1205 13.0865 20.3097 13.5433C20.4989 14.0001 20.5484 14.5028 20.452 14.9877C20.3555 15.4727 20.1174 15.9181 19.7678 16.2678C19.4181 16.6174 18.9727 16.8555 18.4877 16.952C18.0028 17.0484 17.5001 16.9989 17.0433 16.8097C16.5865 16.6205 16.196 16.3 15.9213 15.8889C15.6466 15.4778 15.5 14.9945 15.5 14.5C15.5 13.837 15.7634 13.2011 16.2322 12.7322C16.7011 12.2634 17.337 12 18 12Z" fill="#272835"/>
<path d="M17.6667 16.5H18.3333V14.8333H20V14.1667H18.3333V12.5H17.6667V14.1667H16V14.8333H17.6667V16.5Z" fill="#272835"/>
</svg>
