<svg width="50" height="46" viewBox="0 0 50 46" fill="none" xmlns="http://www.w3.org/2000/svg">
<path d="M49 23.9948C49 22.3613 47.6178 20.9791 45.9843 20.9791C45.4817 20.9791 45.1047 21.1047 44.7278 21.2304C44.2251 20.0995 43.0942 19.2199 41.8377 18.9686C41.8377 18.7173 41.9634 18.3403 41.9634 18.089C41.9634 15.3246 39.7016 13.1885 37.0628 13.1885C35.8063 13.1885 34.6754 13.6911 33.7958 14.5707C33.4188 9.92149 29.5236 6.15186 24.7487 6.15186C20.6021 6.15186 17.0838 8.91625 16.0785 12.8115C15.7016 12.6859 15.3246 12.6859 14.822 12.6859C11.9319 12.6859 9.5445 14.6964 8.79058 17.3351C8.16231 17.0838 7.40838 16.9581 6.65445 16.9581C3.51309 16.9581 1 19.4712 1 22.6126C1 23.6178 1.37696 24.6231 1.87958 25.5026H48.4974C48.7487 25 49 24.6231 49 23.9948Z" fill="#F1F2F2"/>
<path d="M13.9424 14.0681C16.9582 14.0681 19.3456 16.4555 19.3456 19.4712C19.3456 20.0995 19.2199 20.6021 18.9686 21.2304C19.5969 20.3508 19.8482 19.3456 19.8482 18.2147C19.8482 15.199 17.4608 12.8115 14.4451 12.8115C12.0576 12.8115 10.0472 14.3194 9.41888 16.4555C10.4241 14.9477 12.0576 14.0681 13.9424 14.0681Z" fill="#D1D3D4"/>
<path d="M40.5812 19.8482C39.199 20.7278 37.4398 20.4764 36.4345 19.0942C36.1832 18.8429 36.0576 18.466 36.0576 18.2147C36.0576 18.7173 36.3089 19.3456 36.5602 19.8482C37.4398 21.2304 39.3246 21.4817 40.7068 20.6021C41.712 19.8482 42.2147 18.5916 41.8377 17.3351C41.9633 18.3403 41.4607 19.2199 40.5812 19.8482Z" fill="#D1D3D4"/>
<path d="M5.02094 25.5026H20.3508C22.8639 25.5026 24.8743 27.513 24.8743 30.0261V35.0523" stroke="#36D7B7" stroke-miterlimit="10"/>
<path d="M44.8534 25.5026H29.5236C27.0105 25.5026 25 23.4921 25 20.9791V15.9529" stroke="#F5AB35" stroke-miterlimit="10"/>
<path d="M8.79058 17.4608C8.16231 17.2095 7.40838 17.0839 6.65445 17.0839C3.51309 17.0839 1 19.597 1 22.7383" stroke="#414042" stroke-miterlimit="10"/>
<path d="M33.7958 14.6963C33.4189 10.0471 29.5236 6.27747 24.7487 6.27747C20.6021 6.27747 17.0838 9.04186 16.0786 12.9372" stroke="#414042" stroke-miterlimit="10"/>
<path d="M49 23.9948C49 22.3613 47.6178 20.9791 45.9843 20.9791C45.4817 20.9791 45.1047 21.1048 44.7278 21.2304C44.2251 20.0995 43.0943 19.2199 41.8377 18.9686" stroke="#414042" stroke-miterlimit="10"/>
<path d="M23.2408 16.8324L24.8744 15.0732L26.5079 16.8324" stroke="#F5AB35" stroke-miterlimit="10"/>
<path d="M23.2408 33.7958L24.8744 35.4293L26.5079 33.7958" stroke="#36D7B7" stroke-miterlimit="10"/>
<path d="M12.0576 2.75916V11.555" stroke="#414042" stroke-miterlimit="10"/>
<path d="M31.4084 42.2147V35.0524" stroke="#414042" stroke-miterlimit="10"/>
<path d="M35.8063 10.801V3.63867" stroke="#414042" stroke-miterlimit="10"/>
<path d="M37.4398 45.2305V30.2776" stroke="#414042" stroke-miterlimit="10"/>
<path d="M17.0837 29.9005V40.3298" stroke="#414042" stroke-miterlimit="10"/>
<path d="M13.5654 43.4713V36.6859" stroke="#414042" stroke-miterlimit="10"/>
<path d="M45.2304 34.4241C45.2304 35.0523 43.8482 35.0523 43.8482 35.8063C43.8482 36.4345 45.2304 36.4345 45.2304 37.1885C45.2304 37.8167 43.8482 37.8167 43.8482 38.5707C43.8482 39.1989 45.2304 39.1989 45.2304 39.9529" stroke="#414042" stroke-miterlimit="10"/>
<path d="M30.5288 1C30.5288 1.62827 29.1466 1.62827 29.1466 2.3822C29.1466 3.01047 30.5288 3.01047 30.5288 3.7644C30.5288 4.39267 29.1466 4.39267 29.1466 5.1466C29.1466 5.77487 30.5288 5.77487 30.5288 6.5288" stroke="#414042" stroke-miterlimit="10"/>
<path d="M25.6283 40.2041C25.6283 40.7067 24.623 40.7067 24.623 41.2093C24.623 41.712 25.6283 41.712 25.6283 42.2146C25.6283 42.7172 24.623 42.7172 24.623 43.2198C24.623 43.7224 25.6283 43.7224 25.6283 44.225" stroke="#414042" stroke-miterlimit="10"/>
<path d="M6.90576 29.021C6.90576 29.6493 5.52356 29.6493 5.52356 30.4032C5.52356 31.0315 6.90576 31.0315 6.90576 31.7854C6.90576 32.4137 5.52356 32.4137 5.52356 33.1676C5.52356 33.7959 6.90576 33.7959 6.90576 34.5498" stroke="#414042" stroke-miterlimit="10"/>
<path d="M6.90576 8.53931C6.90576 9.16758 5.52356 9.16758 5.52356 9.92151C5.52356 10.5498 6.90576 10.5498 6.90576 11.3037C6.90576 11.932 5.52356 11.932 5.52356 12.6859C5.52356 13.3142 6.90576 13.3142 6.90576 14.0681" stroke="#414042" stroke-miterlimit="10"/>
<path d="M44.2251 31.4084C44.8497 31.4084 45.356 30.9021 45.356 30.2775C45.356 29.6529 44.8497 29.1466 44.2251 29.1466C43.6006 29.1466 43.0942 29.6529 43.0942 30.2775C43.0942 30.9021 43.6006 31.4084 44.2251 31.4084Z" stroke="#414042" stroke-miterlimit="10"/>
<path d="M44.6021 12.6859C45.2267 12.6859 45.733 12.1795 45.733 11.555C45.733 10.9304 45.2267 10.4241 44.6021 10.4241C43.9775 10.4241 43.4712 10.9304 43.4712 11.555C43.4712 12.1795 43.9775 12.6859 44.6021 12.6859Z" stroke="#414042" stroke-miterlimit="10"/>
<path d="M8.03665 41.3351C8.66122 41.3351 9.16754 40.8288 9.16754 40.2043C9.16754 39.5797 8.66122 39.0734 8.03665 39.0734C7.41208 39.0734 6.90576 39.5797 6.90576 40.2043C6.90576 40.8288 7.41208 41.3351 8.03665 41.3351Z" stroke="#414042" stroke-miterlimit="10"/>
<path d="M20.4764 4.39276C21.101 4.39276 21.6073 3.88645 21.6073 3.26187C21.6073 2.6373 21.101 2.13098 20.4764 2.13098C19.8518 2.13098 19.3455 2.6373 19.3455 3.26187C19.3455 3.88645 19.8518 4.39276 20.4764 4.39276Z" stroke="#414042" stroke-miterlimit="10"/>
</svg>
