<svg width="27" height="28" viewBox="0 0 27 28" fill="none" xmlns="http://www.w3.org/2000/svg">
<path d="M13.5 26.5C11.0277 26.5 8.61099 25.7669 6.55538 24.3934C4.49976 23.0199 2.89761 21.0676 1.95151 18.7835C1.00542 16.4995 0.757874 13.9861 1.24019 11.5614C1.7225 9.13661 2.91301 6.90933 4.66117 5.16117C6.40933 3.41301 8.63661 2.2225 11.0614 1.74019C13.4861 1.25787 15.9995 1.50542 18.2835 2.45151C20.5676 3.39761 22.5199 4.99976 23.8934 7.05538C25.2669 9.11099 26 11.5277 26 14C25.9964 17.3141 24.6783 20.4914 22.3349 22.8349C19.9914 25.1783 16.8141 26.4964 13.5 26.5ZM13.5 3.58334C11.4398 3.58334 9.42583 4.19427 7.71281 5.33886C5.9998 6.48346 4.66467 8.11032 3.87626 10.0137C3.08785 11.9171 2.88156 14.0116 3.28349 16.0322C3.68542 18.0528 4.67751 19.9089 6.13431 21.3657C7.59111 22.8225 9.44718 23.8146 11.4678 24.2165C13.4884 24.6184 15.5829 24.4122 17.4863 23.6237C19.3897 22.8353 21.0165 21.5002 22.1611 19.7872C23.3057 18.0742 23.9167 16.0602 23.9167 14C23.9136 11.2383 22.8152 8.5905 20.8623 6.63766C18.9095 4.68481 16.2617 3.58637 13.5 3.58334Z" fill="#FFA9A9" stroke="white" stroke-width="1.5"/>
<path d="M15.3056 12.5764C15.2808 12.5764 15.256 12.5764 15.2312 12.5764C14.9584 11.3611 13.8671 10.4683 12.5774 10.4683C11.2877 10.4683 10.1964 11.3611 9.92363 12.5764C9.89883 12.5764 9.87403 12.5764 9.84923 12.5764C9.502 12.5764 9.22919 12.8492 9.22919 13.1964C9.22919 13.5437 9.502 13.8165 9.84923 13.8165C9.87403 13.8165 9.89883 13.8165 9.92363 13.8165C10.1964 15.0318 11.2877 15.9246 12.5774 15.9246C13.8671 15.9246 14.9584 15.0318 15.2312 13.8165C15.256 13.8165 15.2808 13.8165 15.3056 13.8165C15.6528 13.8165 15.9256 13.5437 15.9256 13.1964C15.9256 12.8492 15.6528 12.5764 15.3056 12.5764Z" stroke="#37474F" stroke-width="0.5" stroke-miterlimit="10" stroke-linecap="round" stroke-linejoin="round"/>
<path d="M10.0972 12.9483H9.97321V11.3362H10.7173V12.3282C10.7173 12.6755 10.4444 12.9483 10.0972 12.9483Z" fill="#D9D9D9" stroke="#37474F" stroke-width="0.5" stroke-miterlimit="10" stroke-linecap="round" stroke-linejoin="round"/>
<path d="M14.3135 11.3363H9.97321C9.97321 10.3195 10.8165 9.47623 11.8333 9.47623H13.123C13.6686 9.47623 14.1895 9.35222 14.6855 9.129L15.5536 8.73218V10.0963C15.5536 10.7907 15.0079 11.3363 14.3135 11.3363Z" stroke="#37474F" stroke-width="0.5" stroke-miterlimit="10" stroke-linecap="round" stroke-linejoin="round"/>
<path d="M14.4375 11.3114V12.3283C14.4375 12.6755 14.7103 12.9483 15.0576 12.9483H15.1816V10.989C14.9832 11.1626 14.7351 11.2866 14.4375 11.3114Z" fill="#D9D9D9" stroke="#37474F" stroke-width="0.5" stroke-miterlimit="10" stroke-linecap="round" stroke-linejoin="round"/>
<path d="M13.4454 13.0724C13.5824 13.0724 13.6934 12.9614 13.6934 12.8244C13.6934 12.6875 13.5824 12.5764 13.4454 12.5764C13.3085 12.5764 13.1974 12.6875 13.1974 12.8244C13.1974 12.9614 13.3085 13.0724 13.4454 13.0724Z" fill="#37474F"/>
<path d="M11.7094 13.0724C11.8463 13.0724 11.9574 12.9614 11.9574 12.8244C11.9574 12.6875 11.8463 12.5764 11.7094 12.5764C11.5724 12.5764 11.4613 12.6875 11.4613 12.8244C11.4613 12.9614 11.5724 13.0724 11.7094 13.0724Z" fill="#37474F"/>
<path d="M11.7094 14.0645C12.2054 14.5605 12.9742 14.5605 13.4703 14.0645" stroke="#37474F" stroke-width="0.5" stroke-miterlimit="10" stroke-linecap="round" stroke-linejoin="round"/>
<path d="M10.0973 22.1249V19.6448" stroke="#37474F" stroke-width="0.5" stroke-miterlimit="10" stroke-linecap="round" stroke-linejoin="round"/>
<path d="M10.0973 20.1409H8.11316" stroke="#37474F" stroke-width="0.5" stroke-miterlimit="10" stroke-linecap="round" stroke-linejoin="round"/>
<path d="M17.0417 20.1409H15.0576" stroke="#37474F" stroke-width="0.5" stroke-miterlimit="10" stroke-linecap="round" stroke-linejoin="round"/>
<path d="M10.0973 22.1249V19.6448" stroke="#37474F" stroke-width="0.5" stroke-miterlimit="10" stroke-linecap="round" stroke-linejoin="round"/>
<path d="M17.0417 22.125V18.876C17.0417 18.132 16.5953 17.4623 15.9257 17.1647L13.5695 16.1478C13.0983 16.8671 12.0566 16.8671 11.5854 16.1478L9.22923 17.1895C8.53479 17.4871 8.11316 18.1568 8.11316 18.9008V22.1498" stroke="#37474F" stroke-width="0.5" stroke-miterlimit="10" stroke-linecap="round" stroke-linejoin="round"/>
<path d="M15.0576 22.1249V19.6448" stroke="#37474F" stroke-width="0.5" stroke-miterlimit="10" stroke-linecap="round" stroke-linejoin="round"/>
<path d="M12.5775 15.9246C12.2302 15.9246 11.883 15.8502 11.5854 15.7262V16.1726C12.0566 16.8919 13.0983 16.8919 13.5695 16.1726V15.7262C13.2719 15.8502 12.9247 15.9246 12.5775 15.9246Z" stroke="#37474F" stroke-width="0.5" stroke-miterlimit="10" stroke-linecap="round" stroke-linejoin="round"/>
<path d="M8.60913 7.73999H7.36905" stroke="#37474F" stroke-width="0.5" stroke-miterlimit="10" stroke-linecap="round" stroke-linejoin="round"/>
<path d="M6.87302 7.73999H6.625" stroke="#37474F" stroke-width="0.5" stroke-miterlimit="10" stroke-linecap="round" stroke-linejoin="round"/>
<path d="M10.3701 6.5H11.6101" stroke="#37474F" stroke-width="0.5" stroke-miterlimit="10" stroke-linecap="round" stroke-linejoin="round"/>
<path d="M12.1062 6.5H12.3542" stroke="#37474F" stroke-width="0.5" stroke-miterlimit="10" stroke-linecap="round" stroke-linejoin="round"/>
<path d="M17.5377 22.125H17.9097C18.2569 22.125 18.5298 21.8522 18.5298 21.505V15.1806C18.5298 14.8334 18.2569 14.5605 17.9097 14.5605H15.6776" stroke="#37474F" stroke-width="0.5" stroke-miterlimit="10" stroke-linecap="round" stroke-linejoin="round"/>
<path d="M9.47718 14.5605H7.24504C6.89782 14.5605 6.625 14.8334 6.625 15.1806V21.505C6.625 21.8522 6.89782 22.125 7.24504 22.125H7.61706" stroke="#37474F" stroke-width="0.5" stroke-miterlimit="10" stroke-linecap="round" stroke-linejoin="round"/>
<path d="M21.0099 12.7003H18.5298C17.8353 12.7003 17.2897 12.1547 17.2897 11.4602V8.98007C17.2897 8.28563 17.8353 7.73999 18.5298 7.73999H21.0099C21.7044 7.73999 22.25 8.28563 22.25 8.98007V11.4602C22.25 12.1547 21.7044 12.7003 21.0099 12.7003Z" stroke="#37474F" stroke-width="0.5" stroke-miterlimit="10" stroke-linecap="round" stroke-linejoin="round"/>
<path d="M19.7698 8.98022V11.4604" stroke="#37474F" stroke-width="0.5" stroke-miterlimit="10" stroke-linecap="round" stroke-linejoin="round"/>
<path d="M21.0099 10.2202H18.5298" stroke="#37474F" stroke-width="0.5" stroke-miterlimit="10" stroke-linecap="round" stroke-linejoin="round"/>
</svg>
