<svg width="30" height="30" viewBox="0 0 30 30" fill="none" xmlns="http://www.w3.org/2000/svg">
<path d="M15.0006 2.00001H15C12.4288 2.00001 9.91543 2.76244 7.77759 4.1909C5.63975 5.61936 3.97351 7.64968 2.98957 10.0251C2.00563 12.4006 1.74819 15.0144 2.2498 17.5362C2.75141 20.0579 3.98953 22.3743 5.80762 24.1924C7.6257 26.0105 9.94208 27.2486 12.4638 27.7502C14.9856 28.2518 17.5995 27.9944 19.9749 27.0104C22.3503 26.0265 24.3806 24.3603 25.8091 22.2224C27.2376 20.0846 28 17.5712 28 15V14.9995C27.9962 11.5529 26.6254 8.24869 24.1884 5.81164C21.7513 3.37459 18.4471 2.00379 15.0006 2.00001ZM14.9995 29.5C12.1318 29.4999 9.3286 28.6495 6.94424 27.0563C4.55972 25.463 2.70122 23.1984 1.60375 20.5489C0.506283 17.8994 0.219135 14.9839 0.77862 12.1712C1.33811 9.35847 2.7191 6.77482 4.74696 4.74696C6.77482 2.7191 9.35847 1.33811 12.1712 0.77862C14.9839 0.219135 17.8994 0.506283 20.5489 1.60375C23.1984 2.70122 25.463 4.55972 27.0563 6.94424C28.6495 9.3286 29.4999 12.1318 29.5 14.9995C29.4958 18.844 27.9668 22.5298 25.2483 25.2483C22.5298 27.9668 18.844 29.4958 14.9995 29.5Z" fill="black" stroke="white"/>
<path d="M17.1667 13.2917C17.1369 13.2917 17.1071 13.2917 17.0774 13.2917C16.75 11.8334 15.4405 10.762 13.8929 10.762C12.3452 10.762 11.0357 11.8334 10.7083 13.2917C10.6786 13.2917 10.6488 13.2917 10.619 13.2917C10.2024 13.2917 9.875 13.6191 9.875 14.0358C9.875 14.4524 10.2024 14.7798 10.619 14.7798C10.6488 14.7798 10.6786 14.7798 10.7083 14.7798C11.0357 16.2382 12.3452 17.3096 13.8929 17.3096C15.4405 17.3096 16.75 16.2382 17.0774 14.7798C17.1071 14.7798 17.1369 14.7798 17.1667 14.7798C17.5833 14.7798 17.9107 14.4524 17.9107 14.0358C17.9107 13.6191 17.5833 13.2917 17.1667 13.2917Z" stroke="#37474F" stroke-miterlimit="10" stroke-linecap="round" stroke-linejoin="round"/>
<path d="M10.9166 13.738H10.7678V11.8035H11.6607V12.9939C11.6607 13.4106 11.3333 13.738 10.9166 13.738Z" fill="#D9D9D9" stroke="#37474F" stroke-miterlimit="10" stroke-linecap="round" stroke-linejoin="round"/>
<path d="M15.9762 11.8036H10.7678C10.7678 10.5834 11.7797 9.57145 13 9.57145H14.5476C15.2023 9.57145 15.8273 9.42264 16.4226 9.15478L17.4642 8.67859V10.3155C17.4642 11.1488 16.8095 11.8036 15.9762 11.8036Z" stroke="#37474F" stroke-miterlimit="10" stroke-linecap="round" stroke-linejoin="round"/>
<path d="M16.125 11.7737V12.994C16.125 13.4107 16.4524 13.738 16.869 13.738H17.0179V11.3868C16.7798 11.5952 16.4821 11.744 16.125 11.7737Z" fill="#D9D9D9" stroke="#37474F" stroke-miterlimit="10" stroke-linecap="round" stroke-linejoin="round"/>
<path d="M14.9345 13.8869C15.0989 13.8869 15.2321 13.7536 15.2321 13.5892C15.2321 13.4249 15.0989 13.2916 14.9345 13.2916C14.7702 13.2916 14.6369 13.4249 14.6369 13.5892C14.6369 13.7536 14.7702 13.8869 14.9345 13.8869Z" fill="#37474F"/>
<path d="M12.8512 13.8869C13.0156 13.8869 13.1488 13.7536 13.1488 13.5892C13.1488 13.4249 13.0156 13.2916 12.8512 13.2916C12.6868 13.2916 12.5536 13.4249 12.5536 13.5892C12.5536 13.7536 12.6868 13.8869 12.8512 13.8869Z" fill="#37474F"/>
<path d="M12.8512 15.0774C13.4464 15.6726 14.3691 15.6726 14.9643 15.0774" stroke="#37474F" stroke-miterlimit="10" stroke-linecap="round" stroke-linejoin="round"/>
<path d="M10.9166 24.75V21.7738" stroke="#37474F" stroke-miterlimit="10" stroke-linecap="round" stroke-linejoin="round"/>
<path d="M10.9167 22.369H8.53571" stroke="#37474F" stroke-miterlimit="10" stroke-linecap="round" stroke-linejoin="round"/>
<path d="M19.25 22.369H16.869" stroke="#37474F" stroke-miterlimit="10" stroke-linecap="round" stroke-linejoin="round"/>
<path d="M10.9166 24.75V21.7738" stroke="#37474F" stroke-miterlimit="10" stroke-linecap="round" stroke-linejoin="round"/>
<path d="M19.25 24.75V20.8512C19.25 19.9583 18.7143 19.1548 17.9107 18.7976L15.0833 17.5774C14.5178 18.4405 13.2678 18.4405 12.7024 17.5774L9.87499 18.8274C9.04166 19.1845 8.53571 19.9881 8.53571 20.881V24.7798" stroke="#37474F" stroke-miterlimit="10" stroke-linecap="round" stroke-linejoin="round"/>
<path d="M16.869 24.75V21.7738" stroke="#37474F" stroke-miterlimit="10" stroke-linecap="round" stroke-linejoin="round"/>
<path d="M13.8929 17.3095C13.4762 17.3095 13.0595 17.2202 12.7024 17.0714V17.6071C13.2679 18.4702 14.5179 18.4702 15.0833 17.6071V17.0714C14.7262 17.2202 14.3095 17.3095 13.8929 17.3095Z" stroke="#37474F" stroke-miterlimit="10" stroke-linecap="round" stroke-linejoin="round"/>
<path d="M9.13098 7.48804H7.64288" stroke="#37474F" stroke-miterlimit="10" stroke-linecap="round" stroke-linejoin="round"/>
<path d="M7.04762 7.48804H6.75" stroke="#37474F" stroke-miterlimit="10" stroke-linecap="round" stroke-linejoin="round"/>
<path d="M11.244 6H12.7321" stroke="#37474F" stroke-miterlimit="10" stroke-linecap="round" stroke-linejoin="round"/>
<path d="M13.3274 6H13.625" stroke="#37474F" stroke-miterlimit="10" stroke-linecap="round" stroke-linejoin="round"/>
<path d="M19.8452 24.75H20.2917C20.7083 24.75 21.0357 24.4226 21.0357 24.0059V16.4167C21.0357 16 20.7083 15.6726 20.2917 15.6726H17.6131" stroke="#37474F" stroke-miterlimit="10" stroke-linecap="round" stroke-linejoin="round"/>
<path d="M10.1726 15.6726H7.49405C7.07738 15.6726 6.75 16 6.75 16.4167V24.0059C6.75 24.4226 7.07738 24.75 7.49405 24.75H7.94048" stroke="#37474F" stroke-miterlimit="10" stroke-linecap="round" stroke-linejoin="round"/>
<path d="M24.0119 13.4404H21.0357C20.2024 13.4404 19.5476 12.7857 19.5476 11.9523V8.97613C19.5476 8.1428 20.2024 7.48804 21.0357 7.48804H24.0119C24.8452 7.48804 25.5 8.1428 25.5 8.97613V11.9523C25.5 12.7857 24.8452 13.4404 24.0119 13.4404Z" stroke="#37474F" stroke-miterlimit="10" stroke-linecap="round" stroke-linejoin="round"/>
<path d="M22.5238 8.9762V11.9524" stroke="#37474F" stroke-miterlimit="10" stroke-linecap="round" stroke-linejoin="round"/>
<path d="M24.0119 10.4642H21.0357" stroke="#37474F" stroke-miterlimit="10" stroke-linecap="round" stroke-linejoin="round"/>
</svg>
