<svg width="30" height="30" viewBox="0 0 30 30" fill="none" xmlns="http://www.w3.org/2000/svg">
<path d="M15.0006 2.00001H15C12.4288 2.00001 9.91543 2.76244 7.77759 4.1909C5.63975 5.61936 3.97351 7.64968 2.98957 10.0251C2.00563 12.4006 1.74819 15.0144 2.2498 17.5362C2.75141 20.0579 3.98953 22.3743 5.80762 24.1924C7.6257 26.0105 9.94208 27.2486 12.4638 27.7502C14.9856 28.2518 17.5995 27.9944 19.9749 27.0104C22.3503 26.0265 24.3806 24.3603 25.8091 22.2224C27.2376 20.0846 28 17.5712 28 15V14.9995C27.9962 11.5529 26.6254 8.24869 24.1884 5.81164C21.7513 3.37459 18.4471 2.00379 15.0006 2.00001ZM14.9995 29.5C12.1318 29.4999 9.3286 28.6495 6.94424 27.0563C4.55972 25.463 2.70122 23.1984 1.60375 20.5489C0.506283 17.8994 0.219135 14.9839 0.77862 12.1712C1.33811 9.35847 2.7191 6.77482 4.74696 4.74696C6.77482 2.7191 9.35847 1.33811 12.1712 0.77862C14.9839 0.219135 17.8994 0.506283 20.5489 1.60375C23.1984 2.70122 25.463 4.55972 27.0563 6.94424C28.6495 9.3286 29.4999 12.1318 29.5 14.9995C29.4958 18.844 27.9668 22.5298 25.2483 25.2483C22.5298 27.9668 18.844 29.4958 14.9995 29.5Z" fill="black" stroke="white"/>
<path fill-rule="evenodd" clip-rule="evenodd" d="M12.5248 14.25C11.957 14.25 11.3986 14.0963 10.9086 13.8066C10.4454 13.5311 10.0506 13.1386 9.76851 12.6728C9.49915 12.2282 9.34009 11.7269 9.30642 11.2209C9.27043 10.6747 9.37608 10.1474 9.62222 9.65079C9.62338 9.6496 9.62338 9.64724 9.62454 9.64606L12.2786 4.52426C12.3274 4.43086 12.4214 4.37292 12.5248 4.37292C12.6281 4.37292 12.7233 4.43086 12.7709 4.52426L15.425 9.64487C15.4262 9.64606 15.4262 9.64842 15.4273 9.6496C15.6735 10.1462 15.7791 10.6747 15.7431 11.2197C15.7095 11.7246 15.5492 12.2271 15.281 12.6716C14.9989 13.1386 14.6042 13.5311 14.1409 13.8054C13.651 14.0963 13.0925 14.25 12.5248 14.25ZM10.118 9.90735C9.91828 10.3117 9.83237 10.7397 9.86139 11.1819C9.88926 11.5957 10.0205 12.0071 10.2422 12.3737C10.4767 12.7615 10.8041 13.0866 11.1884 13.316C11.5925 13.556 12.0546 13.6825 12.5236 13.6825C12.9927 13.6825 13.4548 13.556 13.8588 13.316C14.2431 13.0878 14.5705 12.7615 14.805 12.3737C15.0268 12.0071 15.158 11.5957 15.1858 11.1819C15.2149 10.7397 15.129 10.3105 14.9293 9.90735L12.5248 5.26439L10.118 9.90735Z" fill="#212121"/>
<path fill-rule="evenodd" clip-rule="evenodd" d="M12.4342 12.116C12.3284 12.116 12.2434 12.031 12.2434 11.9253V9.94074C12.2434 9.83504 12.3284 9.75 12.4342 9.75C12.5399 9.75 12.6249 9.83504 12.6249 9.94074V11.9253C12.6249 12.031 12.5391 12.116 12.4342 12.116Z" fill="#212121"/>
<path fill-rule="evenodd" clip-rule="evenodd" d="M13.4253 11.1239H11.4407C11.335 11.1239 11.25 11.0389 11.25 10.9332C11.25 10.8275 11.335 10.7424 11.4407 10.7424H13.4253C13.531 10.7424 13.616 10.8275 13.616 10.9332C13.616 11.0389 13.531 11.1239 13.4253 11.1239Z" fill="#212121"/>
<path d="M12.4025 18.3799C10.9212 18.3799 9.52682 17.8065 8.47554 16.765C7.42303 15.7222 6.84298 14.3375 6.84229 12.8661C6.84187 11.3991 7.41847 10.0163 8.46615 8.97231L8.85658 9.36412C7.914 10.3035 7.39513 11.5472 7.39554 12.8658C7.3961 14.1885 7.918 15.4338 8.86487 16.372C9.81187 17.3101 11.0682 17.8267 12.4028 17.8267C12.4043 17.8267 12.4057 17.8268 12.4071 17.8267C13.7467 17.8267 15.0068 17.3071 15.9557 16.3634C16.8971 15.4262 17.4155 14.1832 17.4155 12.8638C17.4155 11.5399 16.8942 10.2944 15.947 9.35694L16.3362 8.96375C17.3887 10.0059 17.9686 11.3911 17.9686 12.8638C17.9686 14.3314 17.3922 15.7136 16.3456 16.7555C15.2925 17.803 13.8936 18.3798 12.4071 18.3799C12.4058 18.3799 12.4043 18.3799 12.4025 18.3799Z" fill="#282D33"/>
<path d="M12.5934 17.0837C12.4025 17.0837 12.2104 17.0706 12.0179 17.0442C10.9198 16.8934 9.94769 16.3248 9.2809 15.443C8.62144 14.5709 8.34164 13.4972 8.49314 12.4197L9.04087 12.4966C8.91009 13.4273 9.15205 14.3553 9.72216 15.1092C10.2996 15.8731 11.1418 16.3656 12.0933 16.4961C13.0427 16.6266 13.9868 16.3816 14.7527 15.8055C15.5129 15.2346 16.0036 14.4058 16.1346 13.4721C16.1881 13.0881 16.1788 12.7037 16.1077 12.3295L16.6513 12.2261C16.7339 12.6596 16.7444 13.1046 16.6824 13.5487C16.531 14.6294 15.9638 15.5882 15.0853 16.2479C14.3572 16.7952 13.489 17.0837 12.5934 17.0837Z" fill="#282D33"/>
<path d="M20.5122 23.25L15.8066 18.5856L18.1774 16.2361L22.8833 20.9001L20.5122 23.25ZM16.5923 18.5856L20.5122 22.4711L22.0976 20.9001L18.1774 17.015L16.5923 18.5856Z" fill="#282D33"/>
<path d="M21.2626 20.8853L18.8735 18.5171L18.4839 18.9101L20.873 21.2783L21.2626 20.8853Z" fill="#282D33"/>
<path d="M18.8939 17.7868L18.5043 17.3937L16.9776 18.9066L17.3672 19.2997L18.8939 17.7868Z" fill="#282D33"/>
<path d="M17.4219 17.3203L16.5943 16.4999L16.2047 16.8929L17.0323 17.7133L17.4219 17.3203Z" fill="#282D33"/>
</svg>
