<svg width="27" height="28" viewBox="0 0 27 28" fill="none" xmlns="http://www.w3.org/2000/svg">
<path d="M13.5 26.5C11.0277 26.5 8.61099 25.7669 6.55538 24.3934C4.49976 23.0199 2.89761 21.0676 1.95151 18.7835C1.00542 16.4995 0.757874 13.9861 1.24019 11.5614C1.7225 9.13661 2.91301 6.90933 4.66117 5.16117C6.40933 3.41301 8.63661 2.2225 11.0614 1.74019C13.4861 1.25787 15.9995 1.50542 18.2835 2.45151C20.5676 3.39761 22.5199 4.99976 23.8934 7.05538C25.2669 9.11099 26 11.5277 26 14C25.9964 17.3141 24.6783 20.4914 22.3349 22.8349C19.9914 25.1783 16.8141 26.4964 13.5 26.5ZM13.5 3.58334C11.4398 3.58334 9.42583 4.19427 7.71281 5.33886C5.9998 6.48346 4.66467 8.11032 3.87626 10.0137C3.08785 11.9171 2.88156 14.0116 3.28349 16.0322C3.68542 18.0528 4.67751 19.9089 6.13431 21.3657C7.59111 22.8225 9.44718 23.8146 11.4678 24.2165C13.4884 24.6184 15.5829 24.4122 17.4863 23.6237C19.3897 22.8353 21.0165 21.5002 22.1611 19.7872C23.3057 18.0742 23.9167 16.0602 23.9167 14C23.9136 11.2383 22.8152 8.5905 20.8623 6.63766C18.9095 4.68481 16.2617 3.58637 13.5 3.58334Z" fill="#FFA9A9" stroke="white" stroke-width="1.5"/>
<path d="M15.6877 16.5C14.8141 16.5 13.9539 16.2846 13.1834 15.8728C12.4129 15.461 11.7558 14.8655 11.2704 14.1391C10.785 13.4127 10.4862 12.5778 10.4006 11.7083C10.3149 10.8388 10.445 9.96169 10.7794 9.15453C11.1137 8.34736 11.6419 7.63512 12.3173 7.08087C12.9927 6.52663 13.7943 6.1475 14.6511 5.97707C15.508 5.80663 16.3937 5.85016 17.2298 6.10379C18.0658 6.35742 18.8264 6.81332 19.4441 7.43112C20.187 8.17408 20.693 9.12066 20.8979 10.1511C21.1029 11.1816 20.9977 12.2498 20.5956 13.2205C20.1935 14.1912 19.5127 15.0209 18.6391 15.6046C17.7655 16.1884 16.7384 16.4999 15.6877 16.5ZM15.6877 6.55644C14.6163 6.55658 13.5781 6.92822 12.75 7.60802C11.9219 8.28783 11.3551 9.23374 11.1462 10.2846C10.9373 11.3354 11.0992 12.4262 11.6044 13.3711C12.1096 14.3159 12.9267 15.0563 13.9166 15.4662C14.9065 15.8761 16.0079 15.9301 17.0332 15.619C18.0584 15.3079 18.9441 14.6509 19.5392 13.76C20.1344 12.8691 20.4022 11.7994 20.2971 10.7331C20.192 9.66687 19.7204 8.67006 18.9627 7.91253C18.5331 7.48192 18.0226 7.14044 17.4605 6.90772C16.8985 6.67499 16.296 6.55562 15.6877 6.55644Z" fill="black"/>
<path d="M5.72057 21.4981C5.67535 21.4984 5.63053 21.4897 5.58867 21.4726C5.54681 21.4554 5.50873 21.4302 5.47663 21.3982C5.44443 21.3662 5.41887 21.3281 5.40142 21.2862C5.38398 21.2442 5.375 21.1992 5.375 21.1537C5.375 21.1082 5.38398 21.0632 5.40142 21.0212C5.41887 20.9792 5.44443 20.9412 5.47663 20.9091L11.6611 14.7263C11.7258 14.6614 11.8135 14.625 11.905 14.625C11.9965 14.625 12.0843 14.6614 12.149 14.7263C12.2137 14.7912 12.25 14.8791 12.25 14.9709C12.25 15.0626 12.2137 15.1506 12.149 15.2154L5.98169 21.4155C5.94615 21.4465 5.90462 21.4698 5.8597 21.484C5.81478 21.4982 5.76742 21.503 5.72057 21.4981Z" fill="black"/>
<path d="M13.5 12.75H13.2241V9.96899H12.875V9H13.5V12.75Z" fill="black"/>
<path d="M12.8759 13.375C12.7102 13.375 12.5513 13.3092 12.434 13.1921C12.3166 13.0749 12.2505 12.9159 12.25 12.75H12.6182C12.6236 12.8145 12.6531 12.8745 12.7006 12.9183C12.7482 12.962 12.8104 12.9863 12.875 12.9863C12.9396 12.9863 13.0018 12.962 13.0494 12.9183C13.0969 12.8745 13.1264 12.8145 13.1318 12.75H13.5C13.5 12.8321 13.4839 12.9133 13.4525 12.9892C13.4211 13.065 13.3752 13.1339 13.3172 13.1919C13.2593 13.25 13.1905 13.296 13.1147 13.3274C13.039 13.3588 12.9579 13.375 12.8759 13.375Z" fill="black"/>
<path d="M15.375 13.375C15.0445 13.374 14.7278 13.2469 14.4937 13.0213C14.2596 12.7957 14.1271 12.4899 14.125 12.1704V10.2085C14.125 9.888 14.2567 9.58061 14.4911 9.35397C14.7255 9.12733 15.0435 9 15.375 9C15.7065 9 16.0245 9.12733 16.2589 9.35397C16.4933 9.58061 16.625 9.888 16.625 10.2085V12.1704C16.6239 12.4902 16.4918 12.7966 16.2575 13.0224C16.0231 13.2482 15.7058 13.375 15.375 13.375ZM15.375 9.7926C15.3174 9.7926 15.2604 9.80356 15.2073 9.82486C15.1541 9.84615 15.1058 9.87737 15.0651 9.91672C15.0244 9.95607 14.9921 10.0028 14.9701 10.0542C14.948 10.1056 14.9367 10.1607 14.9367 10.2164V12.1783C14.9367 12.2906 14.9829 12.3984 15.0651 12.4779C15.1473 12.5574 15.2588 12.602 15.375 12.602C15.4912 12.602 15.6027 12.5574 15.6849 12.4779C15.7671 12.3984 15.8133 12.2906 15.8133 12.1783V10.2164C15.8133 10.104 15.7671 9.99619 15.6849 9.91672C15.6027 9.83725 15.4912 9.7926 15.375 9.7926Z" fill="black"/>
<path d="M17.5625 13.375C17.4796 13.375 17.4001 13.3327 17.3415 13.2574C17.2829 13.1822 17.25 13.0801 17.25 12.9736V9.40138C17.25 9.29492 17.2829 9.19283 17.3415 9.11756C17.4001 9.04229 17.4796 9 17.5625 9C17.6454 9 17.7249 9.04229 17.7835 9.11756C17.8421 9.19283 17.875 9.29492 17.875 9.40138V12.9736C17.875 13.0801 17.8421 13.1822 17.7835 13.2574C17.7249 13.3327 17.6454 13.375 17.5625 13.375Z" fill="black"/>
<path d="M18.1233 11.5H17.736C17.6573 11.5002 17.5789 11.489 17.5022 11.4669C17.4164 11.44 17.3426 11.3719 17.2972 11.2776C17.2518 11.1833 17.2385 11.0705 17.2602 10.964C17.2819 10.8575 17.3368 10.7661 17.4129 10.7098C17.489 10.6535 17.58 10.637 17.6659 10.6639H17.736H18.1233C18.2119 10.6639 18.2968 10.6203 18.3594 10.5427C18.422 10.4651 18.4572 10.3598 18.4572 10.25C18.4572 10.1402 18.422 10.0349 18.3594 9.95732C18.2968 9.8797 18.2119 9.83609 18.1233 9.83609H17.736H17.6659C17.58 9.86299 17.489 9.84648 17.4129 9.79021C17.3368 9.73393 17.2819 9.64249 17.2602 9.53601C17.2385 9.42953 17.2518 9.31672 17.2972 9.22241C17.3426 9.1281 17.4164 9.06001 17.5022 9.03311C17.5789 9.01096 17.6573 8.99985 17.736 9H18.1233C18.389 9 18.6438 9.13083 18.8316 9.36369C19.0195 9.59656 19.125 9.9124 19.125 10.2417C19.125 10.571 19.0195 10.8869 18.8316 11.1198C18.6438 11.3526 18.389 11.4834 18.1233 11.4834V11.5Z" fill="black"/>
<path d="M18.5715 13.375H17.9615C17.7857 13.375 17.612 13.3369 17.452 13.2634C17.4106 13.2443 17.3732 13.2171 17.3422 13.1834C17.3112 13.1497 17.2871 13.1101 17.2714 13.0671C17.2556 13.024 17.2484 12.9782 17.2503 12.9323C17.2522 12.8864 17.263 12.8413 17.2822 12.7997C17.3213 12.7169 17.3912 12.6529 17.4768 12.6216C17.5625 12.5903 17.6569 12.5941 17.7397 12.6323C17.8096 12.663 17.8852 12.6785 17.9615 12.6776H18.5715C18.7096 12.6666 18.8386 12.6036 18.9326 12.5012C19.0266 12.3987 19.0788 12.2644 19.0788 12.125C19.0788 11.9856 19.0266 11.8513 18.9326 11.7488C18.8386 11.6464 18.7096 11.5834 18.5715 11.5723H17.9615C17.885 11.5727 17.8094 11.5894 17.7397 11.6212C17.6565 11.6591 17.5617 11.6625 17.476 11.6305C17.3903 11.5985 17.3207 11.5337 17.2822 11.4503C17.263 11.4087 17.2522 11.3636 17.2503 11.3177C17.2484 11.2718 17.2556 11.226 17.2714 11.1829C17.2871 11.1399 17.3112 11.1003 17.3422 11.0666C17.3732 11.0329 17.4106 11.0057 17.452 10.9866C17.612 10.9131 17.7857 10.875 17.9615 10.875H18.5715C18.8896 10.8919 19.1892 11.031 19.4085 11.2635C19.6278 11.4961 19.75 11.8044 19.75 12.125C19.75 12.4456 19.6278 12.7539 19.4085 12.9865C19.1892 13.219 18.8896 13.3581 18.5715 13.375Z" fill="black"/>
</svg>
