<svg width="27" height="28" viewBox="0 0 27 28" fill="none" xmlns="http://www.w3.org/2000/svg">
<path d="M13.5 26.5C11.0277 26.5 8.61099 25.7669 6.55538 24.3934C4.49976 23.0199 2.89761 21.0676 1.95151 18.7835C1.00542 16.4995 0.757874 13.9861 1.24019 11.5614C1.7225 9.13661 2.91301 6.90933 4.66117 5.16117C6.40933 3.41301 8.63661 2.2225 11.0614 1.74019C13.4861 1.25787 15.9995 1.50542 18.2835 2.45151C20.5676 3.39761 22.5199 4.99976 23.8934 7.05538C25.2669 9.11099 26 11.5277 26 14C25.9964 17.3141 24.6783 20.4914 22.3349 22.8349C19.9914 25.1783 16.8141 26.4964 13.5 26.5ZM13.5 3.58334C11.4398 3.58334 9.42583 4.19427 7.71281 5.33886C5.9998 6.48346 4.66467 8.11032 3.87626 10.0137C3.08785 11.9171 2.88156 14.0116 3.28349 16.0322C3.68542 18.0528 4.67751 19.9089 6.13431 21.3657C7.59111 22.8225 9.44718 23.8146 11.4678 24.2165C13.4884 24.6184 15.5829 24.4122 17.4863 23.6237C19.3897 22.8353 21.0165 21.5002 22.1611 19.7872C23.3057 18.0742 23.9167 16.0602 23.9167 14C23.9136 11.2383 22.8152 8.5905 20.8623 6.63766C18.9095 4.68481 16.2617 3.58637 13.5 3.58334Z" fill="#FFA9A9" stroke="white" stroke-width="1.5"/>
<path d="M13.0285 16.4882C11.2077 16.4882 9.72659 15.007 9.72659 13.1863C9.72659 11.3655 11.2077 9.8844 13.0285 9.8844C14.8492 9.8844 16.3304 11.3655 16.3304 13.1863C16.3304 15.007 14.8492 16.4882 13.0285 16.4882ZM13.0285 10.1202C11.3379 10.1202 9.96244 11.4957 9.96244 13.1863C9.96244 14.8769 11.3379 16.2523 13.0285 16.2523C14.719 16.2523 16.0945 14.8769 16.0945 13.1863C16.0945 11.4957 14.719 10.1202 13.0285 10.1202Z" fill="#263238"/>
<path d="M13.0287 13.7761C13.8102 13.7761 14.4438 13.1426 14.4438 12.361C14.4438 11.5795 13.8102 10.9459 13.0287 10.9459C12.2471 10.9459 11.6136 11.5795 11.6136 12.361C11.6136 13.1426 12.2471 13.7761 13.0287 13.7761Z" fill="white"/>
<path d="M13.0286 13.8938C12.1833 13.8938 11.4956 13.2061 11.4956 12.3608C11.4956 11.5155 12.1833 10.8278 13.0286 10.8278C13.8739 10.8278 14.5616 11.5155 14.5616 12.3608C14.5616 13.2061 13.8739 13.8938 13.0286 13.8938ZM13.0286 11.0636C12.3133 11.0636 11.7315 11.6454 11.7315 12.3608C11.7315 13.0761 12.3133 13.6579 13.0286 13.6579C13.744 13.6579 14.3258 13.0761 14.3258 12.3608C14.3258 11.6454 13.744 11.0636 13.0286 11.0636Z" fill="#263238"/>
<path d="M11.747 12.4787H11.6135C11.5484 12.4787 11.4956 12.4259 11.4956 12.3608C11.4956 11.5155 12.1833 10.8278 13.0286 10.8278C13.4843 10.8278 13.9133 11.0287 14.2057 11.3792C14.2258 11.4032 14.2355 11.4341 14.2326 11.4655C14.2298 11.4966 14.2147 11.5254 14.1907 11.5454L14.0852 11.6332C13.43 12.1785 12.5996 12.4787 11.747 12.4787ZM11.7366 12.2429H11.747C12.5444 12.2429 13.3213 11.962 13.9343 11.4518L13.9449 11.4429C13.7024 11.2004 13.3746 11.0634 13.0286 11.0634C12.3532 11.0636 11.7965 11.5827 11.7366 12.2429Z" fill="#263238"/>
<path d="M13.0289 13.7757C12.7699 13.7757 12.5279 13.705 12.319 13.5835L12.3192 14.0127L13.0277 14.8295L13.7343 14.0104L13.7341 13.5863C13.5263 13.7061 13.286 13.7757 13.0289 13.7757Z" fill="white"/>
<path d="M13.0276 14.9476C12.9934 14.9476 12.9609 14.9327 12.9385 14.907L12.23 14.0903C12.2113 14.0688 12.2012 14.0415 12.2012 14.0132L12.201 13.5839C12.201 13.5417 12.2236 13.5026 12.2599 13.4816C12.2969 13.4606 12.3418 13.4608 12.3781 13.4818C12.7729 13.712 13.28 13.7127 13.675 13.4844C13.7116 13.4634 13.7564 13.4634 13.7929 13.4844C13.8295 13.5054 13.8519 13.5443 13.8519 13.5865L13.8521 14.0106C13.8521 14.0389 13.842 14.0662 13.8234 14.0877L13.1168 14.9068C13.0946 14.9325 13.062 14.9476 13.0276 14.9476ZM12.437 13.9688L13.0274 14.6493L13.6163 13.9667V13.7759C13.2429 13.9311 12.8097 13.9306 12.437 13.7738V13.9688Z" fill="#263238"/>
<path d="M14.3474 14.2139L13.7349 14.0104L13.0295 14.8292L12.3201 14.0125L11.7113 14.2142C11.4425 14.3033 11.2252 14.4847 11.0828 14.7141C11.5359 15.2908 12.2382 15.6625 13.0285 15.6625C13.8191 15.6625 14.5217 15.2906 14.975 14.7137C14.833 14.4844 14.6158 14.3033 14.3474 14.2139Z" fill="white"/>
<path d="M13.0286 15.7806C12.2293 15.7806 11.4861 15.4185 10.9897 14.7874C10.959 14.7485 10.9559 14.6945 10.9821 14.6523C11.1434 14.3921 11.3892 14.1968 11.6736 14.1025L12.2826 13.9008C12.3274 13.886 12.3774 13.8997 12.4088 13.9353L13.029 14.6492L13.6456 13.9336C13.6767 13.8975 13.7267 13.8836 13.7722 13.8987L14.3847 14.1023C14.6689 14.1968 14.9144 14.3919 15.0755 14.6518C15.1017 14.694 15.0986 14.7478 15.068 14.7869C14.5715 15.4183 13.8283 15.7806 13.0286 15.7806ZM11.229 14.7077C11.6793 15.2407 12.3305 15.5447 13.0286 15.5447C13.7269 15.5447 14.3783 15.2405 14.8286 14.7072C14.6979 14.5287 14.5165 14.3947 14.3102 14.3261L13.7727 14.1475L13.1189 14.9065C13.0965 14.9324 13.064 14.9473 13.0298 14.9475C12.9956 14.9475 12.963 14.9329 12.9406 14.907L12.2823 14.1497L11.7482 14.3265C11.5415 14.3949 11.3599 14.5289 11.229 14.7077Z" fill="#263238"/>
<path d="M13.0283 15.7805C12.9632 15.7805 12.9104 15.7277 12.9104 15.6626V14.8296C12.9104 14.7645 12.9632 14.7117 13.0283 14.7117C13.0934 14.7117 13.1462 14.7645 13.1462 14.8296V15.6626C13.1462 15.7277 13.0934 15.7805 13.0283 15.7805Z" fill="#263238"/>
<path d="M15.5295 16.4885C15.4982 16.4885 15.4682 16.476 15.446 16.454L14.8262 15.8342C14.8019 15.8099 14.7894 15.7762 14.792 15.7418C14.7946 15.7076 14.8121 15.6762 14.8397 15.6557C15.0852 15.475 15.3022 15.2597 15.4842 15.0153C15.5048 14.9877 15.5361 14.9708 15.5703 14.9682C15.6052 14.9665 15.638 14.9781 15.6623 15.0024L16.28 15.6201C16.326 15.666 16.326 15.7408 16.28 15.7868L15.6128 16.454C15.5908 16.476 15.5609 16.4885 15.5295 16.4885ZM15.0883 15.7623L15.5298 16.2038L16.0302 15.7033L15.5904 15.2635C15.4411 15.4474 15.2729 15.6144 15.0883 15.7623Z" fill="#263238"/>
<path d="M17.9479 18.9754C17.8573 18.9754 17.7668 18.9409 17.6977 18.8718L15.5298 16.7039C15.392 16.5659 15.392 16.3414 15.5298 16.2034L16.0302 15.7032C16.1682 15.5652 16.3925 15.5652 16.5305 15.7032L18.6984 17.8711C18.7651 17.9379 18.8019 18.0268 18.8019 18.1214C18.8019 18.2159 18.7651 18.3049 18.6984 18.3716L18.1981 18.8718C18.1293 18.9409 18.0387 18.9754 17.9479 18.9754ZM16.2805 15.8355C16.2503 15.8355 16.2201 15.8468 16.197 15.87L15.6965 16.3702C15.6505 16.4162 15.6505 16.4912 15.6965 16.5372L17.8644 18.7051C17.9104 18.7513 17.9852 18.7511 18.0314 18.7051L18.5316 18.2046C18.554 18.1825 18.5661 18.1527 18.5661 18.1211C18.5661 18.0898 18.5538 18.06 18.5316 18.0376L16.3637 15.8697C16.3406 15.8471 16.3107 15.8355 16.2805 15.8355Z" fill="#263238"/>
<path d="M17.7455 19.79H8.54738C8.35233 19.79 8.1936 19.6313 8.1936 19.4362V8.11549C8.1936 7.92045 8.35233 7.76172 8.54738 7.76172H17.5096C17.7047 7.76172 17.8634 7.92045 17.8634 8.11549V16.4178C17.8634 16.4829 17.8106 16.5358 17.7455 16.5358C17.6804 16.5358 17.6276 16.4829 17.6276 16.4178V8.11549C17.6276 8.0504 17.5747 7.99757 17.5096 7.99757H8.54738C8.48228 7.99757 8.42945 8.0504 8.42945 8.11549V19.4362C8.42945 19.5013 8.48228 19.5542 8.54738 19.5542H17.7455C17.8106 19.5542 17.8634 19.607 17.8634 19.6721C17.8634 19.7372 17.8106 19.79 17.7455 19.79Z" fill="#263238"/>
<path d="M16.566 20.7334H7.60377C7.40873 20.7334 7.25 20.5746 7.25 20.3796V9.29469C7.25 9.09964 7.40873 8.94092 7.60377 8.94092H7.83962C7.90472 8.94092 7.95755 8.99375 7.95755 9.05884C7.95755 9.12394 7.90472 9.17677 7.83962 9.17677H7.60377C7.53868 9.17677 7.48585 9.2296 7.48585 9.29469V20.3796C7.48585 20.4447 7.53868 20.4975 7.60377 20.4975H16.566C16.6311 20.4975 16.684 20.4447 16.684 20.3796V20.1437C16.684 20.0787 16.7368 20.0258 16.8019 20.0258C16.867 20.0258 16.9198 20.0787 16.9198 20.1437V20.3796C16.9198 20.5746 16.7611 20.7334 16.566 20.7334Z" fill="#263238"/>
<path d="M20.3744 23.8748C21.1107 23.8748 21.8304 23.6564 22.4426 23.2474C23.0548 22.8383 23.5319 22.2569 23.8137 21.5767C24.0954 20.8965 24.1692 20.148 24.0255 19.4259C23.8819 18.7037 23.5273 18.0404 23.0067 17.5198C22.4861 16.9992 21.8228 16.6446 21.1007 16.501C20.3785 16.3573 19.63 16.4311 18.9498 16.7128C18.2696 16.9946 17.6882 17.4717 17.2791 18.0839C16.8701 18.6961 16.6517 19.4158 16.6517 20.1521C16.6517 21.1394 17.0439 22.0863 17.7421 22.7844C18.4402 23.4826 19.3871 23.8748 20.3744 23.8748ZM20.3744 17.9666C20.8067 17.9666 21.2292 18.0947 21.5886 18.3349C21.948 18.575 22.2282 18.9164 22.3936 19.3157C22.559 19.7151 22.6023 20.1545 22.518 20.5785C22.4336 21.0024 22.2255 21.3919 21.9198 21.6975C21.6142 22.0032 21.2247 22.2113 20.8008 22.2957C20.3768 22.38 19.9374 22.3367 19.538 22.1713C19.1387 22.0059 18.7973 21.7257 18.5572 21.3663C18.317 21.0069 18.1888 20.5844 18.1888 20.1521C18.1888 19.5725 18.4191 19.0166 18.829 18.6067C19.2388 18.1968 19.7948 17.9666 20.3744 17.9666Z" fill="#272835" stroke="white"/>
<path d="M19.6237 21.656V22.156H20.1237H20.625H21.125V21.656V21.0818H21.8783H22.3783V20.5818V20.1521V19.6521H21.8783H21.125V19.0779V18.5779H20.625H20.1237H19.6237V19.0779V19.6521H18.8705H18.3705V20.1521V20.5818V21.0818H18.8705H19.6237V21.656Z" fill="#272835" stroke="white"/>
<path d="M13.6181 17.3139H10.0803C10.0152 17.3139 9.9624 17.261 9.9624 17.1959C9.9624 17.1308 10.0152 17.078 10.0803 17.078H13.6181C13.6832 17.078 13.736 17.1308 13.736 17.1959C13.736 17.261 13.6832 17.3139 13.6181 17.3139Z" fill="#263238"/>
<path d="M13.6181 18.0214H10.0803C10.0152 18.0214 9.9624 17.9685 9.9624 17.9034C9.9624 17.8384 10.0152 17.7855 10.0803 17.7855H13.6181C13.6832 17.7855 13.736 17.8384 13.736 17.9034C13.736 17.9685 13.6832 18.0214 13.6181 18.0214Z" fill="#263238"/>
<path d="M11.8492 18.729H10.0803C10.0152 18.729 9.9624 18.6762 9.9624 18.6111C9.9624 18.546 10.0152 18.4932 10.0803 18.4932H11.8492C11.9143 18.4932 11.9671 18.546 11.9671 18.6111C11.9671 18.6762 11.9143 18.729 11.8492 18.729Z" fill="#263238"/>
<path d="M19.6321 7.99757H18.6887C18.6236 7.99757 18.5708 7.94474 18.5708 7.87964C18.5708 7.81455 18.6236 7.76172 18.6887 7.76172H19.6321C19.6972 7.76172 19.75 7.81455 19.75 7.87964C19.75 7.94474 19.6972 7.99757 19.6321 7.99757Z" fill="#263238"/>
<path d="M18.2171 6.58241H17.2737C17.2086 6.58241 17.1558 6.52958 17.1558 6.46448C17.1558 6.39939 17.2086 6.34656 17.2737 6.34656H18.2171C18.2822 6.34656 18.335 6.39939 18.335 6.46448C18.335 6.52958 18.2822 6.58241 18.2171 6.58241Z" fill="#263238"/>
<path d="M17.7453 7.05424C17.6802 7.05424 17.6274 7.00141 17.6274 6.93632V5.99292C17.6274 5.92783 17.6802 5.875 17.7453 5.875C17.8104 5.875 17.8632 5.92783 17.8632 5.99292V6.93632C17.8632 7.00141 17.8104 7.05424 17.7453 7.05424Z" fill="#263238"/>
<path d="M19.1601 8.46916C19.095 8.46916 19.0422 8.41633 19.0422 8.35124V7.40784C19.0422 7.34275 19.095 7.28992 19.1601 7.28992C19.2252 7.28992 19.278 7.34275 19.278 7.40784V8.35124C19.278 8.41633 19.2252 8.46916 19.1601 8.46916Z" fill="#263238"/>
</svg>
