<svg width="24" height="24" viewBox="0 0 24 24" fill="none" xmlns="http://www.w3.org/2000/svg">
<path d="M14.553 12.4417L17.2531 10.1358C18.4177 9.14121 19 8.6439 19 8C19 7.3561 18.4177 6.85879 17.2531 5.86418L14.553 3.55829C13.3366 2.51943 12.7284 2 12 2C11.2716 2 10.6634 2.51943 9.44699 3.55829L6.74694 5.86418C5.58231 6.85879 5 7.3561 5 8C5 8.6439 5.58231 9.14121 6.74694 10.1358L9.44699 12.4417C10.6634 13.4806 11.2716 14 12 14C12.7284 14 13.3366 13.4806 14.553 12.4417Z" stroke="#341217" stroke-width="1.5" stroke-linecap="round" stroke-linejoin="round"/>
<path d="M19 13L14.6032 16.5118C13.361 17.5039 12.7398 18 12 18C11.2602 18 10.639 17.5039 9.39683 16.5118L5 13" stroke="#341217" stroke-width="1.5" stroke-linecap="round" stroke-linejoin="round"/>
<path d="M19 17L14.6032 20.5118C13.361 21.5039 12.7398 22 12 22C11.2602 22 10.639 21.5039 9.39683 20.5118L5 17" stroke="#341217" stroke-width="1.5" stroke-linecap="round" stroke-linejoin="round"/>
</svg>
