<svg width="148" height="88" viewBox="0 0 148 88" fill="none" xmlns="http://www.w3.org/2000/svg">
<path d="M13.5419 63.7487C18.401 63.7487 21.4354 64.6739 22.6443 66.5249C22.9892 67.1339 23.162 67.6752 23.162 68.1495V69.0975C23.162 71.9863 20.966 74.6943 16.5763 77.222C13.3321 78.7562 10.0019 79.5239 6.5857 79.5239C4.35349 79.5239 2.45408 79.2084 0.888191 78.576C0.295826 78.0463 0 77.5493 0 77.0867L0 76.2063C0 75.529 0.492807 74.0397 1.47985 71.7378C1.73869 71.5127 1.93639 71.3995 2.0715 71.3995C3.24343 72.3923 4.30442 73.002 5.25377 73.2271C7.25202 73.7242 8.95374 73.9721 10.3596 73.9721H11.2478C13.357 73.9721 15.4285 73.3858 17.4645 72.2121C18.3022 71.5914 18.7217 71.0501 18.7217 70.5868C18.7217 69.808 17.4389 69.3571 14.8738 69.2329C12.7398 69.2329 10.1754 69.6395 7.17807 70.4515C6.82037 70.7677 6.52384 70.9252 6.28988 70.9252H6.06801C5.67333 70.9252 5.47564 69.7748 5.47564 67.4729V67.2692C5.47564 65.4188 6.85735 64.3128 9.61935 63.9517C10.1378 63.8729 11.4455 63.8053 13.5419 63.7487Z" fill="#341217"/>
<path d="M89.9353 63.5818C91.3255 63.5916 92.8196 62.6156 93.4319 61.5779C94.0683 60.4991 94.0477 58.8804 92.9434 58.0449C91.5154 56.9642 89.4212 57.9057 88.4028 59.0378C87.403 60.1497 87.1456 62.1817 88.528 63.1505C88.9532 63.4485 89.4375 63.5786 89.9353 63.5818Z" fill="#C74A51"/>
<path d="M38.8841 87.0844C40.2744 87.0942 41.7684 86.1182 42.3807 85.0804C43.0172 84.0017 42.9965 82.3829 41.8922 81.5475C40.4642 80.4668 38.37 81.4083 37.3517 82.5404C36.3518 83.6523 36.0944 85.6842 37.4768 86.653C37.9021 86.951 38.3863 87.0811 38.8841 87.0844Z" fill="#C74A51"/>
<path d="M122.119 63.545C120.306 62.8235 119.098 62.4617 118.493 62.4617H118.049C117.111 62.4617 116.248 62.9354 115.46 63.884C114.756 65.035 113.571 67.698 111.907 71.8731C110.785 75.2584 109.724 76.9513 108.725 76.9513C108.281 76.8043 108.06 76.2851 108.06 75.3937V74.8517C108.06 73.9265 108.552 72.324 109.539 70.0448C109.983 68.8151 110.748 67.5288 111.833 66.1859C113.362 64.8203 114.128 64.0753 114.128 63.9517C114.128 63.0375 112.844 62.4279 110.28 62.1234C109.231 62.1234 108.269 62.5749 107.393 63.4773C106.875 64.0421 105.568 66.7279 103.471 71.5341C101.979 75.4165 100.771 77.3573 99.8454 77.3573C99.5368 77.233 99.3149 76.6013 99.1791 75.4614V75.3254C99.8454 71.5459 101.251 68.454 103.397 66.0506C104.68 65.0005 105.321 64.3459 105.321 64.087C105.321 63.9634 105.272 63.8274 105.173 63.6803C103.693 62.8684 102.336 62.4617 101.103 62.4617C100.511 62.4734 100.215 62.5183 100.215 62.597C99.4628 62.597 98.3528 63.8612 96.8857 66.3889C95.9357 68.5666 95.4421 70.553 95.4052 72.3468C95.4542 73.5993 95.5282 74.6604 95.627 75.529C95.1584 75.935 94.6158 76.138 93.9993 76.138C93.0492 76.138 92.1127 75.8225 91.1875 75.1901C90.5262 74.6266 89.926 74.0599 89.3699 73.4913C89.8129 72.6721 90.2232 71.7762 90.5951 70.7898C90.726 70.4424 90.9464 70.1021 91.1292 69.7755C91.3219 69.4326 91.5232 69.0936 91.7336 68.7592C92.1617 68.0799 92.6261 67.4202 93.1225 66.7806C93.3194 66.5269 93.5214 66.2764 93.7283 66.0291C93.8357 65.901 93.9438 65.7741 94.0533 65.6479C94.1351 65.5542 94.2951 65.4358 94.2958 65.3095C94.2958 65.236 94.2958 65.1625 94.2965 65.0896C94.2965 65.0558 94.2958 65.0213 94.2787 64.992C94.2624 64.9647 94.2339 64.9458 94.2048 64.9296C93.9111 64.7617 93.5036 64.7279 93.1666 64.6856C91.5274 64.4806 89.8492 64.5932 88.2079 64.7519C87.6554 64.8053 87.1021 64.8717 86.5595 64.9829C86.2182 65.0525 85.8619 65.1345 85.5554 65.2939C85.3869 65.3818 85.1935 65.5158 85.1935 65.7116C84.3053 72.7528 82.4059 76.2734 79.4959 76.2734C78.9647 76.2734 78.3482 76.1836 77.6456 76.0027C76.7446 75.7581 75.5364 74.9025 74.0295 73.4542C75.2157 72.0507 75.8145 70.5985 75.8145 69.0969V68.1489C75.8145 67.6752 75.6417 67.1339 75.2961 66.5243C74.0871 64.6732 71.0528 63.748 66.1937 63.748C64.0973 63.8046 62.7896 63.8729 62.2719 63.9517C59.5091 64.3128 58.1281 65.4188 58.1281 67.2692V67.4722C58.1281 69.7742 58.3251 70.9252 58.7205 70.9252H58.9417C59.1756 70.9252 59.4722 70.7677 59.8299 70.4508C62.8393 69.6388 65.4043 69.2322 67.5256 69.2322C70.0913 69.3571 71.3742 69.808 71.3742 70.5862C71.3742 71.0494 70.9547 71.5907 70.1162 72.2115C68.0931 73.3852 66.0209 73.9714 63.9003 73.9714H63.0121C61.6055 73.9714 59.9045 73.7242 57.9063 73.2271C56.9562 73.0013 55.8959 72.3923 54.7247 71.3988C54.5882 71.3988 54.3912 71.512 54.1323 71.7378C53.1453 74.0397 52.6518 75.529 52.6518 76.2063V77.0867C52.6518 77.5486 52.9476 78.0457 53.54 78.576C55.1066 79.2077 57.006 79.5239 59.2382 79.5239C62.6665 79.5239 65.9967 78.7562 69.2281 77.222C70.5088 76.4842 71.5968 75.7314 72.5042 74.9636C72.6891 75.4835 72.9102 76.0261 73.2054 76.6123C74.6482 78.5532 76.7446 79.5239 79.4959 79.5239H80.3095C83.4668 79.5239 86.056 78.1836 88.082 75.5134C88.2115 75.84 88.3572 76.1621 88.5236 76.477C89.719 78.4178 91.5694 79.3886 94.0732 79.3886H94.7388C95.775 79.3886 96.8111 79.1628 97.8472 78.7113C98.5625 79.2533 99.5247 79.5239 100.734 79.5239C101.818 79.5239 103.298 78.7113 105.173 77.0867C106.579 78.4855 107.837 79.1849 108.948 79.1849H110.132C112.783 78.3281 114.781 76.7255 116.125 74.3781C118.185 69.469 119.665 66.6485 120.565 65.9153C121.737 64.899 122.329 64.3577 122.341 64.29V64.1547C122.341 63.9172 122.267 63.7148 122.119 63.545Z" fill="#341217"/>
<path d="M35.5696 48.6221C34.5064 49.4061 33.503 50.3827 32.5615 51.5616C28.9604 56.809 27.1591 62.2704 27.1591 67.9465V68.0819C27.1591 69.4925 27.307 70.8237 27.6036 72.0768C28.9846 77.0418 32.2899 79.5239 37.5195 79.5239C38.552 79.4855 39.4317 79.3944 40.1762 79.2572C40.2096 79.2507 40.2431 79.2448 40.2765 79.2376C40.3682 79.2201 40.4663 79.2045 40.5531 79.1856C40.5609 79.1804 40.5673 79.1752 40.5751 79.17C43.042 78.5981 45.1391 77.0379 46.8615 74.4796C48.416 71.1288 49.6 68.8496 50.4142 67.6414C51.7462 66.0623 52.4118 65.182 52.4118 65.0011C52.4118 64.7415 51.5243 64.5613 49.7479 64.4598C47.1701 64.4598 45.1477 64.6849 43.6799 65.1365C43.3841 65.1365 43.1622 65.7916 43.0136 67.1001C42.2257 72.1893 40.8056 75.1282 38.7597 75.935H38.5556C37.8274 75.935 37.0878 75.8231 36.3361 75.5974C34.1651 74.773 33.0799 73.0586 33.0799 70.4515V69.9102C33.0799 68.1723 33.6467 65.7572 34.7816 62.6654C35.8419 59.8787 37.1739 57.3731 38.7774 55.1499C39.6265 53.9683 40.5026 52.9032 41.4022 51.9318C40.9748 51.8928 40.5431 51.8251 40.1058 51.7249C37.9646 51.2344 36.4684 50.1986 35.5696 48.6221Z" fill="#341217"/>
<path d="M117.908 42.2629C117.901 42.2705 117.892 42.2781 117.883 42.2781C117.892 42.2781 117.901 42.2705 117.925 42.2553C117.917 42.2553 117.917 42.2629 117.908 42.2629Z" fill="#363794"/>
<path d="M139.901 22.6976C139.88 22.7952 139.823 22.8928 139.773 22.9839V22.9969C139.737 23.0555 139.709 23.127 139.666 23.1986C139.538 23.4784 139.382 23.7711 139.211 24.0965C139.175 24.155 139.133 24.2266 139.097 24.2982C139.069 24.3567 139.033 24.4283 138.991 24.4999C138.962 24.5714 138.912 24.643 138.877 24.7276C138.806 24.8577 138.742 24.9878 138.663 25.131C138.599 25.2416 138.55 25.3457 138.486 25.4563C138.429 25.5539 138.379 25.645 138.336 25.7296C137.988 26.3737 137.689 26.9332 137.533 27.2195C137.426 27.4017 137.319 27.5904 137.206 27.7595V27.7725H137.191V27.7595C137.021 27.6294 136.85 27.5058 136.687 27.3887C136.58 27.3171 136.473 27.2455 136.381 27.161C136.281 27.0764 136.16 26.9918 136.061 26.9332C135.442 26.4843 134.859 26.0419 134.283 25.5604C134.219 25.5018 134.141 25.4433 134.077 25.3717C133.999 25.3132 133.92 25.2416 133.842 25.17C133.75 25.1115 133.671 25.0269 133.579 24.9553C133.515 24.8837 133.451 24.8252 133.387 24.7666V24.7536C133.323 24.7016 133.266 24.656 133.216 24.5975C133.11 24.5129 133.01 24.4088 132.918 24.2982C132.918 24.2982 132.918 24.2851 132.903 24.2721L132.839 24.2136C132.797 24.181 132.761 24.129 132.704 24.0835C132.683 24.0509 132.64 23.9989 132.605 23.9533C132.548 23.9078 132.498 23.8427 132.448 23.7711C132.391 23.7126 132.342 23.667 132.306 23.5955C132.235 23.5369 132.171 23.4653 132.121 23.3808C132.093 23.3417 132.071 23.3222 132.057 23.2832C132.029 23.2832 132.029 23.2832 132.029 23.2702C131.872 23.0815 131.73 22.8798 131.609 22.6651C131.574 22.6195 131.545 22.5545 131.51 22.4959C131.453 22.4113 131.417 22.3202 131.374 22.2096C131.374 22.1966 131.367 22.1966 131.367 22.1901C131.325 22.0665 131.289 21.9494 131.261 21.8388C131.246 21.7477 131.232 21.6761 131.232 21.5785C131.232 21.52 131.232 21.4614 131.246 21.4093V21.4028C131.246 21.3898 131.246 21.3898 131.261 21.3768C131.261 21.3378 131.275 21.3052 131.289 21.2597C131.31 21.2077 131.339 21.1621 131.367 21.1035C131.609 20.492 131.901 19.9064 132.214 19.3143C132.313 19.1126 132.42 18.9174 132.512 18.7157C132.541 18.6897 132.548 18.6442 132.562 18.6181C132.839 18.0976 133.11 17.5836 133.373 17.0566H133.387C133.408 17.0566 133.437 17.0696 133.479 17.0826C133.501 17.0826 133.543 17.0956 133.593 17.1152C133.622 17.1282 133.671 17.1412 133.714 17.1542C133.871 17.2128 134.063 17.2843 134.247 17.3559C134.283 17.3819 134.34 17.4014 134.375 17.4145C134.418 17.4275 134.468 17.4535 134.503 17.473H134.532C134.575 17.486 134.596 17.5121 134.624 17.5121C134.66 17.5381 134.703 17.5446 134.731 17.5576C134.752 17.5576 134.781 17.5706 134.781 17.5836C134.809 17.5836 134.831 17.5966 134.845 17.6096C134.873 17.6096 134.887 17.6162 134.909 17.6292C135.094 17.7137 135.279 17.7853 135.456 17.8829C135.677 17.987 135.904 18.0976 136.111 18.2277C136.473 18.4294 136.843 18.6572 137.177 18.8979V18.9044C137.319 19.002 137.469 19.1126 137.611 19.2167C137.725 19.3143 137.846 19.4054 137.959 19.503C138.116 19.6331 138.272 19.7632 138.415 19.9064C138.756 20.2317 139.069 20.5765 139.368 20.9344C139.396 20.9604 139.431 21.006 139.46 21.032C139.581 21.1881 139.709 21.3378 139.823 21.5069C139.901 21.6175 139.993 21.7086 140.05 21.8323C140.072 21.8648 140.1 21.8908 140.1 21.9103V21.9364L140.114 21.9494C140.128 21.9624 140.128 21.9754 140.114 21.9754C140.136 22.034 140.136 22.0925 140.128 22.1511C140.128 22.2357 140.036 22.4243 139.901 22.6976ZM136.722 28.6379C136.722 28.6899 136.708 28.7225 136.694 28.7615C136.687 28.8201 136.672 28.8916 136.644 28.9632C136.615 29.0218 136.594 29.0803 136.58 29.1389C136.551 29.2104 136.53 29.2755 136.502 29.3471C136.359 29.7114 136.217 30.0823 136.082 30.4662C135.954 30.811 135.826 31.1689 135.691 31.5137C135.641 31.6698 135.591 31.826 135.535 31.9821C135.357 32.4701 135.172 32.9841 134.973 33.4851C134.717 34.2203 134.454 34.962 134.183 35.6908C133.97 36.2633 133.764 36.8489 133.558 37.4084C133.451 37.6817 133.359 37.9354 133.252 38.1957C133.11 38.5666 132.982 38.9374 132.839 39.3018C132.619 39.8743 132.391 40.4469 132.157 41.0129C132.029 41.3318 131.901 41.6571 131.758 41.9629C131.623 42.2882 131.481 42.607 131.353 42.9193C131.14 43.3943 130.919 43.8692 130.699 44.3507C130.542 44.7216 130.372 45.0859 130.194 45.4438C130.038 45.8146 129.853 46.1855 129.668 46.5563C129.319 47.2851 128.964 48.0138 128.615 48.736C128.381 49.237 128.146 49.7184 127.911 50.2064C127.847 50.3235 127.79 50.4536 127.726 50.5773C127.677 50.6683 127.598 50.792 127.478 50.8961C127.442 50.9351 127.399 50.9676 127.35 51.0067C127.193 51.1238 127.022 51.2669 126.788 51.2409C126.411 51.1954 126.034 51.0652 125.657 50.9676C125.252 50.8766 124.846 50.7659 124.455 50.6488C124.192 50.5642 123.943 50.4927 123.687 50.4081C123.453 50.3235 123.232 50.2389 123.005 50.1478C122.983 50.1478 122.955 50.1348 122.926 50.1218C122.685 50.0242 122.436 49.9071 122.201 49.79C121.952 49.6664 121.732 49.5232 121.497 49.3931C121.277 49.25 121.049 49.0938 120.829 48.9312C120.672 48.801 120.516 48.6644 120.373 48.5148C120.345 48.4887 120.324 48.4497 120.295 48.4302C120.181 48.3196 120.089 48.2024 119.982 48.0853C119.982 48.0853 119.968 48.0723 119.933 48.0203C119.918 48.0007 119.904 47.9877 119.89 47.9617C119.797 47.8576 119.719 47.747 119.641 47.6169C119.634 47.5908 119.62 47.5843 119.62 47.5583C119.591 47.5453 119.591 47.5193 119.577 47.5128C119.499 47.4022 119.449 47.2851 119.399 47.1744C119.385 47.1614 119.371 47.1419 119.371 47.1159C119.342 47.0443 119.307 46.9858 119.264 46.8882C119.229 46.7971 119.172 46.6865 119.136 46.5824C119.122 46.5694 119.122 46.5433 119.122 46.5303C119.093 46.4848 119.072 46.4262 119.072 46.3742C119.044 46.3546 119.044 46.3286 119.044 46.3026C119.008 46.1985 118.98 46.0814 118.951 45.9708C118.937 45.9382 118.93 45.8992 118.93 45.8732C118.873 45.6975 118.852 45.4958 118.823 45.3136C118.795 45.1119 118.795 44.9233 118.795 44.7281V44.4808C118.795 44.1555 118.859 43.8367 118.937 43.5374C118.951 43.4658 118.98 43.3943 118.994 43.3227C119.044 43.108 119.122 42.8803 119.229 42.659C119.25 42.5875 119.293 42.5159 119.328 42.4443C119.371 42.3728 119.399 42.2947 119.435 42.2231C120.046 41.1431 120.658 40.0435 121.277 38.9569C121.888 37.8704 122.5 36.7773 123.111 35.6908C123.175 35.5801 123.36 35.2483 123.623 34.8189C123.765 34.5717 123.936 34.2724 124.114 33.9601C124.114 33.9471 124.128 33.934 124.128 33.9275C124.221 33.7844 124.299 33.6413 124.391 33.4851C124.64 33.0752 124.882 32.6458 125.117 32.2294C125.159 32.1838 125.188 32.1383 125.209 32.0862C125.223 32.0667 125.252 32.0277 125.266 31.9952C125.33 31.8715 125.408 31.7544 125.472 31.6438C125.501 31.6113 125.508 31.5657 125.536 31.5267C125.771 31.1233 125.991 30.7655 126.148 30.4792C126.176 30.4401 126.19 30.4076 126.212 30.3686C126.24 30.31 126.269 30.2645 126.29 30.2254C126.397 30.0628 126.461 29.9522 126.489 29.9066C126.916 29.1909 127.35 28.4882 127.769 27.7791C128.182 27.1154 128.587 26.4322 128.992 25.7686C129.319 25.2156 129.654 24.669 129.981 24.1225C130.194 23.7711 130.4 23.4523 130.592 23.1205C130.621 23.0685 130.663 23.0359 130.685 22.9839C131.609 23.7711 132.527 24.5714 133.423 25.3587C134.027 25.8857 134.624 26.3997 135.222 26.9137C135.52 27.174 135.833 27.4342 136.146 27.701L136.267 27.8051C136.331 27.8506 136.381 27.9027 136.438 27.9482C136.473 27.9938 136.53 28.0588 136.566 28.1044C136.608 28.1499 136.63 28.189 136.658 28.2345C136.672 28.2735 136.687 28.3191 136.694 28.3646C136.708 28.4037 136.708 28.4232 136.708 28.4622C136.722 28.4882 136.722 28.5078 136.722 28.5663V28.6379ZM122.222 28.9632V28.9957C122.222 29.0088 122.237 29.0218 122.251 29.0218C122.265 29.0803 122.279 29.1389 122.279 29.2104V29.282C122.301 29.4186 122.301 29.5488 122.301 29.7049C122.293 29.9261 122.279 30.1539 122.237 30.3946C122.201 30.7394 122.123 31.0713 122.066 31.4226C122.002 31.7805 121.938 32.1253 121.874 32.4831C121.796 32.4961 121.703 32.4961 121.625 32.4961C121.234 31.1233 120.857 29.7375 120.48 28.3516C120.501 28.3516 120.544 28.3451 120.573 28.3451C120.857 28.2931 121.092 28.2735 121.298 28.28C121.376 28.28 121.454 28.2931 121.518 28.3061C121.639 28.3321 121.753 28.3646 121.831 28.4167C121.874 28.4362 121.902 28.4622 121.924 28.4882C121.938 28.4882 121.966 28.5078 121.981 28.5338C121.988 28.5338 121.988 28.5338 122.002 28.5598C122.03 28.5793 122.059 28.6054 122.066 28.6379C122.137 28.7095 122.187 28.8201 122.215 28.9242V28.9372C122.222 28.9372 122.222 28.9502 122.222 28.9632ZM119.982 27.0438C119.954 26.9723 119.918 26.9007 119.89 26.8161C119.869 26.7576 119.854 26.7055 119.84 26.6339C119.776 26.4908 119.719 26.3412 119.669 26.185H119.655V26.146C119.641 26.1134 119.634 26.0744 119.62 26.0549C119.577 25.9443 119.556 25.8402 119.513 25.7426C119.499 25.684 119.485 25.645 119.485 25.5864V25.5734C119.421 25.3587 119.371 25.157 119.278 24.9553C119.243 24.8382 119.2 24.7276 119.15 24.6235C119.093 24.5259 119.044 24.4153 118.994 24.3242C118.951 24.2266 118.887 24.1225 118.823 24.0249C118.773 23.9143 118.702 23.8232 118.624 23.7126C118.603 23.6801 118.574 23.641 118.546 23.5955C118.539 23.5695 118.539 23.5564 118.51 23.5499C118.446 23.4523 118.382 23.3678 118.304 23.2832C118.261 23.2116 118.212 23.153 118.148 23.0945C118.091 23.0359 118.041 22.9644 117.977 22.9123C117.899 22.8082 117.792 22.7106 117.678 22.6195C117.636 22.5675 117.586 22.5219 117.529 22.4829C117.465 22.4243 117.415 22.3658 117.351 22.3398C117.195 22.2096 117.038 22.0795 116.868 21.9624C116.853 21.9494 116.839 21.9233 116.825 21.9233C116.711 21.8388 116.604 21.7607 116.491 21.6956C116.427 21.6501 116.348 21.6045 116.27 21.5525C116.242 21.546 116.213 21.52 116.178 21.4939C116.057 21.4093 115.929 21.3378 115.801 21.2792C115.744 21.2467 115.694 21.2077 115.652 21.1881C115.488 21.1035 115.332 21.006 115.161 20.9214C114.727 20.7067 114.3 20.492 113.852 20.3163C113.66 20.2187 113.454 20.1341 113.241 20.0625C112.836 19.8999 112.444 19.7437 112.046 19.6136H112.032C111.612 19.4705 111.221 19.3338 110.809 19.2297C110.453 19.1321 110.112 19.0606 109.763 18.989C109.749 18.976 109.735 18.976 109.721 18.976C109.372 18.9044 109.017 18.8459 108.668 18.7873C108.121 18.7027 107.573 18.6442 107.026 18.6116C106.215 18.5466 105.397 18.5466 104.572 18.5986L104.103 18.6311C103.975 18.6442 103.833 18.6572 103.698 18.6702C103.683 18.6702 103.662 18.6702 103.634 18.6832C103.335 18.7027 103.05 18.7548 102.759 18.7873C102.474 18.8328 102.176 18.8849 101.891 18.9434C101.586 19.002 101.287 19.0606 100.974 19.1321C100.647 19.2037 100.334 19.3013 100.014 19.3859C99.8433 19.4314 99.6727 19.49 99.502 19.542C99.4664 19.542 99.438 19.5485 99.4095 19.5616C99.3455 19.5876 99.31 19.6006 99.2531 19.6136C99.0824 19.6591 98.926 19.7047 98.7695 19.7632C98.6913 19.7893 98.6131 19.8283 98.5349 19.8608C98.4993 19.8608 98.4566 19.8869 98.4353 19.8869C98.1224 19.991 97.8237 20.1146 97.5322 20.2447C97.4326 20.2772 97.326 20.3293 97.2335 20.3618C96.9704 20.4724 96.7144 20.5765 96.4655 20.7067C96.3233 20.7782 96.181 20.8498 96.0317 20.9214C96.0246 20.9214 96.0246 20.9214 96.0104 20.9344C95.8753 21.006 95.7615 21.0645 95.6335 21.1231C95.5126 21.1881 95.3846 21.2597 95.2637 21.3313C95.2139 21.3638 95.1641 21.3898 95.1073 21.4093C94.8512 21.5525 94.6024 21.7086 94.3535 21.8648C94.2326 21.9494 94.1046 22.034 93.9908 22.1185C93.9766 22.1185 93.9766 22.1185 93.9623 22.125C93.7917 22.2226 93.6352 22.3398 93.4646 22.4634C93.3508 22.548 93.2157 22.626 93.1019 22.7236C92.5828 23.1075 92.0708 23.5109 91.5872 23.9533L91.445 24.0835C90.9756 24.4999 90.5205 24.9553 90.1152 25.4107C90.0227 25.4888 89.9445 25.5734 89.8663 25.671C89.3969 26.185 88.956 26.7055 88.5365 27.2716C88.4867 27.3301 88.444 27.3887 88.4085 27.4472C88.2022 27.7205 87.9889 28.0068 87.7969 28.3061C87.5765 28.6184 87.3631 28.9372 87.1569 29.2755C86.9507 29.5943 86.7516 29.9261 86.5596 30.2645V30.2775C86.716 30.5703 86.8725 30.8696 87.0005 31.1689C87.1569 31.4551 87.2849 31.7544 87.42 32.0407C87.5338 32.2879 87.6547 32.5417 87.7542 32.7889C87.7969 32.8605 87.8182 32.9256 87.8467 32.9971C87.8751 33.0427 87.8894 33.0752 87.8965 33.1273C87.9249 33.1728 87.9391 33.1988 87.9534 33.2444C87.9747 33.2834 88.0031 33.329 88.0174 33.3615C88.0814 33.5046 88.1454 33.6478 88.2023 33.7844C88.252 33.8755 88.2876 33.9861 88.316 34.0772V34.0902C88.3587 34.1618 88.38 34.2333 88.4085 34.2919C88.4369 34.3635 88.4583 34.435 88.4867 34.5001C88.5151 34.5326 88.5223 34.5717 88.5365 34.5912C88.5507 34.6302 88.5649 34.6628 88.5792 34.7018C88.6289 34.8189 88.6716 34.936 88.7214 35.0596L88.7356 35.0727V35.0792C88.8494 35.3589 88.956 35.6192 89.0627 35.8925C89.084 35.964 89.1125 36.0356 89.1409 36.1072C89.1623 36.1787 89.1907 36.2633 89.2192 36.3349C89.2405 36.4195 89.2832 36.5106 89.3187 36.5951C89.3614 36.6797 89.3969 36.7773 89.4254 36.8619C89.4396 36.9074 89.4538 36.953 89.4609 36.992C89.5392 37.2067 89.6174 37.4084 89.6956 37.6101C89.7383 37.7207 89.7738 37.8248 89.8165 37.9354V37.942C89.8307 37.968 89.8449 37.994 89.8449 38.0135C89.8521 38.0265 89.8521 38.0395 89.8663 38.0656C89.8805 38.1111 89.9089 38.1697 89.9232 38.2412C90.0369 38.5275 90.1436 38.8268 90.2361 39.1261C90.2716 39.2432 90.3143 39.3668 90.3641 39.497C90.549 40.0435 90.7267 40.5835 90.9258 41.1561C90.9898 41.3318 91.0538 41.5009 91.1036 41.6766C91.1747 41.8718 91.2245 42.0735 91.3027 42.2622C91.4592 42.7371 91.6156 43.2381 91.7863 43.7196C91.957 44.2076 92.1134 44.6955 92.277 45.1835C91.9143 45.0404 91.7223 44.9818 91.5232 44.8972C91.317 44.7996 91.1036 44.7085 90.8832 44.5979C90.8619 44.5849 90.8334 44.5849 90.805 44.5784C90.741 44.5394 90.677 44.5068 90.613 44.4548C90.4138 44.3637 90.2218 44.2661 90.0369 44.1555C89.9232 44.0969 89.8165 44.0384 89.6956 43.9668C89.3045 43.7521 88.9276 43.5114 88.5649 43.2902C88.444 43.2056 88.3445 43.134 88.2236 43.0494C88.2023 43.0364 88.2023 43.0234 88.1738 43.0169C88.1454 42.9909 88.1098 42.9779 88.0671 42.9453C87.9747 42.8607 87.8609 42.7892 87.7542 42.7046L87.5836 42.5745C87.548 42.5484 87.5054 42.5159 87.484 42.4899C87.4556 42.4769 87.4556 42.4639 87.4271 42.4639C87.4058 42.4313 87.3631 42.4053 87.3418 42.3793C87.2849 42.3467 87.2209 42.2947 87.1711 42.2491C87.1427 42.2231 87.1142 42.2036 87.0929 42.1776C87.0502 42.145 87.0147 42.119 86.972 42.0865C86.8725 42.0019 86.7516 41.8913 86.6449 41.7937L86.1542 41.3448C86.1542 41.3448 86.0902 41.2862 86.0902 41.2732C86.076 41.2472 86.0476 41.2277 86.0333 41.2016C85.8129 40.9869 85.6067 40.7592 85.3933 40.5445C85.2369 40.3558 85.0804 40.1606 84.924 39.9719C84.796 39.8158 84.668 39.6401 84.5329 39.4709C84.4191 39.3148 84.2982 39.1586 84.2129 38.996C84.0635 38.8008 83.9497 38.5991 83.8289 38.4104C83.7151 38.2282 83.6084 38.0526 83.516 37.8639C83.4662 37.7793 83.4164 37.6817 83.3737 37.5971C83.2742 37.4214 83.1675 37.2263 83.0893 37.0506C82.9826 36.8229 82.8831 36.6082 82.7906 36.3804C82.7124 36.1787 82.6342 35.977 82.5417 35.7753C82.5275 35.7363 82.4991 35.6908 82.4991 35.6647C82.4493 35.4891 82.3853 35.3199 82.3355 35.1507C82.2786 35.0011 82.2146 34.8449 82.179 34.6888C82.1648 34.6497 82.1506 34.6042 82.1364 34.5717C82.0866 34.3765 82.0297 34.1878 81.9799 34.0056C81.8662 33.5307 81.7453 33.0557 81.667 32.5677C81.5888 32.1448 81.5248 31.7154 81.475 31.286C81.475 31.2534 81.475 31.2079 81.4608 31.1689C81.4466 31.1363 81.4466 31.0973 81.4466 31.0648C81.3968 30.6549 81.3541 30.2384 81.3257 29.8351C81.2617 28.7615 81.2617 27.701 81.3257 26.6469C81.3257 26.5754 81.3399 26.4908 81.3541 26.4127V26.2566C81.3826 26.0028 81.3968 25.7686 81.4181 25.5148C81.4466 25.2871 81.475 25.0724 81.4964 24.8577C81.5106 24.8252 81.5106 24.7861 81.5248 24.7536C81.539 24.63 81.5533 24.5129 81.5746 24.3958C81.5746 24.3437 81.5888 24.2982 81.603 24.2396C81.6173 24.0835 81.6386 23.9273 81.667 23.7646C81.6955 23.667 81.7097 23.5695 81.7168 23.4849C81.7168 23.4393 81.731 23.3938 81.7453 23.3417C81.7737 23.1921 81.8093 23.0359 81.8377 22.8928C81.9017 22.5805 81.9799 22.2682 82.0439 21.9754C82.2644 21.1361 82.4991 20.3163 82.8048 19.477C82.8262 19.4054 82.8404 19.3338 82.8688 19.2753C82.9044 19.1842 82.9471 19.0736 82.9684 18.976C82.9968 18.9044 83.0253 18.8458 83.0466 18.7743C83.2457 18.2733 83.4377 17.7723 83.6724 17.2713C83.7506 17.0956 83.8289 16.9265 83.9071 16.7508C83.9355 16.7248 83.9355 16.6988 83.9497 16.6792C84.092 16.3409 84.2626 16.0221 84.4333 15.6838C84.5258 15.4821 84.6253 15.2804 84.7462 15.0787C84.8458 14.877 84.9666 14.6753 85.0733 14.4671C85.1871 14.2654 85.2938 14.0767 85.4075 13.888C85.4715 13.7774 85.5284 13.6798 85.5924 13.5887C85.7631 13.2764 85.9551 12.9771 86.1542 12.6778C86.2324 12.5347 86.3249 12.4046 86.4244 12.2614C86.4671 12.2029 86.5169 12.1183 86.5596 12.0337C86.5951 12.0012 86.6236 11.9556 86.6449 11.9036C86.6733 11.8711 86.7018 11.832 86.716 11.8125L86.9862 11.4156C87.0147 11.3701 87.0645 11.2985 87.1071 11.2464C87.2849 10.9862 87.484 10.739 87.6618 10.4722C87.6902 10.4397 87.7187 10.4006 87.74 10.3681C87.7542 10.3421 87.7827 10.316 87.7969 10.2965C87.8111 10.2705 87.8111 10.2575 87.8182 10.238C87.9676 10.0558 88.0956 9.88662 88.252 9.71095C88.4369 9.4507 88.6432 9.20996 88.8352 8.95622C89.0343 8.72199 89.2405 8.46824 89.4538 8.23401C89.6316 8.02581 89.8165 7.82412 90.0014 7.64845C90.3143 7.31012 90.6272 7.00432 90.9472 6.70502C91.1036 6.56189 91.2743 6.40574 91.445 6.27561C91.4592 6.24958 91.4734 6.24958 91.4876 6.23657C91.5232 6.20404 91.573 6.15849 91.6156 6.13247C91.6441 6.10644 91.6654 6.09343 91.6796 6.07391C91.8076 5.9633 91.957 5.87222 92.085 5.7616C92.1205 5.73558 92.1632 5.70304 92.1917 5.69003C92.213 5.66401 92.2414 5.64449 92.2556 5.64449C92.3552 5.55991 92.4761 5.48834 92.5828 5.41677C92.6325 5.37123 92.6681 5.3452 92.7108 5.30616C92.725 5.29966 92.7463 5.28664 92.7605 5.27363C92.8032 5.23459 92.8388 5.21508 92.8814 5.18905C93.1943 4.98735 93.5214 4.78565 93.8414 4.60347C93.9481 4.53191 94.069 4.47335 94.1828 4.42781C94.2255 4.38877 94.2752 4.36925 94.325 4.35624C94.3819 4.3172 94.4317 4.29768 94.4957 4.27166C94.5241 4.24563 94.5384 4.23262 94.5597 4.22611C94.5881 4.20008 94.6166 4.18707 94.6379 4.18707C94.6521 4.17406 94.6806 4.16104 94.7019 4.15454C94.7588 4.12851 94.8228 4.08947 94.8726 4.06995C94.901 4.05694 94.9366 4.04393 94.965 4.01791C94.9935 4.0114 94.9935 4.0114 95.0148 3.99839C95.1641 3.92682 95.3206 3.86826 95.477 3.7967C95.5268 3.77067 95.5766 3.74464 95.6335 3.72512C95.733 3.68608 95.8539 3.64054 95.9535 3.6015C96.0744 3.54294 96.2166 3.49739 96.3375 3.45836C96.3873 3.43884 96.437 3.41282 96.4939 3.3998C96.7286 3.31522 96.9633 3.24366 97.1837 3.1851C97.3117 3.13955 97.4326 3.11353 97.5464 3.081C97.5748 3.05497 97.5962 3.05497 97.6104 3.05497C97.7526 3.00943 97.902 2.97039 98.0584 2.93786C98.1437 2.91183 98.2362 2.88581 98.3286 2.8728C98.3713 2.86629 98.4211 2.85327 98.4709 2.84026C98.7055 2.7817 98.9402 2.72965 99.2175 2.69712C99.4735 2.65157 99.7224 2.59953 99.9713 2.567C100.014 2.55398 100.064 2.55398 100.114 2.55398C100.426 2.50844 100.739 2.4694 101.052 2.44337H101.109C101.657 2.39783 102.204 2.3718 102.773 2.3718H102.972C103.257 2.3653 103.534 2.37181 103.804 2.38482C103.882 2.38482 103.961 2.38482 104.039 2.39783H104.181C104.238 2.39783 104.288 2.39783 104.323 2.41084C104.352 2.39783 104.352 2.39783 104.38 2.41084C104.473 2.41084 104.558 2.42385 104.651 2.42385C104.786 2.43687 104.914 2.44337 105.056 2.45638C105.198 2.46939 105.326 2.4694 105.49 2.49542C105.774 2.51494 106.044 2.55398 106.35 2.58001C106.386 2.58651 106.428 2.58651 106.478 2.59952C106.855 2.65157 107.26 2.71013 107.651 2.76869C108.341 2.87279 109.017 3.00942 109.671 3.15907C109.998 3.23064 110.325 3.31522 110.638 3.41282C110.873 3.47137 111.107 3.52993 111.328 3.6015C111.506 3.65355 111.676 3.71211 111.833 3.75765C112.096 3.84224 112.345 3.92682 112.594 4.0114C112.736 4.04393 112.864 4.10249 113.006 4.15454C113.284 4.25864 113.554 4.35624 113.831 4.47335C114.194 4.61649 114.535 4.75963 114.869 4.92879C115.054 5.01337 115.225 5.09145 115.396 5.17603C115.744 5.3452 116.085 5.53388 116.427 5.71606C116.604 5.82016 116.775 5.91776 116.96 6.02186C117.23 6.19102 117.508 6.3732 117.764 6.53586C117.934 6.64647 118.119 6.76358 118.276 6.8807C118.496 7.03685 118.717 7.193 118.937 7.36216C119.008 7.42072 119.072 7.46627 119.15 7.51832C119.214 7.55085 119.278 7.59639 119.342 7.66796C119.463 7.76556 119.591 7.85014 119.712 7.95424C119.84 8.05184 119.954 8.14943 120.075 8.25353C120.103 8.29257 120.139 8.31209 120.167 8.35113C120.181 8.35113 120.189 8.37716 120.203 8.37716C120.345 8.49427 120.494 8.61138 120.622 8.75452C120.814 8.91067 121.013 9.09285 121.184 9.28154C121.341 9.42467 121.497 9.59384 121.639 9.74348C121.874 9.97121 122.094 10.1989 122.301 10.4397C122.457 10.6153 122.613 10.7975 122.763 10.9862C122.77 10.9992 122.784 11.0122 122.798 11.0252C122.997 11.2595 123.189 11.5002 123.374 11.7474C123.41 11.7865 123.424 11.819 123.453 11.858C123.552 12.0012 123.659 12.1313 123.751 12.2484C124.05 12.6453 124.327 13.0617 124.597 13.4781C124.74 13.7058 124.882 13.9336 125.017 14.1483C125.159 14.363 125.273 14.5907 125.408 14.8184C125.522 15.0331 125.643 15.2478 125.757 15.4626C125.821 15.6057 125.892 15.7358 125.97 15.8659C125.991 15.9375 126.048 15.9961 126.07 16.0676C126.112 16.1262 126.134 16.1848 126.162 16.2563C126.226 16.3669 126.269 16.471 126.333 16.6077C126.333 16.6142 126.333 16.6272 126.347 16.6402C126.582 17.1282 126.816 17.6096 127.022 18.1106C127.101 18.2603 127.165 18.4294 127.222 18.5986C127.378 18.9434 127.506 19.3013 127.634 19.6591C127.677 19.7437 127.712 19.8348 127.741 19.9194C127.847 20.1927 127.933 20.4724 128.039 20.7327C128.366 21.7347 128.558 24.2721 128.772 25.3847C128.523 25.8272 128.26 26.2696 128.004 26.7055C127.854 26.9332 127.741 27.1609 127.598 27.3887C127.35 27.8051 127.101 28.2345 126.852 28.6639C126.489 29.295 126.112 29.9392 125.721 30.5833C125.657 30.7069 125.565 30.8566 125.472 31.0257C125.316 31.2795 125.145 31.5527 124.974 31.852C124.91 31.9561 124.861 32.0537 124.782 32.1448C124.725 32.2424 124.676 32.34 124.612 32.4311C124.327 32.9126 124.036 33.3745 123.829 33.7324C123.801 33.7844 123.78 33.8299 123.751 33.8625C123.723 33.9015 123.701 33.9275 123.687 33.9601C123.645 34.0186 123.63 34.0707 123.595 34.1162L123.552 34.1878C123.517 34.2333 123.474 34.2854 123.474 34.2919C123.161 34.7929 122.841 35.2874 122.514 35.7884C122.393 35.7493 122.293 35.7233 122.173 35.6908C122.173 34.9035 122.137 34.1032 122.158 33.3159C122.173 33.1273 122.173 32.9451 122.201 32.7564C122.201 32.6393 122.222 32.5417 122.251 32.4246C122.251 32.34 122.279 32.2684 122.293 32.1838C122.301 32.1383 122.315 32.0732 122.315 32.0277C122.343 31.9301 122.357 31.839 122.379 31.7089C122.407 31.6113 122.436 31.5007 122.457 31.3966C122.457 31.3836 122.471 31.3575 122.471 31.351C122.471 31.312 122.485 31.286 122.485 31.2664C122.5 31.2079 122.528 31.1428 122.528 31.0713C122.535 31.0257 122.549 30.9802 122.564 30.9281C122.628 30.6353 122.692 30.3491 122.72 30.0498C122.734 29.9652 122.749 29.8806 122.749 29.809V29.6919C122.763 29.5683 122.763 29.4512 122.749 29.3471V29.1779C122.749 29.0933 122.72 29.0088 122.706 28.9502C122.706 28.9372 122.706 28.9242 122.692 28.9177C122.692 28.8656 122.685 28.8331 122.67 28.781C122.642 28.7095 122.613 28.6379 122.592 28.5793C122.564 28.5208 122.535 28.4622 122.5 28.4037C122.471 28.3516 122.436 28.2931 122.393 28.2475C122.343 28.202 122.301 28.1499 122.251 28.1044C122.237 28.0783 122.222 28.0653 122.201 28.0588C122.137 27.9938 122.059 27.9482 121.981 27.9157C121.909 27.8766 121.824 27.8506 121.732 27.8181C121.675 27.8051 121.639 27.7921 121.589 27.7791C121.533 27.7595 121.483 27.7465 121.419 27.7465C121.284 27.7205 121.141 27.701 120.985 27.688C120.793 27.6749 120.573 27.6749 120.338 27.701H120.231C120.153 27.4733 120.061 27.2585 119.982 27.0438ZM68.9237 28.1824C66.2641 30.3816 63.633 32.6198 61.1014 34.936C57.8729 37.8834 54.9644 41.0715 51.8639 44.1165C49.8728 46.0749 47.7252 47.8706 45.0158 49.2304C44.6247 49.4256 44.1909 49.5753 43.7358 49.6924C43.2736 49.8095 42.79 49.8876 42.3278 49.9266C40.2086 50.1153 38.5446 49.1459 37.6912 47.3631C37.613 47.207 37.5348 47.0573 37.4708 46.8882C36.7241 44.8777 36.8877 42.8412 37.3357 40.8047C38.317 36.3284 40.5855 32.5742 44.71 29.8741C45.7269 29.2039 46.8292 28.6704 48.2443 28.2865C48.0239 28.6249 47.903 28.8071 47.7821 28.9827C46.9287 30.1994 46.2389 31.4812 45.9118 32.9126C45.3287 35.4565 46.6941 37.428 49.3252 37.6687C50.1857 37.7468 51.1599 37.6687 51.9564 37.3759C53.3786 36.8554 54.7937 36.2373 56.0666 35.4565C60.4898 32.7304 64.465 29.4967 68.2908 26.1004C68.7246 25.71 69.0304 25.6645 69.6064 25.8922C70.0971 26.0874 70.602 26.2501 71.1069 26.3802C70.8082 26.3802 69.2011 27.9547 68.9237 28.1824ZM48.9483 30.5898C49.5883 29.8025 50.1999 29.0348 50.8399 28.2865C50.9395 28.1759 51.1955 28.1239 51.3803 28.1369C51.6861 28.1564 51.999 28.228 52.2906 28.3126C53.6844 28.7225 53.8053 29.0608 52.9377 30.0823C52.9021 30.1278 52.8595 30.1799 52.8168 30.2254C52.5324 30.5377 52.3048 31.0127 51.9421 31.1168C51.6221 31.2144 51.1741 30.8565 50.7617 30.7785C50.2283 30.6809 49.6737 30.6614 48.9483 30.5898ZM50.6479 32.7174C51.4515 33.3485 51.9421 33.3159 52.6319 32.5872C53.1297 32.0667 53.6275 31.5332 54.1253 31.0127C54.1466 30.9867 54.2106 30.9932 54.2462 30.9867C54.9075 33.1663 53.0301 35.4891 50.4701 35.6712C50.2639 35.6843 50.0648 35.6843 49.8657 35.6843C48.9128 35.6712 48.3296 35.3459 48.0381 34.6693C47.8105 34.1227 48.1092 33.1598 48.6639 32.6978C49.2825 32.1773 49.9652 32.1838 50.6479 32.7174ZM41.1686 29.8351C44.134 25.6905 47.8887 22.2096 51.999 19.028C55.2275 16.5296 58.6196 14.2459 62.3814 12.4436C64.5361 11.4091 66.7833 10.8756 69.1797 11.6173C71.6118 12.372 73.2616 13.8164 73.6243 16.2433C73.8305 17.6031 73.3114 18.8068 72.3371 19.8153C67.6366 24.6755 62.5094 29.1063 56.7493 32.906C56.6071 32.9971 56.4506 33.0752 56.1804 33.2249C56.2871 32.5872 56.3724 32.0797 56.4507 31.5788C56.9058 28.5793 54.8222 26.8291 52.0701 26.4387C48.543 25.9313 45.414 26.8291 42.7047 28.9502C42.0575 29.4577 41.4602 30.0107 40.742 30.4857C40.8842 30.271 41.0193 30.0498 41.1686 29.8351ZM147.56 11.344C147.56 11.3831 147.56 11.4026 147.545 11.4416C147.531 11.5002 147.531 11.5457 147.517 11.5978C147.489 11.6694 147.481 11.7474 147.467 11.832C147.439 11.9036 147.41 11.9752 147.396 12.0467C147.389 12.0858 147.389 12.1053 147.375 12.1443C147.361 12.2029 147.332 12.2484 147.332 12.3005C147.311 12.3851 147.297 12.4436 147.268 12.5282C147.076 13.1463 146.856 13.7319 146.578 14.2914C146.529 14.4346 146.45 14.5647 146.386 14.6948C146.372 14.7338 146.358 14.7664 146.329 14.7924C146.308 14.89 146.251 14.9681 146.201 15.0527C146.152 15.1763 146.08 15.2804 146.016 15.3975C145.981 15.4626 145.952 15.5081 145.917 15.5667C145.888 15.6057 145.86 15.6512 145.832 15.6838C145.832 15.6968 145.824 15.7098 145.81 15.7228C145.81 15.7488 145.782 15.7684 145.768 15.8074C145.689 15.9375 145.611 16.0546 145.512 16.1978C145.497 16.2108 145.497 16.2368 145.469 16.2563C145.448 16.2824 145.419 16.3279 145.391 16.38C145.362 16.4125 145.327 16.4645 145.298 16.4971C145.248 16.5947 145.184 16.6792 145.12 16.7508C145.092 16.7833 145.078 16.8224 145.056 16.8549C145.028 16.8939 145 16.9265 144.978 16.9655C144.964 16.972 144.95 16.985 144.936 16.9981C144.822 17.1542 144.701 17.2973 144.573 17.4535C144.495 17.5381 144.416 17.6292 144.338 17.7137C144.04 18.0391 143.748 18.3709 143.421 18.6832C143.307 18.8003 143.179 18.9174 143.058 19.028C142.952 19.1191 142.866 19.2037 142.774 19.3013C142.617 19.4314 142.461 19.5615 142.29 19.7047C142.212 19.7632 142.148 19.8348 142.056 19.9064C141.977 19.9714 141.885 20.043 141.792 20.1016C141.536 20.3163 141.259 20.518 140.989 20.7197C140.84 20.8173 140.697 20.9214 140.555 21.006C140.413 21.1166 140.271 21.2077 140.128 21.3052C140.022 21.1491 139.929 20.9929 139.823 20.8368C139.787 20.7652 139.737 20.6936 139.68 20.6221C139.659 20.5765 139.616 20.531 139.588 20.492C139.431 20.2772 139.275 20.0625 139.111 19.8608C139.097 19.8478 139.083 19.8283 139.055 19.8153C139.019 19.7632 138.991 19.7047 138.941 19.6591C138.927 19.6461 138.912 19.6331 138.898 19.6136C138.799 19.477 138.678 19.3468 138.55 19.2297C138.521 19.1842 138.493 19.1582 138.457 19.1191C138.365 19.028 138.272 18.9434 138.144 18.8263C138.08 18.7548 138.002 18.6702 137.91 18.5986C137.895 18.5726 137.867 18.5401 137.831 18.514C137.789 18.475 137.767 18.4425 137.711 18.4034C137.703 18.3969 137.689 18.3839 137.661 18.3709C137.597 18.3253 137.547 18.2603 137.455 18.1887C137.426 18.1562 137.391 18.1302 137.362 18.1171C137.298 18.0586 137.234 18 137.163 17.9415C137.156 17.9415 137.142 17.9154 137.099 17.9154C137.049 17.8569 136.971 17.8113 136.907 17.7593C136.8 17.6812 136.694 17.6096 136.551 17.5121C136.516 17.473 136.473 17.4535 136.438 17.4145C136.381 17.3819 136.331 17.3299 136.267 17.3104C136.175 17.2518 136.082 17.1802 135.99 17.1152C135.812 16.9981 135.613 16.8809 135.435 16.7703C135.378 16.7508 135.328 16.7248 135.279 16.6857C135.2 16.6402 135.129 16.6077 135.051 16.5556C134.816 16.4255 134.582 16.2954 134.347 16.1848C134.34 16.1782 134.311 16.1652 134.297 16.1392C134.262 16.1067 134.219 16.0546 134.191 16.0091C134.183 15.9961 134.169 15.9831 134.169 15.9635C134.155 15.9375 134.141 15.9115 134.112 15.8659C134.077 15.7814 134.063 15.6838 134.063 15.6057C134.091 14.8965 134.127 14.1808 134.169 13.4586C134.262 11.3896 134.496 9.33359 134.496 7.26457C134.496 5.98282 135.584 6.3732 135.655 6.43176C135.833 6.5749 135.99 6.72454 136.061 6.93925C136.182 7.27108 136.288 7.61591 136.395 7.95424C136.438 8.09738 136.473 8.23401 136.516 8.37716C136.551 8.50728 136.594 8.65042 136.615 8.78054C136.687 8.99525 136.722 9.20996 136.751 9.42467C136.751 9.47022 136.765 9.50926 136.772 9.54179C136.772 9.58083 136.772 9.60035 136.786 9.62637C136.8 9.72396 136.815 9.79554 136.829 9.88012C136.829 9.92566 136.829 9.97121 136.843 10.0233C136.843 10.0558 136.843 10.1013 136.85 10.1404C136.85 10.1664 136.85 10.1859 136.864 10.2119C136.879 10.2835 136.893 10.3551 136.907 10.4136C136.928 10.5112 136.943 10.5958 136.985 10.6869C136.999 10.7129 136.999 10.7455 137.007 10.7845C137.021 10.8105 137.035 10.8431 137.049 10.8691C137.113 11.0448 137.191 11.2139 137.298 11.344C137.348 11.4156 137.398 11.4872 137.455 11.5457C137.504 11.5978 137.554 11.6563 137.625 11.7019C137.661 11.7474 137.711 11.7735 137.767 11.8125C137.803 11.845 137.86 11.8711 137.91 11.8906C138.038 11.9556 138.18 12.0012 138.315 12.0272C138.329 12.0272 138.336 12.0337 138.351 12.0337C138.429 12.0467 138.493 12.0597 138.571 12.0597C138.642 12.0728 138.72 12.0728 138.784 12.0728H138.927C138.962 12.0728 139.019 12.0597 139.069 12.0597C139.083 12.0597 139.097 12.0597 139.119 12.0467C139.175 12.0467 139.239 12.0337 139.318 12.0272C139.382 12.0142 139.46 12.0012 139.538 11.9752C139.602 11.9621 139.666 11.9556 139.737 11.9296C139.837 11.9036 139.944 11.8841 140.05 11.845C140.207 11.7995 140.349 11.7474 140.491 11.6889C141.48 11.3115 142.397 10.7845 143.336 10.316C143.478 10.2445 143.606 10.1859 143.748 10.1274C143.776 10.1274 143.791 10.1013 143.812 10.1013C143.869 10.0818 143.919 10.0558 143.968 10.0428C143.983 10.0298 143.997 10.0298 144.011 10.0298C144.168 9.99723 144.31 9.98422 144.452 9.97121C144.587 9.95169 144.701 9.93867 144.822 9.92566C144.886 10.0428 144.95 10.1664 145.028 10.2965C144.765 10.5112 144.509 10.7259 144.26 10.9406C144.232 10.9602 144.203 10.9732 144.196 10.9862C143.961 11.1879 143.727 11.3831 143.499 11.5718C143.044 11.9752 142.617 12.3851 142.169 12.7885C142.24 12.873 142.319 12.9446 142.404 13.0292C143.008 12.5152 143.62 12.0142 144.232 11.5132C144.36 11.4026 144.48 11.2985 144.594 11.1879C144.665 11.1293 144.729 11.0968 144.829 11.0252C144.857 10.9862 144.9 10.9602 144.95 10.9537C144.95 10.9407 144.978 10.9407 145 10.9276C145.028 10.9146 145.056 10.9016 145.092 10.8886C145.17 10.8691 145.263 10.8431 145.355 10.8561H145.419C145.561 10.8431 145.718 10.8431 145.888 10.8431C145.846 11.0252 145.846 11.2269 145.796 11.3896C145.782 11.4416 145.76 11.4872 145.718 11.5457C145.668 11.6043 145.611 11.6759 145.561 11.7474C145.497 11.858 145.419 11.9752 145.327 12.0858C145.12 12.372 144.9 12.6713 144.672 12.9641C144.509 13.1918 144.324 13.4196 144.139 13.6603C143.968 13.888 143.791 14.1222 143.606 14.363C143.656 14.4085 143.727 14.4476 143.776 14.4801C143.826 14.5191 143.89 14.5517 143.947 14.5907C144.374 14.0312 144.779 13.4456 145.22 12.9056C145.298 12.821 145.362 12.7299 145.448 12.6323C145.497 12.5868 145.533 12.5347 145.561 12.4892C145.689 12.333 145.796 12.1573 145.917 11.9752C145.981 11.8711 146.059 11.7474 146.159 11.6563C146.187 11.6173 146.23 11.5978 146.251 11.5588C146.329 11.4872 146.393 11.4286 146.472 11.3896C146.528 11.3701 146.578 11.344 146.621 11.331C146.642 11.318 146.671 11.3115 146.706 11.2985C146.813 11.2725 146.905 11.2464 147.019 11.2464C147.097 11.2464 147.19 11.2595 147.282 11.2725C147.297 11.2725 147.325 11.2725 147.36 11.2855C147.424 11.2985 147.503 11.3115 147.56 11.331C147.467 11.0578 147.325 10.817 147.09 10.6414C146.628 10.3095 146.045 10.5828 145.376 9.88012C144.729 9.19695 144.182 9.26852 143.435 9.66541C142.667 10.0688 141.856 10.4982 141.053 10.8691C140.74 11.0122 140.413 11.1423 140.086 11.2464C138.329 11.9036 137.689 11.5132 137.298 9.82807C137.035 8.66994 136.751 7.5053 136.331 6.37971C136.26 6.20404 136.103 6.0674 135.947 5.95679C135.805 5.8527 135.641 5.77462 135.471 5.71606C135.321 5.66401 135.108 5.62497 134.966 5.70304C134.809 5.77462 134.681 5.89824 134.575 6.02186C134.439 6.165 134.326 6.33416 134.262 6.51634C134.013 7.21902 133.828 7.96725 133.814 8.70897C133.778 10.1274 133.778 11.5327 133.792 12.9446C133.799 13.836 133.799 14.7469 133.799 15.6382C133.657 15.6057 132.704 16.0351 132.498 16.3539C132 17.1412 131.559 17.9675 131.154 18.8133C130.649 19.8348 129.789 20.8043 130.542 22.0665C130.649 22.2487 130.358 22.6195 130.23 22.8798C130.102 23.127 129.959 23.3678 129.81 23.5955C129.554 24.0509 129.291 24.4999 129.028 24.9553C128.95 25.0854 128.871 25.2156 128.793 25.3457C128.928 23.2506 128.793 19.7177 128.63 17.7137C128.196 12.6778 125.799 8.59836 121.454 5.50135C116.178 1.69514 110.126 0.393883 103.555 0.894871C98.2646 1.29826 94.3392 3.55595 91.8005 5.10446C90.8192 5.70304 89.7667 6.43176 88.636 7.27108C86.268 9.0408 83.8857 10.817 81.8448 12.9121C79.9603 14.851 78.4883 17.0956 77.1728 19.3924C76.5825 20.4139 75.9638 21.4159 75.2527 22.3723C74.954 22.7757 73.1762 25.2871 72.6073 25.17C71.7398 25.0008 70.858 24.7796 69.8766 24.5714C70.4526 23.9989 70.8793 23.589 71.2918 23.1596C72.458 21.9689 73.6883 20.8238 74.4705 19.3729C75.9638 16.6142 74.7194 12.9836 71.9176 11.2855C68.9237 9.47672 65.6739 9.48974 62.3956 11.0057C56.1591 13.888 50.5554 17.5901 45.734 22.2422C41.1473 26.66 37.5419 31.6373 35.6788 37.5516C34.8112 40.2907 34.2565 43.0689 34.669 45.9382C34.8183 46.9727 35.1312 47.8576 35.565 48.6254C36.4681 50.2064 37.9615 51.2409 40.102 51.7289C40.5428 51.833 40.9695 51.898 41.3962 51.9371C47.9456 52.5422 53.3288 46.3286 57.0053 42.2491C60.6889 38.1632 64.7352 33.8365 69.9477 31.3706C71.6047 30.5898 73.5531 30.0107 75.3949 30.5508C77.3648 31.1233 78.4243 32.0993 78.4243 32.0993C81.1977 34.6497 78.9719 38.3844 81.5248 42.119C82.6982 43.8237 84.1986 45.3397 86.0191 46.6604C86.0973 46.732 86.1756 46.7841 86.268 46.8426C86.3462 46.8882 86.4387 46.9467 86.5169 47.0118C87.1142 47.4282 87.74 47.8186 88.4085 48.1894C88.5365 48.261 88.6929 48.3326 88.828 48.4172C88.8352 48.4302 88.8494 48.4302 88.8636 48.4432C89.4752 48.762 90.1436 49.0873 90.805 49.3801C91.7436 49.803 92.6183 50.0502 93.493 49.276C93.5997 49.5623 93.6992 49.777 93.7774 50.0177C94.1686 51.2214 94.4175 52.4836 94.9935 53.6027C95.3206 54.2403 96.181 54.6437 96.7926 55.1317C97.0628 54.5852 97.4539 54.0451 97.5606 53.4726C97.8095 52.2819 97.902 51.0652 98.0584 49.8811C99.7011 50.3625 101.237 50.8115 102.866 51.2799C102.46 51.7354 102.069 52.1648 101.692 52.6137C100.91 53.5246 100.106 54.429 99.3242 55.3464C98.6273 56.1727 99.0895 57.4089 100.206 57.6301C100.22 57.6366 100.227 57.6366 100.234 57.6366C100.298 57.6496 100.348 57.6627 100.405 57.6757C100.647 57.7212 103.548 53.3425 103.555 53.3294C104.103 52.4966 104.899 51.5077 106.044 51.4361C106.293 51.4231 106.542 51.4361 106.777 51.4686C107.026 51.5207 107.26 51.5988 107.467 51.4101C107.495 51.3775 107.523 51.345 107.545 51.306C107.609 51.2149 107.666 51.1108 107.765 51.0522C107.651 51.0782 107.559 51.0197 107.452 51.0197C107.31 50.9937 107.196 50.9676 107.047 50.9546C106.819 50.9351 106.578 50.9091 106.35 50.8961C103.456 50.8505 100.647 50.3951 98.0655 49.1589C93.5286 46.9597 91.8005 42.7046 93.6779 38.3258C93.9126 37.7533 93.9908 37.2783 93.4432 36.8814C93.2939 36.7773 93.1659 36.6667 93.0379 36.5626C92.4334 36.0356 91.9428 35.4891 91.5659 34.8905C91.3312 34.5456 91.1463 34.1878 90.9614 33.7844C90.7836 33.3745 90.6343 32.9451 90.5205 32.5027C90.3925 32.0667 90.2858 31.6243 90.2218 31.1428C90.0369 30.0368 89.9445 28.8786 89.8449 27.701C90.5063 28.2735 91.0396 28.7355 91.5659 29.1909C91.6299 29.2495 91.6939 29.295 91.7579 29.3471C92.213 29.6529 92.6183 29.5683 93.0734 29.1389C93.8201 28.3906 94.6379 27.701 95.9037 27.6749C95.9677 27.8897 96.0246 28.1044 96.0886 28.3061C96.1526 28.5208 96.2024 28.7225 96.2593 28.9372C96.3375 29.2104 96.4228 29.4772 96.5437 29.7244C97.0273 30.811 97.7455 30.9411 98.67 30.1539C99.63 29.308 100.234 28.3191 100.661 27.2455C100.768 27.0048 100.86 26.7771 100.924 26.5298C101.038 26.185 101.116 25.8467 101.194 25.5148C101.251 25.3457 101.273 25.196 101.315 25.0269C101.351 24.8382 101.394 24.669 101.429 24.4803C101.522 24.0509 101.6 23.6085 101.678 23.1661C101.877 22.125 102.048 21.1035 102.204 20.0495C102.29 19.4444 102.602 19.1712 103.242 19.0996C105.867 18.8133 108.469 18.9109 111.015 19.6071C111.179 19.6526 111.314 19.7632 111.378 19.9064C111.705 20.6221 112.032 21.3508 112.316 22.0925C112.551 22.639 112.772 23.1921 112.992 23.7386C113.02 23.7972 113.049 23.8687 113.07 23.9273L113.205 24.2526C113.284 24.4803 113.362 24.682 113.44 24.9098C113.461 24.9553 113.49 25.0139 113.504 25.0594C113.753 25.7165 114.002 26.3737 114.272 27.0178C114.471 27.5188 114.663 28.0068 114.898 28.4947C116.491 31.826 118.169 35.1052 119.812 38.4104C120.011 38.8008 120.139 39.2432 120.011 39.6726C119.933 39.9719 119.719 40.2127 119.541 40.4599C119.186 40.9479 118.887 41.4749 118.539 41.9759C118.368 42.2231 118.169 42.4769 118.055 42.7501C117.913 43.0624 117.92 43.3617 117.899 43.6805C117.884 43.9668 117.87 44.2531 117.87 44.5394C117.842 45.1119 117.856 45.6715 117.963 46.231C118.112 47.0703 118.389 47.8641 118.802 48.5993C119.214 49.3411 119.762 50.0242 120.437 50.6098C120.594 50.7399 120.75 50.8766 120.921 50.9937C121.17 51.1823 121.433 51.3645 121.703 51.5272C121.981 51.7094 122.251 51.8655 122.528 52.0087C122.72 52.1128 122.926 52.2234 123.14 52.3145C123.36 52.4251 123.566 52.5227 123.787 52.6137C123.936 52.6853 124.093 52.7439 124.249 52.7959C124.363 52.8415 124.469 52.887 124.583 52.926C124.832 52.9976 125.081 53.0692 125.33 53.1017C125.422 53.1277 125.522 53.1538 125.629 53.1668C125.927 53.2123 126.461 52.6853 126.681 52.5227C128.395 51.2344 129.476 49.4777 130.35 47.6429C130.493 47.3436 130.635 47.0183 130.763 46.732C130.976 46.3026 131.168 45.8667 131.367 45.4373C131.73 44.5784 132.093 43.6936 132.448 42.7892C132.562 42.5224 132.669 42.2491 132.775 41.9629C132.839 41.8197 132.889 41.6636 132.932 41.5204C132.939 41.5139 132.939 41.4879 132.953 41.4749C133.231 40.7852 133.479 40.089 133.735 39.3864C134.262 37.942 134.781 36.5106 135.3 35.0727C136.032 32.9581 136.63 30.811 137.547 28.7485C137.782 28.2215 138.016 27.7205 138.287 27.2065C138.407 27.0048 138.706 26.3997 139.033 25.7426C139.396 25.0139 139.773 24.2006 139.894 23.8362C140.057 23.3092 140.207 22.7692 140.37 22.2487C140.413 22.125 140.448 21.8388 140.541 21.7672C141.195 21.2207 141.792 20.7067 142.418 20.2187C143.229 19.6331 143.919 18.976 144.559 18.2733C145.561 17.1672 147.424 15.365 147.638 12.8925C147.673 12.4761 147.723 11.8711 147.56 11.344Z" fill="#341217"/>
<path d="M140.135 22.1412C140.135 22.2258 140.042 22.4145 139.907 22.6878C139.886 22.7853 139.829 22.8829 139.779 22.974V22.987C139.743 23.0456 139.715 23.1172 139.672 23.1887C139.544 23.4685 139.388 23.7613 139.217 24.0866C139.182 24.1452 139.139 24.2167 139.103 24.2883C139.075 24.3469 139.039 24.4184 138.997 24.49C138.968 24.5616 138.919 24.6331 138.883 24.7177C138.812 24.8479 138.748 24.978 138.67 25.1211C138.606 25.2317 138.556 25.3358 138.492 25.4464C138.435 25.544 138.385 25.6351 138.343 25.7197C137.994 26.3638 137.695 26.9234 137.539 27.2097C137.432 27.3918 137.326 27.5805 137.212 27.7497V27.7627H137.198V27.7497C137.027 27.6196 136.856 27.4959 136.693 27.3788C136.586 27.3073 136.479 27.2357 136.387 27.1511C136.287 27.0665 136.166 26.9819 136.067 26.9234C135.448 26.4744 134.865 26.032 134.289 25.5505C134.225 25.492 134.147 25.4334 134.083 25.3619C134.005 25.3033 133.926 25.2317 133.848 25.1602C133.756 25.1016 133.678 25.017 133.585 24.9455C133.521 24.8739 133.457 24.8153 133.393 24.7568V24.7438C133.329 24.6917 133.272 24.6462 133.222 24.5876C133.116 24.503 133.016 24.3989 132.924 24.2883C132.924 24.2883 132.924 24.2753 132.91 24.2623L132.846 24.2037C132.803 24.1712 132.767 24.1191 132.71 24.0736C132.689 24.0411 132.646 23.989 132.611 23.9435C132.554 23.8979 132.504 23.8329 132.454 23.7613C132.398 23.7027 132.348 23.6572 132.312 23.5856C132.241 23.5271 132.177 23.4555 132.127 23.3709C132.099 23.3319 132.078 23.3124 132.063 23.2733C132.035 23.2733 132.035 23.2733 132.035 23.2603C131.878 23.0716 131.736 22.8699 131.615 22.6552C131.58 22.6097 131.551 22.5446 131.516 22.4861C131.459 22.4015 131.423 22.3104 131.381 22.1998C131.381 22.1868 131.374 22.1868 131.374 22.1803C131.331 22.0566 131.295 21.9395 131.267 21.8289C131.253 21.7378 131.238 21.6663 131.238 21.5687C131.238 21.5101 131.238 21.4515 131.253 21.3995V21.393C131.253 21.38 131.253 21.38 131.267 21.367C131.267 21.3279 131.281 21.2954 131.295 21.2499C131.317 21.1978 131.345 21.1523 131.374 21.0937C131.615 20.4821 131.907 19.8965 132.22 19.3045C132.319 19.1028 132.426 18.9076 132.518 18.7059C132.547 18.6798 132.554 18.6343 132.568 18.6083C132.846 18.0878 133.116 17.5738 133.379 17.0468H133.393C133.414 17.0468 133.443 17.0598 133.486 17.0728C133.507 17.0728 133.55 17.0858 133.599 17.1053C133.628 17.1183 133.678 17.1313 133.72 17.1444C133.877 17.2029 134.069 17.2745 134.254 17.3461C134.289 17.3721 134.346 17.3916 134.382 17.4046C134.424 17.4176 134.474 17.4436 134.51 17.4632H134.538C134.581 17.4762 134.602 17.5022 134.63 17.5022C134.666 17.5282 134.709 17.5347 134.737 17.5477C134.758 17.5477 134.787 17.5608 134.787 17.5738C134.815 17.5738 134.837 17.5868 134.851 17.5998C134.879 17.5998 134.894 17.6063 134.915 17.6193C135.1 17.7039 135.285 17.7755 135.462 17.8731C135.683 17.9772 135.91 18.0878 136.117 18.2179C136.479 18.4196 136.849 18.6473 137.183 18.8881V18.8946C137.326 18.9922 137.475 19.1028 137.617 19.2069C137.731 19.3045 137.852 19.3955 137.966 19.4931C138.122 19.6233 138.279 19.7534 138.421 19.8965C138.762 20.2219 139.075 20.5667 139.374 20.9245C139.402 20.9506 139.438 20.9961 139.466 21.0221C139.587 21.1783 139.715 21.3279 139.829 21.4971C139.907 21.6077 139.999 21.6988 140.056 21.8224C140.078 21.8549 140.106 21.881 140.106 21.9005V21.9265L140.12 21.9395C140.135 21.9525 140.135 21.9655 140.12 21.9655C140.142 22.0241 140.142 22.0827 140.135 22.1412Z" fill="#E1B196"/>
<path d="M117.228 42.7373C117.236 42.7373 117.236 42.7373 117.236 42.7297C117.219 42.7449 117.211 42.7525 117.194 42.7601C117.211 42.7525 117.219 42.7449 117.228 42.7373Z" fill="#363794"/>
<path d="M121.466 20.116C121.242 19.4003 121.04 18.6768 120.776 17.9728C119.35 14.1653 117.413 10.6506 113.929 8.02659C112.018 6.58804 109.827 5.85803 107.366 5.90553C106.997 5.91268 106.409 6.30827 106.322 6.61797C106.139 7.27316 106.743 7.30504 107.313 7.34343C108.196 7.40263 109.092 7.47681 109.946 7.6772C113.976 8.62257 116.573 11.1841 118.486 14.3644C119.639 16.2818 120.504 18.345 121.457 20.2592C121.458 20.2474 121.485 20.1759 121.466 20.116Z" fill="#341217"/>
<path d="M108.73 29.0993C108.687 29.1449 108.644 29.1839 108.623 29.2034C108.438 29.3986 108.218 29.5743 107.947 29.6589C107.642 29.75 107.293 29.7109 107.002 29.5873C106.703 29.4637 106.447 29.262 106.226 29.0473C105.501 28.3186 105.082 27.3426 104.961 26.3667C104.954 26.3407 104.954 26.3146 104.954 26.2886C104.868 25.5599 104.982 24.7531 105.394 24.1155C105.615 23.7837 105.942 23.4844 106.362 23.4128C106.675 23.3543 107.009 23.4323 107.286 23.5755C107.45 23.6535 107.599 23.7642 107.741 23.8813C107.812 23.9398 107.883 24.0049 107.947 24.0699C107.969 24.083 108.075 24.2261 108.104 24.2261C107.969 24.2391 107.848 24.2456 107.72 24.2586C107.279 24.2912 106.767 24.4148 106.454 24.7206C106.113 25.0589 106.063 25.5664 106.098 26.0218C106.162 26.9002 106.497 27.8046 107.229 28.3706C107.492 28.5723 107.798 28.722 108.118 28.8131C108.289 28.8586 108.459 28.8911 108.63 28.9042C108.687 28.9107 108.815 28.9042 108.822 28.9692C108.822 29.0018 108.779 29.0538 108.73 29.0993ZM109.633 26.1845C109.562 25.7746 109.434 25.3842 109.27 25.0264C109.135 24.7271 108.993 24.4473 108.801 24.2001C108.609 23.9333 108.388 23.6796 108.139 23.4779C108.075 23.4258 108.011 23.3803 107.947 23.3412C107.819 23.2371 107.691 23.1591 107.563 23.0875H107.556C106.746 22.6776 105.992 22.7752 105.409 23.3738C105.302 23.4779 105.195 23.6015 105.103 23.7446C105.032 23.8357 104.975 23.9463 104.918 24.0504C104.79 24.2912 104.698 24.5319 104.626 24.7791C104.541 25.0524 104.498 25.3257 104.484 25.612C104.449 26.0284 104.491 26.4513 104.591 26.8742C104.676 27.2841 104.826 27.694 105.01 28.0974C105.65 29.5158 106.895 30.4006 107.926 30.2119C109.05 30.0167 109.768 28.7935 109.739 27.1605C109.732 26.8286 109.697 26.4968 109.633 26.1845Z" fill="#341217"/>
<path d="M97.3735 37.7945C97.1388 37.827 96.9112 37.7424 96.7121 37.6253C96.3779 37.4432 96.1148 37.1699 95.9085 36.8706C95.3183 36.0183 95.0481 34.8341 95.4677 33.8712C95.4961 33.8061 95.5245 33.741 95.5601 33.6825C95.6454 33.5198 95.7592 33.3702 95.9014 33.2531C96.0508 33.136 96.2286 33.0514 96.4206 33.0254C96.6623 32.9993 96.9112 33.0774 97.1175 33.1945C97.2241 33.2596 97.3308 33.3377 97.4232 33.4222C97.4943 33.4808 97.6366 33.5719 97.665 33.663C97.4161 33.689 97.1601 33.6955 96.9183 33.7671C96.7192 33.8191 96.5343 33.9102 96.4063 34.0468C96.1859 34.2811 96.1432 34.6129 96.1503 34.9187C96.1859 35.8686 96.7121 36.8901 97.8001 37.1439C97.9495 37.1764 98.0988 37.1894 98.2553 37.1959C98.2268 37.2415 98.1841 37.287 98.1415 37.3325C97.9495 37.5538 97.6579 37.762 97.3735 37.7945ZM97.7006 33.0904C96.7548 32.3162 95.809 32.4788 95.2614 33.5198C94.7352 34.5413 94.8845 35.5628 95.3325 36.5648C95.8161 37.6383 96.7548 38.302 97.5441 38.1654C98.3761 38.0157 98.9237 37.1048 98.9024 35.8621C98.8881 34.756 98.4188 33.689 97.7006 33.0904Z" fill="#341217"/>
<path d="M112.708 43.7173C109.971 46.2287 106.564 46.2678 105.825 46.2482L105.946 45.5325C106.059 44.8494 106.23 44.2443 106.458 43.6912C106.685 43.1577 106.962 42.6763 107.311 42.2143C107.93 41.388 108.726 40.4771 109.871 39.9176C111.315 39.2149 112.637 38.831 113.917 38.7399L114.045 38.7269C114.116 38.7204 114.195 38.7139 114.273 38.7074C114.372 38.7009 114.479 38.6944 114.579 38.6814C114.657 39.4426 114.721 41.876 112.708 43.7173ZM105.633 42.0842C105.562 42.1232 105.505 42.1557 105.434 42.1883C105.277 42.2729 105.106 42.3509 104.936 42.4095C104.865 42.4355 104.808 42.4615 104.737 42.4811C104.594 42.5396 104.438 42.5852 104.289 42.6112C104.232 42.6242 104.189 42.6372 104.139 42.6437C104.09 42.6502 104.04 42.6697 103.99 42.6763C103.947 42.6893 103.905 42.7023 103.862 42.7088C103.798 42.7153 103.748 42.7283 103.691 42.7283C103.627 42.7478 103.563 42.7543 103.499 42.7608C103.464 42.7673 103.421 42.7673 103.393 42.7673H103.386C103.357 42.7804 103.35 42.7804 103.322 42.7804C103.307 42.7804 103.3 42.7869 103.286 42.7869C103.222 42.7934 103.151 42.7999 103.087 42.7999V42.7869C103.215 42.4876 103.35 42.1948 103.499 41.915C103.506 41.8955 103.521 41.876 103.528 41.863C103.578 41.7719 103.62 41.6743 103.677 41.5832C103.677 41.5702 103.684 41.5637 103.691 41.5507C103.72 41.4856 103.755 41.414 103.798 41.349C103.834 41.2969 103.869 41.2318 103.89 41.1798C103.954 41.0757 104.018 40.9716 104.09 40.8675C104.104 40.848 104.111 40.8285 104.125 40.8089C104.175 40.7309 104.232 40.6463 104.289 40.5617C104.324 40.5096 104.36 40.4576 104.395 40.399C104.495 40.2494 104.594 40.0997 104.701 39.9566C104.73 39.9111 104.765 39.872 104.794 39.833C104.836 39.7744 104.879 39.7159 104.922 39.6573C104.943 39.6378 104.957 39.6183 104.971 39.5988C105.071 39.4686 105.163 39.345 105.263 39.2214C105.327 39.1498 105.398 39.0782 105.462 39.0067C105.59 38.8505 105.718 38.7009 105.853 38.5577C105.896 38.5187 105.924 38.4732 105.967 38.4341C106.031 38.3625 106.102 38.2845 106.18 38.2129C106.322 38.0698 106.458 37.9266 106.607 37.7835C106.607 37.777 106.607 37.777 106.614 37.7705L106.785 37.6143C106.792 37.6013 106.806 37.5818 106.827 37.5753C106.884 37.5167 106.948 37.4582 107.012 37.4061L107.041 37.3801C107.133 37.289 107.226 37.2044 107.325 37.1263C107.339 37.1133 107.346 37.1068 107.361 37.1003C107.425 37.0418 107.496 36.9767 107.567 36.9181V36.9116C107.567 36.9051 107.574 36.8986 107.581 36.8986C107.588 36.8986 107.588 36.8986 107.588 36.8921C107.61 36.8791 107.638 36.8596 107.659 36.8401L107.709 36.7945C107.809 36.7099 107.908 36.6254 108.008 36.5473C108.029 36.5213 108.043 36.5082 108.072 36.5017L108.25 36.3586L108.264 36.3456C108.385 36.2415 108.513 36.1439 108.641 36.0528C108.74 35.9747 108.847 35.9032 108.954 35.8316C109.053 35.7535 109.146 35.6754 109.245 35.5974C109.259 35.6234 109.259 35.6559 109.267 35.6819C109.288 35.747 109.309 35.8121 109.323 35.8771C109.331 35.9097 109.331 35.9422 109.338 35.9747C109.366 36.1114 109.387 36.248 109.395 36.3911C109.402 36.4302 109.416 36.4692 109.416 36.5147C109.416 36.5473 109.409 36.5863 109.416 36.6188C109.416 36.7555 109.409 36.8921 109.395 37.0287V37.1784C109.387 37.2304 109.373 37.2825 109.366 37.3345V37.3736C109.359 37.3866 109.359 37.3996 109.359 37.4126C109.331 37.5623 109.295 37.7119 109.252 37.8551C109.245 37.8811 109.238 37.9006 109.231 37.9266C109.224 37.9592 109.217 37.9852 109.203 38.0177C109.188 38.0828 109.167 38.1413 109.146 38.2064C109.103 38.3235 109.06 38.4341 109.011 38.5512C109.003 38.5512 109.003 38.5577 109.003 38.5577C108.996 38.5773 108.989 38.5903 108.982 38.6098C108.911 38.7594 108.833 38.9156 108.755 39.0652C108.747 39.0782 108.74 39.0848 108.733 39.0913C108.691 39.1758 108.634 39.2539 108.584 39.3385C108.541 39.4166 108.498 39.4947 108.442 39.5727C108.434 39.5792 108.434 39.5857 108.427 39.5988C108.413 39.6183 108.392 39.6443 108.378 39.6703C108.349 39.7094 108.321 39.7419 108.299 39.7809C108.264 39.833 108.228 39.885 108.193 39.9306C108.136 40.0021 108.079 40.0672 108.022 40.1323C107.986 40.1713 107.951 40.2169 107.915 40.2624C107.887 40.2949 107.851 40.334 107.823 40.3665C107.773 40.4186 107.73 40.4771 107.688 40.5227C107.652 40.5617 107.617 40.5877 107.581 40.6268C107.453 40.7504 107.325 40.874 107.19 40.9976C107.154 41.0301 107.126 41.0627 107.09 41.0952C107.069 41.1147 107.041 41.1277 107.019 41.1473C106.927 41.2318 106.82 41.3099 106.714 41.3945C106.642 41.4466 106.578 41.5051 106.507 41.5507C106.493 41.5637 106.465 41.5767 106.45 41.6027C106.415 41.6222 106.372 41.6548 106.337 41.6808C106.322 41.6873 106.315 41.6938 106.294 41.7003C106.28 41.7068 106.266 41.7198 106.251 41.7263C106.223 41.7458 106.187 41.7719 106.152 41.7979C106.102 41.8239 106.038 41.8565 105.981 41.889C105.967 41.902 105.938 41.9215 105.917 41.928C105.896 41.9345 105.882 41.941 105.867 41.954C105.796 41.9931 105.725 42.0386 105.654 42.0712C105.647 42.0777 105.64 42.0777 105.633 42.0842ZM115.219 38.3886C115.197 38.2259 115.176 38.0568 115.147 37.8941C115.048 37.2955 114.863 36.7099 114.714 36.1179L114.664 35.9032C114.394 34.8361 114.138 33.9122 113.875 33.0664C113.747 32.6565 113.498 32.3767 113.178 32.2726C112.851 32.175 112.481 32.2596 112.09 32.5199C107.709 35.4802 103.407 38.9807 101.615 44.485C101.43 45.0706 101.437 45.487 101.65 45.7993C101.871 46.1376 102.283 46.2808 102.682 46.3653C104.31 46.6972 105.91 46.9769 107.574 46.7362C109.082 46.5215 110.532 46.001 111.784 45.2007C112.282 44.8884 112.744 44.5306 113.171 44.1402C113.668 43.6847 114.095 43.1577 114.422 42.5917C114.699 42.0972 114.913 41.5702 115.048 41.0301C115.169 40.5812 115.233 40.1258 115.261 39.6638C115.283 39.2409 115.261 38.8115 115.219 38.3886Z" fill="#670B11"/>
<path d="M112.715 43.7218C109.977 46.2332 106.571 46.2722 105.831 46.2527L105.952 45.537C106.066 44.8539 106.236 44.2488 106.464 43.6957C106.691 43.1622 106.969 42.6807 107.317 42.2188C107.936 41.3925 108.732 40.4816 109.877 39.922C111.321 39.2194 112.644 38.8355 113.924 38.7444L114.052 38.7314C114.123 38.7249 114.201 38.7184 114.279 38.7119C114.379 38.7054 114.485 38.6989 114.585 38.6858C114.663 39.4471 114.727 41.8805 112.715 43.7218Z" fill="#9B1D20"/>
<path d="M109.415 36.5169C109.415 36.5494 109.408 36.5884 109.415 36.621C109.415 36.7576 109.408 36.8942 109.394 37.0309V37.1805C109.387 37.2326 109.373 37.2846 109.365 37.3367V37.3757C109.358 37.3887 109.358 37.4017 109.358 37.4148C109.33 37.5644 109.294 37.714 109.252 37.8572C109.245 37.8832 109.237 37.9027 109.23 37.9288C109.223 37.9613 109.216 37.9873 109.202 38.0198C109.188 38.0849 109.166 38.1435 109.145 38.2085C109.102 38.3256 109.06 38.4362 109.01 38.5534C109.003 38.5534 109.003 38.5599 109.003 38.5599C108.996 38.5794 108.989 38.5924 108.981 38.6119C108.91 38.7616 108.832 38.9177 108.754 39.0674C108.747 39.0804 108.74 39.0869 108.733 39.0934C108.69 39.178 108.633 39.256 108.583 39.3406C108.541 39.4187 108.498 39.4968 108.441 39.5749C108.434 39.5814 108.434 39.5879 108.427 39.6009C108.413 39.6204 108.391 39.6464 108.377 39.6725C108.349 39.7115 108.32 39.744 108.299 39.7831C108.263 39.8351 108.228 39.8872 108.192 39.9327C108.135 40.0043 108.078 40.0693 108.021 40.1344C107.986 40.1734 107.95 40.219 107.915 40.2645C107.886 40.2971 107.851 40.3361 107.822 40.3686C107.773 40.4207 107.73 40.4792 107.687 40.5248C107.652 40.5638 107.616 40.5898 107.581 40.6289C107.453 40.7525 107.325 40.8761 107.189 40.9997C107.154 41.0323 107.125 41.0648 107.09 41.0973C107.069 41.1169 107.04 41.1299 107.019 41.1494C106.926 41.234 106.82 41.3121 106.713 41.3966C106.642 41.4487 106.578 41.5072 106.507 41.5528C106.493 41.5658 106.464 41.5788 106.45 41.6048C106.414 41.6244 106.372 41.6569 106.336 41.6829C106.322 41.6894 106.315 41.6959 106.293 41.7024C106.279 41.7089 106.265 41.722 106.251 41.7285C106.222 41.748 106.187 41.774 106.151 41.8C106.101 41.8261 106.037 41.8586 105.981 41.8911C105.966 41.9041 105.938 41.9236 105.917 41.9302C105.895 41.9367 105.881 41.9432 105.867 41.9562C105.796 41.9952 105.725 42.0408 105.653 42.0733C105.646 42.0798 105.639 42.0798 105.632 42.0863C105.561 42.1253 105.504 42.1579 105.433 42.1904C105.277 42.275 105.106 42.3531 104.935 42.4116C104.864 42.4376 104.807 42.4637 104.736 42.4832C104.594 42.5417 104.437 42.5873 104.288 42.6133C104.231 42.6263 104.189 42.6393 104.139 42.6458C104.089 42.6524 104.039 42.6719 103.989 42.6784C103.947 42.6914 103.904 42.7044 103.861 42.7109C103.797 42.7174 103.748 42.7304 103.691 42.7304C103.627 42.75 103.563 42.7565 103.499 42.763C103.463 42.7695 103.421 42.7695 103.392 42.7695H103.385C103.356 42.7825 103.349 42.7825 103.321 42.7825C103.307 42.7825 103.3 42.789 103.285 42.789C103.221 42.7955 103.15 42.802 103.086 42.802V42.789C103.214 42.4897 103.349 42.1969 103.499 41.9171C103.506 41.8976 103.52 41.8781 103.527 41.8651C103.577 41.774 103.62 41.6764 103.677 41.5853C103.677 41.5723 103.684 41.5658 103.691 41.5528C103.719 41.4877 103.755 41.4162 103.797 41.3511C103.833 41.299 103.869 41.234 103.89 41.1819C103.954 41.0778 104.018 40.9737 104.089 40.8696C104.103 40.8501 104.11 40.8306 104.125 40.8111C104.174 40.733 104.231 40.6484 104.288 40.5638C104.324 40.5118 104.359 40.4597 104.395 40.4012C104.494 40.2515 104.594 40.1019 104.701 39.9587C104.729 39.9132 104.765 39.8741 104.793 39.8351C104.836 39.7766 104.878 39.718 104.921 39.6594C104.942 39.6399 104.957 39.6204 104.971 39.6009C105.07 39.4708 105.163 39.3471 105.262 39.2235C105.326 39.1519 105.397 39.0804 105.461 39.0088C105.589 38.8527 105.717 38.703 105.853 38.5599C105.895 38.5208 105.924 38.4753 105.966 38.4362C106.03 38.3647 106.101 38.2866 106.18 38.215C106.322 38.0719 106.457 37.9288 106.606 37.7856C106.606 37.7791 106.606 37.7791 106.613 37.7726L106.784 37.6165C106.791 37.6034 106.805 37.5839 106.827 37.5774C106.884 37.5189 106.948 37.4603 107.012 37.4082L107.04 37.3822C107.133 37.2911 107.225 37.2066 107.325 37.1285C107.339 37.1155 107.346 37.109 107.36 37.1024C107.424 37.0439 107.495 36.9788 107.566 36.9203V36.9138C107.566 36.9073 107.573 36.9008 107.581 36.9008C107.588 36.9008 107.588 36.9008 107.588 36.8942C107.609 36.8812 107.637 36.8617 107.659 36.8422L107.709 36.7967C107.808 36.7121 107.908 36.6275 108.007 36.5494C108.029 36.5234 108.043 36.5104 108.071 36.5039L108.249 36.3607L108.263 36.3477C108.384 36.2436 108.512 36.146 108.64 36.0549C108.74 35.9769 108.846 35.9053 108.953 35.8337C109.053 35.7556 109.145 35.6776 109.245 35.5995C109.259 35.6255 109.259 35.658 109.266 35.6841C109.287 35.7491 109.309 35.8142 109.323 35.8793C109.33 35.9118 109.33 35.9443 109.337 35.9769C109.365 36.1135 109.387 36.2501 109.394 36.3933C109.401 36.4323 109.415 36.4713 109.415 36.5169Z" fill="white"/>
<path d="M99.8289 37.0725C99.8858 37.9834 100.284 38.9008 100.753 39.7856C100.014 39.0699 99.4378 38.146 99.3453 37.092C99.1676 35.9664 100.234 34.7823 101.5 35.3158C100.341 35.3288 99.7934 36.1031 99.8289 37.0725Z" fill="#363794"/>
<path d="M104.085 32.9033C104.107 33.1115 103.986 33.2612 103.765 33.3132C103.474 33.3848 103.282 33.2286 103.239 32.9879C103.196 32.7537 103.36 32.578 103.602 32.4934C103.9 32.5129 104.064 32.6431 104.085 32.9033Z" fill="#D7BA2C"/>
<path d="M106.895 31.3474C106.881 31.5816 106.696 31.7247 106.433 31.7443C106.184 31.6792 105.999 31.5621 106.02 31.3018C106.042 31.0611 106.212 30.9049 106.483 30.9245C106.739 30.944 106.916 31.1131 106.895 31.3474Z" fill="#D7BA2C"/>
<path d="M104.235 31.771C104.129 31.7645 103.972 31.6083 103.944 31.4977C103.887 31.309 104.036 31.1464 104.242 31.1399C104.356 31.1399 104.47 31.283 104.527 31.3221C104.569 31.6214 104.449 31.771 104.235 31.771Z" fill="#D7BA2C"/>
<path d="M115.261 39.6625C115.233 40.1245 115.169 40.5799 115.048 41.0289C114.913 41.5689 114.7 42.0959 114.422 42.5904C114.095 43.1564 113.668 43.6835 113.171 44.1389C112.744 44.5293 112.282 44.8871 111.784 45.1994C110.532 45.9997 109.082 46.5202 107.574 46.7349C105.91 46.9757 104.31 46.6959 102.682 46.3641C102.283 46.2795 101.871 46.1363 101.65 45.798C101.437 45.4857 101.43 45.0693 101.615 44.4837C103.407 38.9794 107.709 35.479 112.09 32.5186C112.481 32.2583 112.851 32.1737 113.178 32.2713C113.498 32.3754 113.747 32.6552 113.875 33.0651C114.138 33.9109 114.394 34.8348 114.664 35.9019L114.714 36.1166C114.863 36.7087 115.048 37.2942 115.148 37.8928C115.176 38.0555 115.197 38.2246 115.219 38.3873C115.261 38.8102 115.283 39.2396 115.261 39.6625ZM97.5402 38.1661C96.7508 38.3027 95.8121 37.6391 95.3286 36.5655C94.8806 35.5635 94.7312 34.5421 95.2575 33.5206C95.805 32.4795 96.7508 32.3169 97.6966 33.0911C98.4149 33.6897 98.8842 34.7568 98.8984 35.8628C98.9197 37.1055 98.3722 38.0164 97.5402 38.1661ZM104.623 24.776C104.694 24.5288 104.787 24.2881 104.915 24.0473C104.971 23.9432 105.028 23.8326 105.099 23.7415C105.192 23.5984 105.299 23.4748 105.405 23.3707C105.988 22.7721 106.742 22.6745 107.553 23.0844H107.56C107.688 23.156 107.816 23.234 107.944 23.3381C108.008 23.3772 108.072 23.4227 108.136 23.4748C108.385 23.6765 108.605 23.9302 108.797 24.197C108.989 24.4442 109.131 24.724 109.267 25.0233C109.43 25.3811 109.558 25.7715 109.629 26.1814C109.693 26.4937 109.729 26.8255 109.736 27.1574C109.764 28.7905 109.046 30.0136 107.923 30.2088C106.891 30.3975 105.647 29.5127 105.007 28.0943C104.822 27.6909 104.673 27.281 104.587 26.8711C104.488 26.4482 104.445 26.0253 104.481 25.6089C104.495 25.3226 104.538 25.0493 104.623 24.776ZM119.813 38.4068C118.17 35.1016 116.492 31.8224 114.899 28.4912C114.664 28.0032 114.472 27.5152 114.273 27.0142C114.003 26.3701 113.754 25.713 113.505 25.0558C113.491 25.0103 113.462 24.9517 113.441 24.9062C113.363 24.6784 113.284 24.4768 113.206 24.249L113.071 23.9237C113.05 23.8652 113.021 23.7936 112.993 23.735C112.772 23.1885 112.552 22.6355 112.317 22.0889C112.033 21.3472 111.706 20.6185 111.379 19.9028C111.315 19.7597 111.179 19.6491 111.016 19.6035C108.47 18.9073 105.867 18.8097 103.243 19.096C102.603 19.1676 102.29 19.4408 102.205 20.0459C102.049 21.1 101.878 22.1215 101.679 23.1625C101.601 23.6049 101.522 24.0473 101.43 24.4768C101.394 24.6654 101.352 24.8346 101.316 25.0233C101.274 25.1924 101.252 25.3421 101.195 25.5113C101.117 25.8431 101.039 26.1814 100.925 26.5262C100.861 26.7735 100.769 27.0012 100.662 27.2419C100.235 28.3155 99.6309 29.3045 98.6709 30.1503C97.7464 30.9375 97.0282 30.8074 96.5446 29.7209C96.4237 29.4736 96.3384 29.2069 96.2602 28.9336C96.2033 28.7189 96.1535 28.5172 96.0895 28.3025C96.0255 28.1008 95.9686 27.8861 95.9046 27.6714C94.6388 27.6974 93.821 28.3871 93.0743 29.1353C92.6192 29.5647 92.2139 29.6493 91.7587 29.3435C91.6947 29.2914 91.6307 29.2459 91.5667 29.1873C91.0405 28.7319 90.5072 28.2699 89.8458 27.6974C89.9454 28.875 90.0378 30.0332 90.2227 31.1392C90.2867 31.6207 90.3934 32.0631 90.5214 32.4991C90.6352 32.9415 90.7845 33.3709 90.9623 33.7808C91.1472 34.1842 91.3321 34.5421 91.5667 34.8869C91.9436 35.4855 92.4343 36.032 93.0388 36.559C93.1668 36.6631 93.2948 36.7737 93.4441 36.8778C93.9917 37.2747 93.9134 37.7497 93.6788 38.3222C91.8014 42.701 93.5294 46.9561 98.0664 49.1553C100.648 50.3915 103.457 50.8469 106.351 50.8925C106.579 50.9055 106.82 50.9315 107.048 50.951C107.197 50.964 107.311 50.9901 107.453 51.0161C107.56 51.0161 107.652 51.0746 107.766 51.0486C107.667 51.1072 107.61 51.2113 107.546 51.3024C108.996 51.3284 114.081 51.1918 118.803 48.5957C118.39 47.8605 118.113 47.0667 117.964 46.2274C117.857 45.6679 117.843 45.1083 117.871 44.5358C117.871 44.2495 117.885 43.9632 117.9 43.6769C117.921 43.3581 117.914 43.0588 118.056 42.7465C118.17 42.4733 118.369 42.2195 118.54 41.9723C118.888 41.4713 119.187 40.9443 119.542 40.4563C119.72 40.2091 119.933 39.9683 120.012 39.669C120.14 39.2396 120.012 38.7972 119.813 38.4068Z" fill="#E1B196"/>
<path d="M106.895 31.3474C106.881 31.5816 106.696 31.7247 106.433 31.7443C106.184 31.6792 105.999 31.5621 106.02 31.3018C106.042 31.0611 106.212 30.9049 106.483 30.9245C106.739 30.944 106.916 31.1131 106.895 31.3474Z" fill="#341217"/>
<path d="M104.242 31.1399C104.356 31.1399 104.47 31.283 104.527 31.3221C104.569 31.6214 104.449 31.771 104.235 31.771C104.129 31.7645 103.972 31.6083 103.944 31.4977C103.887 31.309 104.036 31.1464 104.242 31.1399Z" fill="#341217"/>
<path d="M103.602 32.4934C103.9 32.5129 104.064 32.6431 104.085 32.9033C104.107 33.1115 103.986 33.2612 103.765 33.3132C103.474 33.3848 103.282 33.2286 103.239 32.9879C103.196 32.7537 103.36 32.578 103.602 32.4934Z" fill="#341217"/>
<path d="M99.3453 37.092C99.1676 35.9664 100.234 34.7823 101.5 35.3158C100.341 35.3288 99.7934 36.1031 99.8289 37.0725C99.8858 37.9834 100.284 38.9008 100.753 39.7856C100.014 39.0699 99.4378 38.146 99.3453 37.092Z" fill="#341217"/>
</svg>
