<svg width="25" height="26" viewBox="0 0 25 26" fill="none" xmlns="http://www.w3.org/2000/svg">
<path d="M23.8173 10.0527C24.3048 11.9226 24.3225 13.884 23.8686 15.7623C23.4147 17.6406 22.5033 19.3775 21.2157 20.8184H17.5673V15.3496C17.5669 15.2885 17.5522 15.2283 17.5243 15.1738L17.1337 14.3926C17.0923 14.3103 17.0231 14.2452 16.9384 14.209L14.3485 13.0879L14.1376 12.4356C14.4986 12.1185 14.7837 11.7242 14.9717 11.282C15.1597 10.8397 15.2457 10.3609 15.2235 9.88087V6.75587C15.2238 6.70446 15.214 6.6535 15.1945 6.6059C15.1751 6.55831 15.1464 6.51502 15.1102 6.47852C14.3801 5.86131 13.4443 5.54191 12.4892 5.58399C11.534 5.54191 10.5982 5.86131 9.86806 6.47852C9.83186 6.51502 9.80322 6.55831 9.78378 6.6059C9.76434 6.6535 9.75448 6.70446 9.75478 6.75587V9.88087C9.73209 10.3606 9.81756 10.8392 10.0049 11.2814C10.1922 11.7236 10.4765 12.1181 10.8368 12.4356L10.6259 13.0879L8.03603 14.209C7.95131 14.2452 7.88213 14.3103 7.84072 14.3926L7.4501 15.1738C7.42356 15.2286 7.41019 15.2888 7.41103 15.3496V20.8184H3.7626C2.07715 18.938 1.04416 16.5635 0.817464 14.0486C0.590771 11.5336 1.1825 9.01269 2.50454 6.86126C3.82657 4.70983 5.80818 3.04297 8.15425 2.10894C10.5003 1.17491 13.0853 1.02367 15.5243 1.67775L15.7274 0.923842C13.0734 0.214523 10.2595 0.399311 7.721 1.44963C5.18248 2.49995 3.06068 4.35731 1.68366 6.73451C0.30664 9.1117 -0.248891 11.8763 0.102963 14.6009C0.454816 17.3255 1.69446 19.8583 3.63021 21.8077C5.56596 23.7571 8.09 25.0145 10.8121 25.3855C13.5341 25.7565 16.3026 25.2204 18.6894 23.8601C21.0762 22.4998 22.9484 20.3911 24.0165 17.86C25.0846 15.3289 25.2892 12.5164 24.5985 9.85743L23.8173 10.0527ZM10.536 6.92774C11.1101 6.536 11.7947 6.33883 12.4892 6.36524C13.1849 6.34227 13.8697 6.54358 14.4423 6.93946V8.6543C14.247 8.60352 14.0517 8.50587 14.0517 8.31837C14.0517 8.21477 14.0105 8.11541 13.9372 8.04215C13.864 7.9689 13.7646 7.92774 13.661 7.92774H11.3173C11.2137 7.92774 11.1143 7.9689 11.0411 8.04215C10.9678 8.11541 10.9267 8.21477 10.9267 8.31837C10.9267 8.50196 10.7313 8.59962 10.536 8.6543V6.92774ZM10.536 9.88087V9.45508C10.7675 9.43303 10.9896 9.35314 11.1821 9.22277C11.3746 9.0924 11.5312 8.91572 11.6376 8.70899H13.3407C13.4471 8.91572 13.6037 9.0924 13.7962 9.22277C13.9887 9.35314 14.2108 9.43303 14.4423 9.45508V9.88087C14.4423 10.9629 13.9306 12.2246 12.4892 12.2246C11.0477 12.2246 10.536 10.9629 10.536 9.88087ZM13.5985 13.2988L12.4892 14.4082L11.3798 13.2988L11.5282 12.834C12.1454 13.0646 12.8251 13.0646 13.4423 12.834L13.5985 13.2988ZM8.19228 15.4434L8.47744 14.873L10.8212 13.8535L12.0985 15.1191V16.5215H12.8798V15.1191L14.1493 13.8496L16.4931 14.8691L16.786 15.4434V20.8184H15.6142V18.8652H14.8329V20.8184H10.1454V18.8652H9.36416V20.8184H8.19228V15.4434ZM12.4892 24.7246C9.53706 24.7267 6.69384 23.61 4.53213 21.5996H20.4462C18.2845 23.61 15.4412 24.7267 12.4892 24.7246Z" fill="#272835"/>
<path d="M12.4892 3.63086V2.84961C9.89915 2.84961 7.41523 3.87848 5.58382 5.70989C3.75242 7.5413 2.72354 10.0252 2.72354 12.6152H3.50479C3.50479 10.2324 4.45135 7.94721 6.13625 6.26232C7.82115 4.57742 10.1064 3.63086 12.4892 3.63086Z" fill="#272835"/>
<path d="M3.50479 13.3965H2.72354V14.1777H3.50479V13.3965Z" fill="#272835"/>
<path d="M20.3016 9.88085C21.2287 9.88085 22.135 9.60594 22.9059 9.09087C23.6767 8.5758 24.2775 7.84371 24.6323 6.98718C24.9871 6.13066 25.0799 5.18816 24.8991 4.27887C24.7182 3.36959 24.2718 2.53436 23.6162 1.8788C22.9606 1.22324 22.1254 0.776798 21.2161 0.59593C20.3068 0.415062 19.3643 0.50789 18.5078 0.862676C17.6513 1.21746 16.9192 1.81827 16.4041 2.58912C15.8891 3.35998 15.6141 4.26626 15.6141 5.19336C15.6141 6.43656 16.108 7.62884 16.9871 8.50792C17.8661 9.38699 19.0584 9.88085 20.3016 9.88085ZM20.3016 1.28711C21.0742 1.28711 21.8294 1.51621 22.4718 1.94543C23.1142 2.37466 23.6149 2.98473 23.9105 3.6985C24.2062 4.41227 24.2835 5.19769 24.1328 5.95543C23.9821 6.71317 23.6101 7.40919 23.0638 7.95549C22.5175 8.50179 21.8214 8.87382 21.0637 9.02455C20.306 9.17527 19.5205 9.09791 18.8068 8.80226C18.093 8.5066 17.4829 8.00593 17.0537 7.36355C16.6245 6.72117 16.3954 5.96594 16.3954 5.19336C16.3954 4.15736 16.8069 3.16379 17.5395 2.43122C18.2721 1.69866 19.2656 1.28711 20.3016 1.28711Z" fill="#272835"/>
<path d="M19.911 7.53711H20.6923V5.58398H22.6454V4.80273H20.6923V2.84961H19.911V4.80273H17.9579V5.58398H19.911V7.53711Z" fill="#272835"/>
</svg>
