<svg width="27" height="28" viewBox="0 0 27 28" fill="none" xmlns="http://www.w3.org/2000/svg">
<path d="M13.5 26.5C11.0277 26.5 8.61099 25.7669 6.55538 24.3934C4.49976 23.0199 2.89761 21.0676 1.95151 18.7835C1.00542 16.4995 0.757874 13.9861 1.24019 11.5614C1.7225 9.13661 2.91301 6.90933 4.66117 5.16117C6.40933 3.41301 8.63661 2.2225 11.0614 1.74019C13.4861 1.25787 15.9995 1.50542 18.2835 2.45151C20.5676 3.39761 22.5199 4.99976 23.8934 7.05538C25.2669 9.11099 26 11.5277 26 14C25.9964 17.3141 24.6783 20.4914 22.3349 22.8349C19.9914 25.1783 16.8141 26.4964 13.5 26.5ZM13.5 3.58334C11.4398 3.58334 9.42583 4.19427 7.71281 5.33886C5.9998 6.48346 4.66467 8.11032 3.87626 10.0137C3.08785 11.9171 2.88156 14.0116 3.28349 16.0322C3.68542 18.0528 4.67751 19.9089 6.13431 21.3657C7.59111 22.8225 9.44718 23.8146 11.4678 24.2165C13.4884 24.6184 15.5829 24.4122 17.4863 23.6237C19.3897 22.8353 21.0165 21.5002 22.1611 19.7872C23.3057 18.0742 23.9167 16.0602 23.9167 14C23.9136 11.2383 22.8152 8.5905 20.8623 6.63766C18.9095 4.68481 16.2617 3.58637 13.5 3.58334Z" fill="#FFA9A9" stroke="white" stroke-width="1.5"/>
<path d="M9.02119 21.1534L4.68641 25.4882C4.34089 25.7841 3.89643 25.9387 3.44186 25.9211C2.9873 25.9036 2.5561 25.7151 2.23443 25.3935C1.91276 25.0718 1.72432 24.6406 1.70676 24.186C1.6892 23.7314 1.84382 23.287 2.13972 22.9415L6.47451 18.6067L9.02119 21.1534Z" fill="#374F68"/>
<path d="M7.66661 19.7988L3.78336 23.682C3.50402 23.9584 3.14214 24.1362 2.75263 24.1883C2.36312 24.2405 1.96722 24.1642 1.625 23.971C1.71531 23.1943 1.81465 23.2666 6.47454 18.6067L7.66661 19.7988Z" fill="#425B72"/>
<path d="M21.4744 14.2806C21.4762 15.6993 21.1067 17.0938 20.4025 18.3254C19.6982 19.5569 18.6839 20.5827 17.4604 21.3008C16.2368 22.0188 14.8466 22.4041 13.428 22.4183C12.0094 22.4324 10.6117 22.0751 9.37407 21.3816C8.13639 20.6882 7.10177 19.6829 6.37308 18.4656C5.64438 17.2484 5.24699 15.8616 5.22042 14.4432C5.19385 13.0247 5.53901 11.624 6.2216 10.3804C6.90419 9.13667 7.90043 8.09331 9.11127 7.35402C10.3426 6.60217 11.752 6.19166 13.1945 6.16463C14.637 6.13761 16.0607 6.49505 17.3194 7.20024C18.5781 7.90543 19.6263 8.93296 20.3566 10.1773C21.0868 11.4216 21.4726 12.8379 21.4744 14.2806Z" fill="#DAD7E5"/>
<path d="M20.2738 18.5162C13.0491 22.9052 4.68662 14.6058 9.11172 7.3541C16.3635 2.91094 24.6989 11.2915 20.2738 18.5162Z" fill="#EDEBF2"/>
<path d="M13.3471 22.8116C11.6599 22.8116 10.0105 22.3113 8.60763 21.3739C7.20475 20.4365 6.11133 19.1042 5.46566 17.5454C4.81998 15.9866 4.65104 14.2714 4.98021 12.6165C5.30937 10.9617 6.12185 9.44168 7.31491 8.24862C8.50796 7.05557 10.028 6.24308 11.6828 5.91392C13.3376 5.58476 15.0529 5.7537 16.6117 6.39937C18.1705 7.04505 19.5028 8.13847 20.4402 9.54135C21.3776 10.9442 21.8779 12.5936 21.8779 14.2808C21.8779 15.4011 21.6573 16.5104 21.2285 17.5454C20.7998 18.5804 20.1715 19.5208 19.3793 20.313C18.5871 21.1052 17.6467 21.7335 16.6117 22.1623C15.5767 22.591 14.4674 22.8116 13.3471 22.8116ZM13.3471 6.55617C11.8193 6.55617 10.3258 7.00921 9.05551 7.85801C7.7852 8.7068 6.79511 9.91322 6.21045 11.3247C5.62579 12.7362 5.47282 14.2894 5.77088 15.7878C6.06893 17.2863 6.80464 18.6627 7.88495 19.743C8.96526 20.8233 10.3417 21.559 11.8401 21.857C13.3385 22.1551 14.8917 22.0021 16.3032 21.4175C17.7147 20.8328 18.9211 19.8427 19.7699 18.5724C20.6187 17.3021 21.0717 15.8086 21.0717 14.2808C21.0717 12.2321 20.2579 10.2673 18.8092 8.81866C17.3606 7.37001 15.3958 6.55617 13.3471 6.55617Z" fill="#ADC5DC" stroke="white"/>
<path d="M13.6788 16.9464C14.0319 16.9464 14.3772 16.8417 14.6708 16.6455C14.9645 16.4493 15.1934 16.1704 15.3285 15.8441C15.4637 15.5178 15.4991 15.1587 15.4302 14.8123C15.3613 14.4659 15.1912 14.1478 14.9414 13.898C14.6917 13.6483 14.3735 13.4782 14.0271 13.4093C13.6807 13.3404 13.3217 13.3758 12.9954 13.5109C12.6691 13.6461 12.3902 13.875 12.194 14.1686C11.9978 14.4623 11.893 14.8075 11.893 15.1607C11.893 15.6343 12.0812 16.0885 12.4161 16.4234C12.7509 16.7583 13.2051 16.9464 13.6788 16.9464ZM13.6788 14.0893C13.8907 14.0893 14.0978 14.1521 14.274 14.2699C14.4502 14.3876 14.5875 14.5549 14.6686 14.7507C14.7497 14.9465 14.7709 15.1619 14.7296 15.3697C14.6883 15.5776 14.5862 15.7685 14.4364 15.9183C14.2865 16.0682 14.0956 16.1702 13.8878 16.2116C13.6799 16.2529 13.4645 16.2317 13.2687 16.1506C13.073 16.0695 12.9056 15.9322 12.7879 15.756C12.6702 15.5798 12.6073 15.3726 12.6073 15.1607C12.6073 14.8766 12.7202 14.604 12.9211 14.4031C13.1221 14.2022 13.3946 14.0893 13.6788 14.0893Z" fill="black"/>
<path d="M9.72838 13.7321C10.0109 13.7321 10.2871 13.6484 10.522 13.4914C10.757 13.3344 10.9401 13.1113 11.0482 12.8503C11.1563 12.5892 11.1846 12.302 11.1295 12.0249C11.0744 11.7478 10.9383 11.4932 10.7385 11.2934C10.5387 11.0936 10.2842 10.9576 10.0071 10.9025C9.72996 10.8473 9.44272 10.8756 9.18169 10.9837C8.92065 11.0919 8.69754 11.275 8.54056 11.5099C8.38359 11.7448 8.2998 12.021 8.2998 12.3036C8.2998 12.6825 8.45031 13.0458 8.71822 13.3137C8.98613 13.5816 9.3495 13.7321 9.72838 13.7321ZM9.72838 11.5893C9.86965 11.5893 10.0077 11.6312 10.1252 11.7097C10.2427 11.7882 10.3342 11.8997 10.3883 12.0302C10.4424 12.1607 10.4565 12.3044 10.4289 12.4429C10.4014 12.5815 10.3333 12.7088 10.2335 12.8086C10.1336 12.9085 10.0063 12.9766 9.86773 13.0041C9.72917 13.0317 9.58555 13.0175 9.45503 12.9635C9.32451 12.9094 9.21296 12.8179 9.13447 12.7004C9.05598 12.5829 9.01409 12.4448 9.01409 12.3036C9.01409 12.1141 9.08935 11.9325 9.2233 11.7985C9.35725 11.6645 9.53894 11.5893 9.72838 11.5893Z" fill="black"/>
<path d="M15.4641 17.3035H11.8926C11.419 17.3035 10.9648 17.4916 10.63 17.8265C10.2951 18.1614 10.1069 18.6156 10.1069 19.0892V20.8749H10.8212V19.0892C10.8212 18.805 10.9341 18.5325 11.135 18.3316C11.336 18.1306 11.6085 18.0178 11.8926 18.0178H15.4641C15.7482 18.0178 16.0208 18.1306 16.2217 18.3316C16.4226 18.5325 16.5355 18.805 16.5355 19.0892V20.8749H17.2498V19.0892C17.2498 18.6156 17.0617 18.1614 16.7268 17.8265C16.3919 17.4916 15.9377 17.3035 15.4641 17.3035Z" fill="black"/>
<path d="M11.1786 14.0894H8.67857C8.29969 14.0894 7.93633 14.2399 7.66842 14.5078C7.40051 14.7757 7.25 15.139 7.25 15.5179V16.9465H7.96429V15.5179C7.96429 15.3285 8.03954 15.1468 8.17349 15.0129C8.30745 14.8789 8.48913 14.8036 8.67857 14.8036H11.1786V14.0894Z" fill="black"/>
</svg>
