<svg width="27" height="28" viewBox="0 0 27 28" fill="none" xmlns="http://www.w3.org/2000/svg">
<path fill-rule="evenodd" clip-rule="evenodd" d="M13.7436 19.6503H13.7426L9.6065 19.6493C9.47121 19.6493 9.36237 19.5394 9.36237 19.4052C9.36237 19.2699 9.47121 19.161 9.6065 19.161L13.7426 19.162H13.7436C14.6561 19.162 15.5482 18.9077 16.3233 18.4266L21.5051 15.208C21.6526 15.0982 21.736 14.9741 21.7574 14.8286C21.7818 14.6709 21.7167 14.5224 21.5855 14.4309C21.4675 14.3485 21.3017 14.3139 21.1043 14.3281C20.8439 14.3475 20.5418 14.4512 20.2092 14.6364C20.1675 14.6598 19.8033 14.8896 19.2021 15.2691C18.6314 15.6282 17.7698 16.1714 16.6265 16.8906C16.5125 16.9628 16.362 16.9282 16.2897 16.8143C16.2175 16.7003 16.2521 16.5498 16.366 16.4776C17.5094 15.7594 18.371 15.2162 18.9407 14.8571C19.7097 14.3729 19.9325 14.2325 19.9711 14.2112C20.3668 13.9914 20.7351 13.8683 21.0677 13.8429C21.378 13.8195 21.6536 13.8846 21.8642 14.0311C22.148 14.2284 22.2925 14.5631 22.2406 14.9029C22.1979 15.1806 22.0453 15.4186 21.7869 15.6078C21.7838 15.6099 21.7808 15.6119 21.7777 15.6139C21.7757 15.6149 21.7737 15.616 21.7727 15.617L16.5827 18.8406C15.7282 19.3706 14.7466 19.6503 13.7436 19.6503Z" fill="#212121"/>
<path fill-rule="evenodd" clip-rule="evenodd" d="M15.6436 17.6309H13.1768C13.0415 17.6309 12.9327 17.5221 12.9327 17.3868C12.9327 17.2515 13.0415 17.1426 13.1768 17.1426H15.6436C15.9783 17.1426 16.2519 16.8812 16.2672 16.5475C16.2753 16.3777 16.2143 16.2159 16.0953 16.0918C15.9732 15.9636 15.8084 15.8935 15.6304 15.8935H12.5808C12.5797 15.8935 12.5797 15.8935 12.5787 15.8935C12.3682 15.8914 11.8758 15.8874 11.3641 16.0003C10.7986 16.1254 10.3439 16.3604 10.0133 16.7001C9.93798 16.7774 9.86779 16.8608 9.8037 16.9483C9.72436 17.0572 9.57177 17.0816 9.46293 17.0022C9.35408 16.9229 9.32967 16.7703 9.40901 16.6615C9.48632 16.5547 9.57177 16.454 9.66332 16.3604C10.0621 15.9514 10.5982 15.6697 11.2594 15.5242C11.7609 15.4133 12.2298 15.4031 12.5828 15.4062H15.6314C15.9386 15.4062 16.2367 15.5334 16.4493 15.7561C16.6609 15.9779 16.7697 16.2678 16.7555 16.572C16.727 17.165 16.2387 17.6309 15.6436 17.6309Z" fill="#212121"/>
<path fill-rule="evenodd" clip-rule="evenodd" d="M9.60449 19.9982H6.87015C6.73486 19.9982 6.625 19.8884 6.625 19.7531V16.0747C6.625 15.9395 6.73486 15.8296 6.87015 15.8296H9.60449C9.73978 15.8296 9.84964 15.9395 9.84964 16.0747V19.7531C9.84964 19.8884 9.73978 19.9982 9.60449 19.9982ZM7.11327 19.51H9.36137V16.3179H7.11327V19.51Z" fill="#212121"/>
<path fill-rule="evenodd" clip-rule="evenodd" d="M14.0493 13.748C13.5518 13.748 13.0626 13.6158 12.6333 13.3665C12.2274 13.1295 11.8815 12.7918 11.6344 12.391C11.3984 12.0085 11.259 11.5772 11.2295 11.1418C11.198 10.6719 11.2905 10.2182 11.5062 9.79094C11.5072 9.78993 11.5072 9.78789 11.5082 9.78687L13.8336 5.38021C13.8763 5.29984 13.9587 5.25 14.0493 5.25C14.1398 5.25 14.2232 5.29984 14.2649 5.38021L16.5903 9.78586C16.5913 9.78687 16.5913 9.78891 16.5924 9.78993C16.808 10.2172 16.9006 10.6719 16.8691 11.1408C16.8396 11.5752 16.6992 12.0075 16.4642 12.39C16.217 12.7918 15.8711 13.1295 15.4653 13.3655C15.036 13.6158 14.5467 13.748 14.0493 13.748ZM11.9405 10.0117C11.7656 10.3596 11.6903 10.7278 11.7157 11.1083C11.7401 11.4643 11.8551 11.8183 12.0494 12.1336C12.2549 12.4673 12.5417 12.747 12.8784 12.9444C13.2324 13.1509 13.6373 13.2597 14.0483 13.2597C14.4592 13.2597 14.8641 13.1509 15.2181 12.9444C15.5548 12.7481 15.8416 12.4673 16.0471 12.1336C16.2414 11.8183 16.3564 11.4643 16.3808 11.1083C16.4062 10.7278 16.3309 10.3586 16.156 10.0117L14.0493 6.017L11.9405 10.0117Z" fill="#212121"/>
<path fill-rule="evenodd" clip-rule="evenodd" d="M14.0511 12.2834C13.9158 12.2834 13.8069 12.1746 13.8069 12.0393V9.49926C13.8069 9.36397 13.9158 9.25513 14.0511 9.25513C14.1864 9.25513 14.2952 9.36397 14.2952 9.49926V12.0393C14.2952 12.1746 14.1854 12.2834 14.0511 12.2834Z" fill="#212121"/>
<path fill-rule="evenodd" clip-rule="evenodd" d="M15.3204 11.0134H12.7803C12.645 11.0134 12.5362 10.9046 12.5362 10.7693C12.5362 10.634 12.645 10.5251 12.7803 10.5251H15.3204C15.4557 10.5251 15.5645 10.634 15.5645 10.7693C15.5645 10.9046 15.4557 11.0134 15.3204 11.0134Z" fill="#212121"/>
<path d="M13.5 26.5C11.0277 26.5 8.61099 25.7669 6.55538 24.3934C4.49976 23.0199 2.89761 21.0676 1.95151 18.7835C1.00542 16.4995 0.757874 13.9861 1.24019 11.5614C1.7225 9.13661 2.91301 6.90933 4.66117 5.16117C6.40933 3.41301 8.63661 2.2225 11.0614 1.74019C13.4861 1.25787 15.9995 1.50542 18.2835 2.45151C20.5676 3.39761 22.5199 4.99976 23.8934 7.05538C25.2669 9.11099 26 11.5277 26 14C25.9964 17.3141 24.6783 20.4914 22.3349 22.8349C19.9914 25.1783 16.8141 26.4964 13.5 26.5ZM13.5 3.58334C11.4398 3.58334 9.42583 4.19427 7.71281 5.33886C5.9998 6.48346 4.66467 8.11032 3.87626 10.0137C3.08785 11.9171 2.88156 14.0116 3.28349 16.0322C3.68542 18.0528 4.67751 19.9089 6.13431 21.3657C7.59111 22.8225 9.44718 23.8146 11.4678 24.2165C13.4884 24.6184 15.5829 24.4122 17.4863 23.6237C19.3897 22.8353 21.0165 21.5002 22.1611 19.7872C23.3057 18.0742 23.9167 16.0602 23.9167 14C23.9136 11.2383 22.8152 8.5905 20.8623 6.63766C18.9095 4.68481 16.2617 3.58637 13.5 3.58334Z" fill="#FFA9A9" stroke="white" stroke-width="1.5"/>
</svg>
