<svg width="30" height="30" viewBox="0 0 30 30" fill="none" xmlns="http://www.w3.org/2000/svg">
<path d="M15.0006 2.00001H15C12.4288 2.00001 9.91543 2.76244 7.77759 4.1909C5.63975 5.61936 3.97351 7.64968 2.98957 10.0251C2.00563 12.4006 1.74819 15.0144 2.2498 17.5362C2.75141 20.0579 3.98953 22.3743 5.80762 24.1924C7.6257 26.0105 9.94208 27.2486 12.4638 27.7502C14.9856 28.2518 17.5995 27.9944 19.9749 27.0104C22.3503 26.0265 24.3806 24.3603 25.8091 22.2224C27.2376 20.0846 28 17.5712 28 15V14.9995C27.9962 11.5529 26.6254 8.24869 24.1884 5.81164C21.7513 3.37459 18.4471 2.00379 15.0006 2.00001ZM14.9995 29.5C12.1318 29.4999 9.3286 28.6495 6.94424 27.0563C4.55972 25.463 2.70122 23.1984 1.60375 20.5489C0.506283 17.8994 0.219135 14.9839 0.77862 12.1712C1.33811 9.35847 2.7191 6.77482 4.74696 4.74696C6.77482 2.7191 9.35847 1.33811 12.1712 0.77862C14.9839 0.219135 17.8994 0.506283 20.5489 1.60375C23.1984 2.70122 25.463 4.55972 27.0563 6.94424C28.6495 9.3286 29.4999 12.1318 29.5 14.9995C29.4958 18.844 27.9668 22.5298 25.2483 25.2483C22.5298 27.9668 18.844 29.4958 14.9995 29.5Z" fill="black" stroke="white"/>
<path d="M17.6253 18C16.5769 18 15.5447 17.7415 14.6201 17.2474C13.6954 16.7532 12.907 16.0386 12.3245 15.1669C11.742 14.2952 11.3835 13.2933 11.2807 12.25C11.1779 11.2066 11.3341 10.154 11.7353 9.18543C12.1365 8.21684 12.7703 7.36214 13.5808 6.69705C14.3912 6.03195 15.3531 5.577 16.3814 5.37248C17.4096 5.16796 18.4725 5.22019 19.4757 5.52455C20.4789 5.8289 21.3916 6.37599 22.1329 7.11734C23.0244 8.0089 23.6316 9.14479 23.8775 10.3814C24.1235 11.618 23.9972 12.8997 23.5147 14.0646C23.0323 15.2294 22.2152 16.225 21.1669 16.9255C20.1186 17.626 18.8861 17.9999 17.6253 18ZM17.6253 6.06773C16.3396 6.0679 15.0937 6.51386 14.1 7.32963C13.1062 8.14539 12.4261 9.28049 12.1754 10.5415C11.9247 11.8025 12.1191 13.1115 12.7253 14.2453C13.3315 15.3791 14.3121 16.2676 15.5 16.7595C16.6878 17.2514 18.0095 17.3162 19.2398 16.9428C20.4701 16.5694 21.5329 15.7811 22.2471 14.712C22.9613 13.6429 23.2826 12.3592 23.1565 11.0797C23.0304 9.80024 22.4645 8.60408 21.5553 7.69504C21.0397 7.1783 20.4271 6.76853 19.7526 6.48926C19.0782 6.20999 18.3553 6.06674 17.6253 6.06773Z" fill="black"/>
<path d="M5.66469 23.9978C5.61043 23.9981 5.55664 23.9877 5.5064 23.9671C5.45617 23.9465 5.41048 23.9162 5.37196 23.8779C5.33331 23.8395 5.30264 23.7938 5.28171 23.7434C5.26078 23.693 5.25 23.639 5.25 23.5844C5.25 23.5299 5.26078 23.4758 5.28171 23.4255C5.30264 23.3751 5.33331 23.3294 5.37196 23.291L12.7933 15.8716C12.8709 15.7937 12.9762 15.75 13.086 15.75C13.1958 15.75 13.3011 15.7937 13.3787 15.8716C13.4564 15.9494 13.5 16.055 13.5 16.165C13.5 16.2751 13.4564 16.3807 13.3787 16.4585L5.97803 23.8986C5.93538 23.9358 5.88555 23.9637 5.83164 23.9808C5.77774 23.9979 5.72091 24.0036 5.66469 23.9978Z" fill="black"/>
<path d="M15 13.5H14.6689V10.1628H14.25V9H15V13.5Z" fill="black"/>
<path d="M14.2511 14.25C14.0523 14.25 13.8616 14.1711 13.7208 14.0305C13.58 13.8899 13.5006 13.6991 13.5 13.5H13.9418C13.9484 13.5773 13.9837 13.6494 14.0407 13.7019C14.0978 13.7544 14.1725 13.7836 14.25 13.7836C14.3275 13.7836 14.4022 13.7544 14.4593 13.7019C14.5163 13.6494 14.5516 13.5773 14.5582 13.5H15C15 13.5985 14.9806 13.696 14.943 13.787C14.9054 13.878 14.8502 13.9607 14.7807 14.0303C14.7111 14.1 14.6286 14.1552 14.5377 14.1929C14.4468 14.2306 14.3495 14.25 14.2511 14.25Z" fill="black"/>
<path d="M17.25 14.25C16.8534 14.2488 16.4734 14.0962 16.1925 13.8255C15.9116 13.5549 15.7526 13.1879 15.75 12.8045V10.4502C15.75 10.0656 15.908 9.69673 16.1893 9.42476C16.4706 9.15279 16.8522 9 17.25 9C17.6478 9 18.0294 9.15279 18.3107 9.42476C18.592 9.69673 18.75 10.0656 18.75 10.4502V12.8045C18.7487 13.1883 18.5901 13.556 18.3089 13.8269C18.0278 14.0979 17.647 14.25 17.25 14.25ZM17.25 9.95112C17.1809 9.95112 17.1125 9.96427 17.0487 9.98983C16.9849 10.0154 16.9269 10.0528 16.8781 10.1001C16.8292 10.1473 16.7905 10.2033 16.7641 10.265C16.7376 10.3267 16.724 10.3929 16.724 10.4596V12.8139C16.724 12.9488 16.7794 13.0781 16.8781 13.1735C16.9767 13.2688 17.1105 13.3224 17.25 13.3224C17.3895 13.3224 17.5233 13.2688 17.6219 13.1735C17.7206 13.0781 17.776 12.9488 17.776 12.8139V10.4596C17.776 10.3248 17.7206 10.1954 17.6219 10.1001C17.5233 10.0047 17.3895 9.95112 17.25 9.95112Z" fill="black"/>
<path d="M19.875 14.25C19.7755 14.25 19.6802 14.1993 19.6098 14.1089C19.5395 14.0186 19.5 13.8961 19.5 13.7683V9.48165C19.5 9.35391 19.5395 9.2314 19.6098 9.14107C19.6802 9.05075 19.7755 9 19.875 9C19.9745 9 20.0698 9.05075 20.1402 9.14107C20.2105 9.2314 20.25 9.35391 20.25 9.48165V13.7683C20.25 13.8961 20.2105 14.0186 20.1402 14.1089C20.0698 14.1993 19.9745 14.25 19.875 14.25Z" fill="black"/>
<path d="M20.548 12H20.0832C19.9888 12.0002 19.8946 11.9869 19.8027 11.9603C19.6996 11.928 19.6111 11.8463 19.5566 11.7331C19.5021 11.6199 19.4862 11.4846 19.5122 11.3568C19.5382 11.229 19.6042 11.1193 19.6955 11.0518C19.7868 10.9842 19.896 10.9644 19.999 10.9967H20.0832H20.548C20.6542 10.9967 20.7561 10.9444 20.8313 10.8512C20.9064 10.7581 20.9486 10.6317 20.9486 10.5C20.9486 10.3683 20.9064 10.2419 20.8313 10.1488C20.7561 10.0556 20.6542 10.0033 20.548 10.0033H20.0832H19.999C19.896 10.0356 19.7868 10.0158 19.6955 9.94825C19.6042 9.88071 19.5382 9.77099 19.5122 9.64321C19.4862 9.51543 19.5021 9.38007 19.5566 9.2669C19.6111 9.15372 19.6996 9.07201 19.8027 9.03974C19.8946 9.01315 19.9888 8.99982 20.0832 9H20.548C20.8668 9 21.1725 9.15699 21.3979 9.43643C21.6234 9.71587 21.75 10.0949 21.75 10.4901C21.75 10.8853 21.6234 11.2643 21.3979 11.5437C21.1725 11.8231 20.8668 11.9801 20.548 11.9801V12Z" fill="black"/>
<path d="M21.0858 14.25H20.3538C20.1428 14.25 19.9343 14.2043 19.7425 14.1161C19.6927 14.0931 19.6479 14.0605 19.6107 14.02C19.5735 13.9796 19.5446 13.9322 19.5256 13.8805C19.5067 13.8288 19.4981 13.7738 19.5003 13.7187C19.5026 13.6637 19.5156 13.6096 19.5387 13.5596C19.5856 13.4603 19.6695 13.3835 19.7722 13.3459C19.8749 13.3083 19.9883 13.313 20.0876 13.3588C20.1715 13.3956 20.2623 13.4141 20.3538 13.4132H21.0858C21.2515 13.3999 21.4063 13.3243 21.5191 13.2014C21.6319 13.0785 21.6946 12.9173 21.6946 12.75C21.6946 12.5827 21.6319 12.4215 21.5191 12.2986C21.4063 12.1757 21.2515 12.1001 21.0858 12.0868H20.3538C20.262 12.0873 20.1713 12.1073 20.0876 12.1454C19.9877 12.1909 19.874 12.195 19.7712 12.1566C19.6684 12.1182 19.5848 12.0405 19.5387 11.9404C19.5156 11.8904 19.5026 11.8363 19.5003 11.7813C19.4981 11.7262 19.5067 11.6712 19.5256 11.6195C19.5446 11.5678 19.5735 11.5204 19.6107 11.48C19.6479 11.4395 19.6927 11.4069 19.7425 11.3839C19.9343 11.2957 20.1428 11.25 20.3538 11.25H21.0858C21.4676 11.2703 21.8271 11.4372 22.0902 11.7163C22.3533 11.9953 22.5 12.3653 22.5 12.75C22.5 13.1347 22.3533 13.5047 22.0902 13.7837C21.8271 14.0628 21.4676 14.2297 21.0858 14.25Z" fill="black"/>
</svg>
