<svg width="30" height="30" viewBox="0 0 30 30" fill="none" xmlns="http://www.w3.org/2000/svg">
<path d="M15.0006 2.00001H15C12.4288 2.00001 9.91543 2.76244 7.77759 4.1909C5.63975 5.61936 3.97351 7.64968 2.98957 10.0251C2.00563 12.4006 1.74819 15.0144 2.2498 17.5362C2.75141 20.0579 3.98953 22.3743 5.80762 24.1924C7.6257 26.0105 9.94208 27.2486 12.4638 27.7502C14.9856 28.2518 17.5995 27.9944 19.9749 27.0104C22.3503 26.0265 24.3806 24.3603 25.8091 22.2224C27.2376 20.0846 28 17.5712 28 15V14.9995C27.9962 11.5529 26.6254 8.24869 24.1884 5.81164C21.7513 3.37459 18.4471 2.00379 15.0006 2.00001ZM14.9995 29.5C12.1318 29.4999 9.3286 28.6495 6.94424 27.0563C4.55972 25.463 2.70122 23.1984 1.60375 20.5489C0.506283 17.8994 0.219135 14.9839 0.77862 12.1712C1.33811 9.35847 2.7191 6.77482 4.74696 4.74696C6.77482 2.7191 9.35847 1.33811 12.1712 0.77862C14.9839 0.219135 17.8994 0.506283 20.5489 1.60375C23.1984 2.70122 25.463 4.55972 27.0563 6.94424C28.6495 9.3286 29.4999 12.1318 29.5 14.9995C29.4958 18.844 27.9668 22.5298 25.2483 25.2483C22.5298 27.9668 18.844 29.4958 14.9995 29.5Z" fill="black" stroke="white"/>
<path d="M14.7736 23.2498C13.5932 23.2498 12.4635 22.9811 11.416 22.451L11.6785 21.9324C12.6439 22.4207 13.6852 22.6684 14.7736 22.6684V23.2498Z" fill="#282D33"/>
<path d="M7.94109 14.676L7.36572 14.5916C7.42532 14.1858 7.51894 13.7818 7.64425 13.3906C8.64437 10.2635 11.5094 8.16248 14.7734 8.16248V8.74395C11.7632 8.74395 9.12089 10.6826 8.19795 13.568C8.08238 13.9288 7.99589 14.3016 7.94109 14.676Z" fill="#282D33"/>
<path d="M14.7733 23.2503C13.6139 23.2503 12.5198 22.5127 11.6923 21.1734L12.1869 20.8678C12.9045 22.0292 13.8231 22.6688 14.7733 22.6688C16.9078 22.6688 18.6443 19.5456 18.6443 15.7063C18.6443 15.3578 18.6296 15.0082 18.6007 14.6672L19.1801 14.618C19.2104 14.9754 19.2256 15.3417 19.2256 15.7063C19.2258 19.8661 17.2284 23.2503 14.7733 23.2503Z" fill="#282D33"/>
<path d="M11.1497 13.2562L10.5809 13.1357C11.2109 10.1609 12.8958 8.16223 14.7734 8.16223V8.7437C13.1776 8.7437 11.7213 10.5572 11.1497 13.2562Z" fill="#282D33"/>
<path d="M14.7736 23.2498C14.6131 23.2498 14.4828 23.1196 14.4828 22.9591V8.10034H15.0643V22.6622C18.7386 22.508 21.6807 19.4469 21.6807 15.706C21.6807 15.0288 21.5846 14.3599 21.3951 13.7176L21.9527 13.5531C22.1581 14.2488 22.2622 14.973 22.2622 15.706C22.2622 19.8657 18.9029 23.2498 14.7736 23.2498Z" fill="#282D33"/>
<path d="M14.9889 12.8578H8.04395V13.4393H14.9889V12.8578Z" fill="#282D33"/>
<path d="M21.5014 17.9718H12.6041V18.5533H21.5014V17.9718Z" fill="#282D33"/>
<path d="M10.7233 21.6305L8.93163 20.3761H5.69604V14.1013H12.0245V20.3763H10.7233V21.6305ZM6.27751 19.7946H9.11494L10.1418 20.5135V19.7946H11.443V14.6828H6.27751V19.7946Z" fill="#282D33"/>
<path d="M17.25 15.2898V13.0861H15.8251V6.75H24.303V13.0861H19.5234L17.25 15.2898ZM16.4066 12.5047H17.8316V13.9163L19.2878 12.5047H23.7215V7.33147H16.4066V12.5047Z" fill="#282D33"/>
<path d="M22.2549 8.79871H17.8737V9.38018H22.2549V8.79871Z" fill="#282D33"/>
<path d="M22.2549 10.3418H17.8737V10.9233H22.2549V10.3418Z" fill="#282D33"/>
<path d="M8.86005 19.0998L7.3821 17.6108C6.94731 17.1724 6.94731 16.4595 7.38181 16.0212L7.39257 16.0103C7.60582 15.7957 7.88696 15.6787 8.18598 15.6787C8.43267 15.6787 8.667 15.7584 8.86005 15.9056C9.05354 15.7582 9.28772 15.6787 9.53427 15.6787C9.83343 15.6787 10.1146 15.7959 10.3259 16.0085L10.3409 16.024C10.7729 16.4595 10.7728 17.1724 10.3381 17.6105L8.86005 19.0998ZM8.18598 16.2602C8.0428 16.2602 7.90804 16.3164 7.80672 16.4185L7.79625 16.4291C7.58416 16.6432 7.58416 16.9888 7.79465 17.2011L8.86005 18.2745L9.92589 17.2007C10.1362 16.9888 10.1362 16.6432 9.9256 16.4307L9.91077 16.4156C9.81221 16.3164 9.6776 16.2603 9.53441 16.2603C9.39123 16.2603 9.25661 16.3166 9.15515 16.4186L8.86034 16.7174L8.56438 16.418C8.46349 16.3164 8.32903 16.2602 8.18598 16.2602Z" fill="#282D33"/>
</svg>
