<svg width="30" height="30" viewBox="0 0 30 30" fill="none" xmlns="http://www.w3.org/2000/svg">
<path d="M15.0006 2.00001H15C12.4288 2.00001 9.91543 2.76244 7.77759 4.1909C5.63975 5.61936 3.97351 7.64968 2.98957 10.0251C2.00563 12.4006 1.74819 15.0144 2.2498 17.5362C2.75141 20.0579 3.98953 22.3743 5.80762 24.1924C7.6257 26.0105 9.94208 27.2486 12.4638 27.7502C14.9856 28.2518 17.5995 27.9944 19.9749 27.0104C22.3503 26.0265 24.3806 24.3603 25.8091 22.2224C27.2376 20.0846 28 17.5712 28 15V14.9995C27.9962 11.5529 26.6254 8.24869 24.1884 5.81164C21.7513 3.37459 18.4471 2.00379 15.0006 2.00001ZM14.9995 29.5C12.1318 29.4999 9.3286 28.6495 6.94424 27.0563C4.55972 25.463 2.70122 23.1984 1.60375 20.5489C0.506283 17.8994 0.219135 14.9839 0.77862 12.1712C1.33811 9.35847 2.7191 6.77482 4.74696 4.74696C6.77482 2.7191 9.35847 1.33811 12.1712 0.77862C14.9839 0.219135 17.8994 0.506283 20.5489 1.60375C23.1984 2.70122 25.463 4.55972 27.0563 6.94424C28.6495 9.3286 29.4999 12.1318 29.5 14.9995C29.4958 18.844 27.9668 22.5298 25.2483 25.2483C22.5298 27.9668 18.844 29.4958 14.9995 29.5Z" fill="black" stroke="white"/>
<path d="M10.1591 24.238C9.82816 24.238 9.49482 24.18 9.1742 24.0607L8.78777 23.9168L10.5343 22.1434L10.2865 21.2045L9.37007 20.9549L7.61839 22.7342L7.47456 22.3353C7.09303 21.2773 7.35233 20.0804 8.13501 19.2858C8.84339 18.566 9.86391 18.2785 10.8327 18.5154L13.3309 15.9779L13.7115 16.3526L10.9895 19.117L10.8346 19.0695C10.0108 18.8173 9.12242 19.0435 8.51535 19.6603C7.98046 20.2034 7.74512 20.9771 7.86524 21.7223L9.20877 20.3577L10.7242 20.7704L11.1282 22.3016L9.77836 23.6722C10.5102 23.7958 11.2717 23.5574 11.8059 23.0146C12.4151 22.3956 12.6386 21.4892 12.3894 20.6497L12.3445 20.4985L15.1877 17.6109L15.5683 17.9856L12.9428 20.6522C13.1774 21.6336 12.8948 22.6693 12.1866 23.3891C11.6426 23.9417 10.9072 24.238 10.1591 24.238Z" fill="#282D33"/>
<path d="M17.3772 16.1492L16.9965 15.7745L20.3115 12.4074L20.4663 12.4548C21.2897 12.7068 22.1783 12.4808 22.7856 11.8642C23.3202 11.3211 23.5557 10.5474 23.436 9.80219L22.0923 11.1668L20.5769 10.7542L20.1732 9.22346L21.523 7.85252C20.7905 7.72856 20.029 7.96747 19.4945 8.51018C18.8855 9.12877 18.6622 10.035 18.912 10.875L18.957 11.0261L15.9137 14.1161L15.5332 13.7414L18.3584 10.8725C18.1233 9.89079 18.4057 8.8549 19.1139 8.13553C19.8988 7.33868 21.0813 7.07514 22.1268 7.46396L22.5132 7.60778L20.7668 9.38145L21.0143 10.32L21.9309 10.5695L23.6828 8.79014L23.8267 9.18929C24.2077 10.247 23.9484 11.444 23.1658 12.2388C22.457 12.9585 21.4364 13.2461 20.4682 13.0089L17.3772 16.1492Z" fill="#282D33"/>
<path d="M10.7431 15.4869C8.32794 15.4869 6.36328 13.5223 6.36328 11.1071C6.36328 8.69195 8.32794 6.72729 10.7431 6.72729C13.1583 6.72729 15.1229 8.69195 15.1229 11.1071C15.1229 13.5223 13.1583 15.4869 10.7431 15.4869ZM10.7431 7.04014C8.50063 7.04014 6.67613 8.86464 6.67613 11.1071C6.67613 13.3496 8.50063 15.1741 10.7431 15.1741C12.9856 15.1741 14.8101 13.3496 14.8101 11.1071C14.8101 8.86464 12.9856 7.04014 10.7431 7.04014Z" fill="#263238"/>
<path d="M14.0609 15.4869C14.0193 15.4869 13.9795 15.4703 13.9501 15.4412L13.128 14.6191C13.0957 14.5868 13.0792 14.5421 13.0826 14.4964C13.086 14.4511 13.1092 14.4095 13.1458 14.3822C13.4715 14.1426 13.7593 13.857 14.0008 13.5329C14.028 13.4963 14.0696 13.4737 14.115 13.4703C14.1613 13.4681 14.2048 13.4834 14.237 13.5157L15.0563 14.335C15.1173 14.396 15.1173 14.4952 15.0563 14.5562L14.1713 15.4412C14.1422 15.4703 14.1025 15.4869 14.0609 15.4869ZM13.4755 14.5236L14.0612 15.1093L14.725 14.4454L14.1416 13.862C13.9435 14.106 13.7205 14.3275 13.4755 14.5236Z" fill="#263238"/>
<path d="M19.7793 22.3982C19.569 22.3982 19.3587 22.3157 19.1982 22.1501L14.164 16.9547C13.8442 16.6241 13.8442 16.086 14.164 15.7554L15.3262 14.5566C15.6466 14.2259 16.1674 14.2259 16.4878 14.5566L21.5219 19.752C21.6769 19.9119 21.7624 20.125 21.7624 20.3516C21.7624 20.5783 21.6769 20.7914 21.5219 20.9513L20.3603 22.1501C20.2004 22.3157 19.9901 22.3982 19.7793 22.3982ZM15.9072 14.8737C15.8371 14.8737 15.767 14.9008 15.7134 14.9562L14.5512 16.155C14.4444 16.2652 14.4444 16.4449 14.5512 16.5551L19.5854 21.7505C19.6922 21.8613 19.8658 21.8607 19.9731 21.7505L21.1347 20.5512C21.1868 20.498 21.2147 20.4268 21.2147 20.3511C21.2147 20.2759 21.1862 20.2047 21.1347 20.151L16.1006 14.9556C16.0469 14.9014 15.9773 14.8737 15.9072 14.8737Z" fill="#263238"/>
</svg>
