<svg width="27" height="28" viewBox="0 0 27 28" fill="none" xmlns="http://www.w3.org/2000/svg">
<path d="M13.5 26.5C11.0277 26.5 8.61099 25.7669 6.55538 24.3934C4.49976 23.0199 2.89761 21.0676 1.95151 18.7835C1.00542 16.4995 0.757874 13.9861 1.24019 11.5614C1.7225 9.13661 2.91301 6.90933 4.66117 5.16117C6.40933 3.41301 8.63661 2.2225 11.0614 1.74019C13.4861 1.25787 15.9995 1.50542 18.2835 2.45151C20.5676 3.39761 22.5199 4.99976 23.8934 7.05538C25.2669 9.11099 26 11.5277 26 14C25.9964 17.3141 24.6783 20.4914 22.3349 22.8349C19.9914 25.1783 16.8141 26.4964 13.5 26.5ZM13.5 3.58334C11.4398 3.58334 9.42583 4.19427 7.71281 5.33886C5.9998 6.48346 4.66467 8.11032 3.87626 10.0137C3.08785 11.9171 2.88156 14.0116 3.28349 16.0322C3.68542 18.0528 4.67751 19.9089 6.13431 21.3657C7.59111 22.8225 9.44718 23.8146 11.4678 24.2165C13.4884 24.6184 15.5829 24.4122 17.4863 23.6237C19.3897 22.8353 21.0165 21.5002 22.1611 19.7872C23.3057 18.0742 23.9167 16.0602 23.9167 14C23.9136 11.2383 22.8152 8.5905 20.8623 6.63766C18.9095 4.68481 16.2617 3.58637 13.5 3.58334Z" fill="#FFA9A9" stroke="white" stroke-width="1.5"/>
<path d="M13.3113 20.8749C12.3276 20.8749 11.3863 20.6509 10.5133 20.2093L10.7321 19.777C11.5366 20.1839 12.4043 20.3904 13.3113 20.3904V20.8749Z" fill="#282D33"/>
<path d="M7.61756 13.73L7.13809 13.6598C7.18776 13.3215 7.26577 12.9849 7.3702 12.6589C8.20364 10.053 10.5912 8.30212 13.3111 8.30212V8.78668C10.8027 8.78668 8.60073 10.4022 7.83162 12.8067C7.73531 13.1074 7.66323 13.4181 7.61756 13.73Z" fill="#282D33"/>
<path d="M13.3111 20.8753C12.3449 20.8753 11.4332 20.2606 10.7435 19.1446L11.1558 18.8899C11.7537 19.8577 12.5192 20.3907 13.3111 20.3907C15.0898 20.3907 16.5369 17.788 16.5369 14.5886C16.5369 14.2982 16.5247 14.0069 16.5006 13.7227L16.9834 13.6818C17.0086 13.9795 17.0213 14.2848 17.0213 14.5886C17.0215 18.0551 15.357 20.8753 13.3111 20.8753Z" fill="#282D33"/>
<path d="M10.2914 12.5469L9.81738 12.4465C10.3424 9.96749 11.7465 8.30194 13.3112 8.30194V8.7865C11.9813 8.7865 10.7677 10.2977 10.2914 12.5469Z" fill="#282D33"/>
<path d="M13.3113 20.8749C13.1776 20.8749 13.069 20.7664 13.069 20.6326V8.25037H13.5536V20.3853C16.6155 20.2568 19.0673 17.7058 19.0673 14.5884C19.0673 14.0241 18.9872 13.4666 18.8292 12.9314L19.2939 12.7943C19.4651 13.3741 19.5518 13.9776 19.5518 14.5884C19.5518 18.0548 16.7524 20.8749 13.3113 20.8749Z" fill="#282D33"/>
<path d="M13.4907 12.2149H7.70328V12.6995H13.4907V12.2149Z" fill="#282D33"/>
<path d="M18.9179 16.4766H11.5034V16.9611H18.9179V16.4766Z" fill="#282D33"/>
<path d="M9.93607 19.5254L8.44303 18.4801H5.7467V13.2511H11.0204V18.4802H9.93607V19.5254ZM6.23126 17.9955H8.59579L9.45152 18.5946V17.9955H10.5358V13.7357H6.23126V17.9955Z" fill="#282D33"/>
<path d="M15.375 14.2415V12.4051H14.1876V7.125H21.2525V12.4051H17.2695L15.375 14.2415ZM14.6721 11.9206H15.8597V13.0969L17.0731 11.9206H20.7679V7.60956H14.6721V11.9206Z" fill="#282D33"/>
<path d="M19.5458 8.83228H15.8948V9.31683H19.5458V8.83228Z" fill="#282D33"/>
<path d="M19.5458 10.1182H15.8948V10.6027H19.5458V10.1182Z" fill="#282D33"/>
<path d="M8.38338 17.4166L7.15175 16.1757C6.78942 15.8104 6.78942 15.2163 7.15151 14.8511L7.16047 14.842C7.33818 14.6632 7.57247 14.5657 7.82165 14.5657C8.02723 14.5657 8.2225 14.6321 8.38338 14.7548C8.54461 14.6319 8.73977 14.5657 8.94522 14.5657C9.19453 14.5657 9.42881 14.6633 9.60495 14.8405L9.61743 14.8534C9.97745 15.2163 9.97733 15.8104 9.61512 16.1755L8.38338 17.4166ZM7.82165 15.0502C7.70233 15.0502 7.59003 15.0971 7.5056 15.1822L7.49688 15.191C7.32014 15.3694 7.32014 15.6574 7.49555 15.8344L8.38338 16.7289L9.27157 15.834C9.44686 15.6574 9.44686 15.3694 9.27133 15.1923L9.25897 15.1797C9.17684 15.0971 9.06467 15.0504 8.94534 15.0504C8.82602 15.0504 8.71385 15.0972 8.62929 15.1823L8.38362 15.4312L8.13698 15.1818C8.05291 15.0971 7.94085 15.0502 7.82165 15.0502Z" fill="#282D33"/>
</svg>
