<svg width="30" height="30" viewBox="0 0 30 30" fill="none" xmlns="http://www.w3.org/2000/svg">
<path d="M9.62543 23.5841L4.42369 28.7858C4.00906 29.1409 3.47572 29.3265 2.93024 29.3054C2.38476 29.2843 1.86732 29.0582 1.48131 28.6722C1.09531 28.2862 0.869183 27.7688 0.848113 27.2233C0.827043 26.6778 1.01259 26.1444 1.36766 25.7298L6.56941 20.5281L9.62543 23.5841Z" fill="#374F68"/>
<path d="M7.99993 21.9586L3.34003 26.6185C3.00482 26.9502 2.57057 27.1635 2.10316 27.2261C1.63574 27.2887 1.16066 27.1971 0.75 26.9652C0.85837 26.0333 0.977575 26.12 6.56945 20.5281L7.99993 21.9586Z" fill="#425B72"/>
<path d="M24.5693 15.3368C24.5714 17.0392 24.1279 18.7125 23.2829 20.1904C22.4378 21.6683 21.2207 22.8993 19.7524 23.7609C18.2841 24.6225 16.6159 25.0849 14.9135 25.1019C13.2112 25.1189 11.534 24.69 10.0488 23.8579C8.56362 23.0258 7.32208 21.8194 6.44764 20.3588C5.57321 18.8981 5.09634 17.2339 5.06446 15.5318C5.03257 13.8297 5.44677 12.1488 6.26587 10.6564C7.08498 9.16398 8.28047 7.91195 9.73347 7.02479C11.2111 6.12258 12.9023 5.62997 14.6333 5.59754C16.3643 5.56511 18.0728 5.99403 19.5832 6.84026C21.0936 7.68649 22.3516 8.91952 23.2278 10.4127C24.1041 11.9059 24.5671 13.6054 24.5693 15.3368Z" fill="#DAD7E5"/>
<path d="M23.1286 20.4195C14.459 25.6862 4.42396 15.7271 9.73407 7.02497C18.4362 1.69318 28.4387 11.7499 23.1286 20.4195Z" fill="#EDEBF2"/>
<path d="M14.8165 25.6739C12.772 25.6739 10.7735 25.0677 9.07356 23.9319C7.37365 22.796 6.04873 21.1816 5.26635 19.2928C4.48397 17.4039 4.27926 15.3255 4.67812 13.3203C5.07697 11.3152 6.06148 9.47329 7.50713 8.02763C8.95278 6.58198 10.7946 5.59748 12.7998 5.19863C14.805 4.79977 16.8834 5.00448 18.7723 5.78686C20.6611 6.56924 22.2755 7.89416 23.4113 9.59406C24.5472 11.294 25.1534 13.2925 25.1534 15.337C25.1534 16.6944 24.8861 18.0386 24.3666 19.2928C23.8471 20.5469 23.0857 21.6864 22.1258 22.6463C21.1659 23.6062 20.0264 24.3676 18.7723 24.8871C17.5181 25.4066 16.1739 25.6739 14.8165 25.6739ZM14.8165 6.1674C13.0029 6.1674 11.2301 6.70519 9.72213 7.71275C8.2142 8.72032 7.03891 10.1524 6.34488 11.8279C5.65086 13.5035 5.46927 15.3471 5.82308 17.1259C6.17689 18.9046 7.05021 20.5385 8.3326 21.8208C9.61499 23.1032 11.2488 23.9766 13.0276 24.3304C14.8063 24.6842 16.65 24.5026 18.3255 23.8086C20.001 23.1145 21.4331 21.9392 22.4407 20.4313C23.4483 18.9234 23.986 17.1505 23.986 15.337C23.986 12.9051 23.02 10.5727 21.3003 8.85311C19.5807 7.13348 17.2484 6.1674 14.8165 6.1674Z" fill="#ADC5DC" stroke="white"/>
<path d="M15.2145 18.5357C15.6383 18.5357 16.0526 18.41 16.405 18.1746C16.7574 17.9391 17.0321 17.6044 17.1943 17.2129C17.3564 16.8213 17.3989 16.3905 17.3162 15.9748C17.2335 15.5591 17.0294 15.1773 16.7297 14.8776C16.4301 14.5779 16.0482 14.3739 15.6326 14.2912C15.2169 14.2085 14.786 14.2509 14.3945 14.4131C14.0029 14.5753 13.6683 14.85 13.4328 15.2024C13.1973 15.5547 13.0717 15.969 13.0717 16.3929C13.0717 16.9612 13.2974 17.5062 13.6993 17.9081C14.1011 18.31 14.6462 18.5357 15.2145 18.5357ZM15.2145 15.1071C15.4688 15.1071 15.7174 15.1825 15.9288 15.3238C16.1403 15.4651 16.305 15.6659 16.4024 15.9008C16.4997 16.1358 16.5251 16.3943 16.4755 16.6437C16.4259 16.8931 16.3035 17.1222 16.1236 17.302C15.9438 17.4818 15.7147 17.6043 15.4653 17.6539C15.2159 17.7035 14.9574 17.678 14.7225 17.5807C14.4876 17.4834 14.2868 17.3186 14.1455 17.1072C14.0042 16.8957 13.9288 16.6471 13.9288 16.3929C13.9288 16.0519 14.0643 15.7248 14.3054 15.4837C14.5465 15.2426 14.8735 15.1071 15.2145 15.1071Z" fill="black"/>
<path d="M10.4741 14.6786C10.8131 14.6786 11.1445 14.578 11.4265 14.3897C11.7084 14.2013 11.9281 13.9336 12.0578 13.6203C12.1876 13.3071 12.2215 12.9624 12.1554 12.6298C12.0893 12.2973 11.926 11.9919 11.6862 11.7521C11.4465 11.5124 11.141 11.3491 10.8085 11.2829C10.476 11.2168 10.1313 11.2507 9.81802 11.3805C9.50478 11.5102 9.23704 11.73 9.04867 12.0119C8.86031 12.2938 8.75977 12.6252 8.75977 12.9643C8.75977 13.4189 8.94038 13.855 9.26187 14.1765C9.58336 14.498 10.0194 14.6786 10.4741 14.6786ZM10.4741 12.1071C10.6436 12.1071 10.8093 12.1574 10.9503 12.2516C11.0912 12.3458 11.2011 12.4796 11.2659 12.6363C11.3308 12.7929 11.3478 12.9652 11.3147 13.1315C11.2817 13.2978 11.2 13.4505 11.0801 13.5704C10.9603 13.6903 10.8075 13.7719 10.6413 13.805C10.475 13.838 10.3027 13.8211 10.146 13.7562C9.98941 13.6913 9.85555 13.5814 9.76136 13.4405C9.66718 13.2995 9.61691 13.1338 9.61691 12.9643C9.61691 12.737 9.70721 12.5189 9.86796 12.3582C10.0287 12.1974 10.2467 12.1071 10.4741 12.1071Z" fill="black"/>
<path d="M17.3569 18.9642H13.0712C12.5029 18.9642 11.9578 19.19 11.556 19.5919C11.1541 19.9937 10.9283 20.5388 10.9283 21.1071V23.2499H11.7855V21.1071C11.7855 20.7661 11.9209 20.4391 12.1621 20.198C12.4032 19.9568 12.7302 19.8214 13.0712 19.8214H17.3569C17.6979 19.8214 18.0249 19.9568 18.2661 20.198C18.5072 20.4391 18.6426 20.7661 18.6426 21.1071V23.2499H19.4998V21.1071C19.4998 20.5388 19.274 19.9937 18.8721 19.5919C18.4703 19.19 17.9252 18.9642 17.3569 18.9642Z" fill="black"/>
<path d="M12.2143 15.1073H9.21429C8.75963 15.1073 8.32359 15.2879 8.0021 15.6094C7.68061 15.9309 7.5 16.3669 7.5 16.8216V18.5359H8.35714V16.8216C8.35714 16.5943 8.44745 16.3762 8.60819 16.2155C8.76894 16.0547 8.98696 15.9644 9.21429 15.9644H12.2143V15.1073Z" fill="black"/>
<path d="M15.0006 2.00001H15C12.4288 2.00001 9.91543 2.76244 7.77759 4.1909C5.63975 5.61936 3.97351 7.64968 2.98957 10.0251C2.00563 12.4006 1.74819 15.0144 2.2498 17.5362C2.75141 20.0579 3.98953 22.3743 5.80762 24.1924C7.6257 26.0105 9.94208 27.2486 12.4638 27.7502C14.9856 28.2518 17.5995 27.9944 19.9749 27.0104C22.3503 26.0265 24.3806 24.3603 25.8091 22.2224C27.2376 20.0846 28 17.5712 28 15V14.9995C27.9962 11.5529 26.6254 8.24869 24.1884 5.81164C21.7513 3.37459 18.4471 2.00379 15.0006 2.00001ZM14.9995 29.5C12.1318 29.4999 9.3286 28.6495 6.94424 27.0563C4.55972 25.463 2.70122 23.1984 1.60375 20.5489C0.506283 17.8994 0.219135 14.9839 0.77862 12.1712C1.33811 9.35847 2.7191 6.77482 4.74696 4.74696C6.77482 2.7191 9.35847 1.33811 12.1712 0.77862C14.9839 0.219135 17.8994 0.506283 20.5489 1.60375C23.1984 2.70122 25.463 4.55972 27.0563 6.94424C28.6495 9.3286 29.4999 12.1318 29.5 14.9995C29.4958 18.844 27.9668 22.5298 25.2483 25.2483C22.5298 27.9668 18.844 29.4958 14.9995 29.5Z" fill="#898989" stroke="white"/>
</svg>
