<svg width="30" height="30" viewBox="0 0 30 30" fill="none" xmlns="http://www.w3.org/2000/svg">
<path d="M9.62543 23.5841L4.42369 28.7858C4.00906 29.1409 3.47572 29.3265 2.93024 29.3054C2.38476 29.2843 1.86732 29.0582 1.48131 28.6722C1.09531 28.2862 0.869183 27.7688 0.848113 27.2233C0.827043 26.6778 1.01259 26.1444 1.36766 25.7298L6.56941 20.5281L9.62543 23.5841Z" fill="#374F68"/>
<path d="M7.99993 21.9586L3.34003 26.6185C3.00482 26.9502 2.57057 27.1635 2.10316 27.2261C1.63574 27.2887 1.16066 27.1971 0.75 26.9652C0.85837 26.0333 0.977575 26.12 6.56945 20.5281L7.99993 21.9586Z" fill="#425B72"/>
<path d="M24.5693 15.3368C24.5714 17.0392 24.1279 18.7125 23.2829 20.1904C22.4378 21.6683 21.2207 22.8993 19.7524 23.7609C18.2841 24.6225 16.6159 25.0849 14.9135 25.1019C13.2112 25.1189 11.534 24.69 10.0488 23.8579C8.56362 23.0258 7.32208 21.8194 6.44764 20.3588C5.57321 18.8981 5.09634 17.2339 5.06446 15.5318C5.03257 13.8297 5.44677 12.1488 6.26587 10.6564C7.08498 9.16398 8.28047 7.91195 9.73347 7.02479C11.2111 6.12258 12.9023 5.62997 14.6333 5.59754C16.3643 5.56511 18.0728 5.99403 19.5832 6.84026C21.0936 7.68649 22.3516 8.91952 23.2278 10.4127C24.1041 11.9059 24.5671 13.6054 24.5693 15.3368Z" fill="#DAD7E5"/>
<path d="M23.1286 20.4195C14.459 25.6862 4.42396 15.7271 9.73407 7.02497C18.4362 1.69318 28.4387 11.7499 23.1286 20.4195Z" fill="#EDEBF2"/>
<path d="M14.8165 25.6739C12.772 25.6739 10.7735 25.0677 9.07355 23.9319C7.37365 22.796 6.04873 21.1816 5.26635 19.2928C4.48397 17.4039 4.27926 15.3255 4.67812 13.3203C5.07697 11.3152 6.06148 9.47329 7.50713 8.02763C8.95278 6.58198 10.7946 5.59748 12.7998 5.19863C14.805 4.79977 16.8834 5.00448 18.7723 5.78686C20.6611 6.56924 22.2755 7.89416 23.4113 9.59406C24.5472 11.294 25.1534 13.2925 25.1534 15.337C25.1534 16.6944 24.8861 18.0386 24.3666 19.2928C23.8471 20.5469 23.0857 21.6864 22.1258 22.6463C21.1659 23.6062 20.0264 24.3676 18.7723 24.8871C17.5181 25.4066 16.1739 25.6739 14.8165 25.6739ZM14.8165 6.1674C13.0029 6.1674 11.2301 6.70519 9.72213 7.71275C8.2142 8.72032 7.03891 10.1524 6.34488 11.8279C5.65086 13.5035 5.46927 15.3471 5.82308 17.1259C6.17689 18.9046 7.05021 20.5385 8.3326 21.8208C9.61499 23.1032 11.2488 23.9766 13.0276 24.3304C14.8063 24.6842 16.65 24.5026 18.3255 23.8086C20.001 23.1145 21.4331 21.9392 22.4407 20.4313C23.4483 18.9234 23.986 17.1505 23.986 15.337C23.986 12.9051 23.02 10.5727 21.3003 8.85311C19.5807 7.13348 17.2484 6.1674 14.8165 6.1674Z" fill="#ADC5DC" stroke="white"/>
<path d="M17.1979 15.5311H14.6979" stroke="#222A33" stroke-miterlimit="2" stroke-linecap="round" stroke-linejoin="round"/>
<path d="M13.0312 15.5312H8.86534C8.86534 15.5312 8.78767 14.2296 10.19 13.0312" stroke="#222A33" stroke-miterlimit="2" stroke-linecap="round" stroke-linejoin="round"/>
<path d="M9.28127 21.3646C10.4319 21.3646 11.3646 20.6184 11.3646 19.6979C11.3646 18.7774 10.4319 18.0312 9.28127 18.0312C8.13068 18.0312 7.19794 18.7774 7.19794 19.6979C7.19794 20.6184 8.13068 21.3646 9.28127 21.3646Z" stroke="#222A33" stroke-miterlimit="2" stroke-linecap="round" stroke-linejoin="round"/>
<path d="M14.6979 19.6979C14.6979 18.7781 15.6316 18.0312 16.7813 18.0312C17.931 18.0312 18.8646 18.7781 18.8646 19.6979C18.8646 20.6177 17.931 21.3646 16.7813 21.3646C16.4407 21.3646 16.1183 21.2991 15.8344 21.1828" stroke="#222A33" stroke-miterlimit="2" stroke-linecap="round" stroke-linejoin="round"/>
<path d="M7.5626 19.6979H6.5351C5.98067 19.6979 5.53125 19.2414 5.53125 18.6781C5.53125 18.5105 5.53125 18.3406 5.53125 18.1829C5.53125 17.792 5.84279 17.4755 6.2276 17.4755C6.3701 17.4755 6.49587 17.3794 6.5351 17.2405C6.66606 16.7745 6.96894 15.6979 7.23548 14.7496C7.52163 13.7328 8.43663 13.0312 9.47856 13.0312H14.8503C15.4434 13.0312 15.9701 13.4169 16.1582 13.9889C16.1853 14.0727 16.2141 14.1595 16.243 14.2474C16.5643 15.2273 17.4672 15.8884 18.4843 15.8884H18.6891C19.0947 15.8884 19.4841 16.0519 19.7709 16.3432C20.0576 16.6345 20.2186 17.0301 20.2186 17.4421V17.4755C20.3911 17.4755 20.5312 17.6179 20.5312 17.7932C20.5312 18.0264 20.5312 18.357 20.5312 18.6781C20.5312 19.2414 20.0818 19.6979 19.5274 19.6979H18.4999" stroke="#222A33" stroke-miterlimit="2" stroke-linecap="round" stroke-linejoin="round"/>
<path d="M14.6979 19.6979H13.0312" stroke="#222A33" stroke-miterlimit="2" stroke-linecap="round" stroke-linejoin="round"/>
<path d="M15.0006 2.00001H15C12.4288 2.00001 9.91543 2.76244 7.77759 4.1909C5.63975 5.61936 3.97351 7.64968 2.98957 10.0251C2.00563 12.4006 1.74819 15.0144 2.2498 17.5362C2.75141 20.0579 3.98953 22.3743 5.80762 24.1924C7.6257 26.0105 9.94208 27.2486 12.4638 27.7502C14.9856 28.2518 17.5995 27.9944 19.9749 27.0104C22.3503 26.0265 24.3806 24.3603 25.8091 22.2224C27.2376 20.0846 28 17.5712 28 15V14.9995C27.9962 11.5529 26.6254 8.24869 24.1884 5.81164C21.7513 3.37459 18.4471 2.00379 15.0006 2.00001ZM14.9995 29.5C12.1318 29.4999 9.3286 28.6495 6.94424 27.0563C4.55972 25.463 2.70122 23.1984 1.60375 20.5489C0.506283 17.8994 0.219135 14.9839 0.77862 12.1712C1.33811 9.35847 2.7191 6.77482 4.74696 4.74696C6.77482 2.7191 9.35847 1.33811 12.1712 0.77862C14.9839 0.219135 17.8994 0.506283 20.5489 1.60375C23.1984 2.70122 25.463 4.55972 27.0563 6.94424C28.6495 9.3286 29.4999 12.1318 29.5 14.9995C29.4958 18.844 27.9668 22.5298 25.2483 25.2483C22.5298 27.9668 18.844 29.4958 14.9995 29.5Z" fill="#898989" stroke="white"/>
</svg>
