<svg width="27" height="28" viewBox="0 0 27 28" fill="none" xmlns="http://www.w3.org/2000/svg">
<path d="M13.5 26.5C11.0277 26.5 8.61099 25.7669 6.55538 24.3934C4.49976 23.0199 2.89761 21.0676 1.95151 18.7835C1.00542 16.4995 0.757874 13.9861 1.24019 11.5614C1.7225 9.13661 2.91301 6.90933 4.66117 5.16117C6.40933 3.41301 8.63661 2.2225 11.0614 1.74019C13.4861 1.25787 15.9995 1.50542 18.2835 2.45151C20.5676 3.39761 22.5199 4.99976 23.8934 7.05538C25.2669 9.11099 26 11.5277 26 14C25.9964 17.3141 24.6783 20.4914 22.3349 22.8349C19.9914 25.1783 16.8141 26.4964 13.5 26.5ZM13.5 3.58334C11.4398 3.58334 9.42583 4.19427 7.71281 5.33886C5.9998 6.48346 4.66467 8.11032 3.87626 10.0137C3.08785 11.9171 2.88156 14.0116 3.28349 16.0322C3.68542 18.0528 4.67751 19.9089 6.13431 21.3657C7.59111 22.8225 9.44718 23.8146 11.4678 24.2165C13.4884 24.6184 15.5829 24.4122 17.4863 23.6237C19.3897 22.8353 21.0165 21.5002 22.1611 19.7872C23.3057 18.0742 23.9167 16.0602 23.9167 14C23.9136 11.2383 22.8152 8.5905 20.8623 6.63766C18.9095 4.68481 16.2617 3.58637 13.5 3.58334Z" fill="#FFA9A9" stroke="white" stroke-width="1.5"/>
<path d="M9.02122 21.1534L4.68644 25.4882C4.34092 25.7841 3.89646 25.9387 3.4419 25.9211C2.98733 25.9036 2.55613 25.7151 2.23446 25.3935C1.91279 25.0718 1.72435 24.6406 1.70679 24.186C1.68923 23.7314 1.84385 23.287 2.13975 22.9415L6.47454 18.6067L9.02122 21.1534Z" fill="#374F68"/>
<path d="M7.66661 19.7988L3.78336 23.682C3.50402 23.9584 3.14214 24.1362 2.75263 24.1883C2.36312 24.2405 1.96722 24.1642 1.625 23.971C1.71531 23.1943 1.81465 23.2666 6.47454 18.6067L7.66661 19.7988Z" fill="#425B72"/>
<path d="M21.4744 14.2808C21.4762 15.6995 21.1067 17.0939 20.4025 18.3255C19.6982 19.5571 18.6839 20.5829 17.4604 21.3009C16.2368 22.0189 14.8466 22.4042 13.428 22.4184C12.0094 22.4326 10.6117 22.0752 9.37407 21.3818C8.13639 20.6883 7.10177 19.683 6.37308 18.4658C5.64438 17.2485 5.24699 15.8617 5.22042 14.4433C5.19385 13.0249 5.53901 11.6242 6.2216 10.3805C6.90419 9.13679 7.90043 8.09343 9.11127 7.35414C10.3426 6.6023 11.752 6.19178 13.1945 6.16476C14.637 6.13773 16.0607 6.49517 17.3194 7.20036C18.5781 7.90555 19.6263 8.93308 20.3566 10.1774C21.0868 11.4217 21.4726 12.838 21.4744 14.2808Z" fill="#DAD7E5"/>
<path d="M20.2738 18.5162C13.0492 22.9052 4.68665 14.6058 9.11175 7.3541C16.3635 2.91094 24.6989 11.2915 20.2738 18.5162Z" fill="#EDEBF2"/>
<path d="M13.3471 22.8116C11.6598 22.8116 10.0105 22.3113 8.6076 21.3739C7.20472 20.4365 6.1113 19.1042 5.46563 17.5454C4.81995 15.9866 4.65101 14.2714 4.98017 12.6165C5.30934 10.9617 6.12182 9.44168 7.31487 8.24862C8.50793 7.05557 10.028 6.24308 11.6828 5.91392C13.3376 5.58476 15.0529 5.7537 16.6117 6.39937C18.1705 7.04505 19.5028 8.13847 20.4402 9.54135C21.3776 10.9442 21.8779 12.5936 21.8779 14.2808C21.8779 15.4011 21.6572 16.5104 21.2285 17.5454C20.7998 18.5804 20.1714 19.5208 19.3793 20.313C18.5871 21.1052 17.6467 21.7335 16.6117 22.1623C15.5767 22.591 14.4674 22.8116 13.3471 22.8116ZM13.3471 6.55617C11.8193 6.55617 10.3258 7.00921 9.05548 7.85801C7.78517 8.7068 6.79508 9.91322 6.21042 11.3247C5.62576 12.7362 5.47279 14.2894 5.77085 15.7878C6.0689 17.2863 6.80461 18.6627 7.88492 19.743C8.96523 20.8233 10.3416 21.559 11.8401 21.857C13.3385 22.1551 14.8917 22.0021 16.3032 21.4175C17.7147 20.8328 18.9211 19.8427 19.7699 18.5724C20.6187 17.3021 21.0717 15.8086 21.0717 14.2808C21.0717 12.2321 20.2579 10.2673 18.8092 8.81866C17.3606 7.37001 15.3958 6.55617 13.3471 6.55617Z" fill="#ADC5DC" stroke="white"/>
<path d="M15.3316 14.4427H13.2483" stroke="#222A33" stroke-miterlimit="2" stroke-linecap="round" stroke-linejoin="round"/>
<path d="M11.8594 14.4427H8.38779C8.38779 14.4427 8.32307 13.358 9.49164 12.3594" stroke="#222A33" stroke-miterlimit="2" stroke-linecap="round" stroke-linejoin="round"/>
<path d="M8.73437 19.3038C9.6932 19.3038 10.4705 18.682 10.4705 17.9149C10.4705 17.1478 9.6932 16.526 8.73437 16.526C7.77554 16.526 6.99826 17.1478 6.99826 17.9149C6.99826 18.682 7.77554 19.3038 8.73437 19.3038Z" stroke="#222A33" stroke-miterlimit="2" stroke-linecap="round" stroke-linejoin="round"/>
<path d="M13.2483 17.9149C13.2483 17.1484 14.0263 16.526 14.9844 16.526C15.9425 16.526 16.7205 17.1484 16.7205 17.9149C16.7205 18.6814 15.9425 19.3038 14.9844 19.3038C14.7006 19.3038 14.4319 19.2492 14.1953 19.1523" stroke="#222A33" stroke-miterlimit="2" stroke-linecap="round" stroke-linejoin="round"/>
<path d="M7.30216 17.9149H6.44591C5.98389 17.9149 5.60938 17.5345 5.60938 17.0651C5.60938 16.9254 5.60938 16.7838 5.60938 16.6524C5.60938 16.3267 5.86899 16.0629 6.18966 16.0629C6.30841 16.0629 6.41322 15.9828 6.44591 15.8671C6.55505 15.4788 6.80745 14.5816 7.02957 13.7914C7.26803 12.944 8.03053 12.3594 8.8988 12.3594H13.3752C13.8695 12.3594 14.3084 12.6807 14.4651 13.1574C14.4877 13.2273 14.5118 13.2995 14.5358 13.3728C14.8036 14.1894 15.556 14.7403 16.4036 14.7403H16.5743C16.9123 14.7403 17.2368 14.8766 17.4757 15.1193C17.7147 15.3621 17.8488 15.6917 17.8488 16.0351V16.0629C17.9925 16.0629 18.1094 16.1816 18.1094 16.3276C18.1094 16.522 18.1094 16.7975 18.1094 17.0651C18.1094 17.5345 17.7349 17.9149 17.2728 17.9149H16.4166" stroke="#222A33" stroke-miterlimit="2" stroke-linecap="round" stroke-linejoin="round"/>
<path d="M13.2483 17.9149H11.8594" stroke="#222A33" stroke-miterlimit="2" stroke-linecap="round" stroke-linejoin="round"/>
</svg>
