<svg width="30" height="30" viewBox="0 0 30 30" fill="none" xmlns="http://www.w3.org/2000/svg">
<path d="M16.2906 13.5C13.8806 13.5 9.93432 13.5 7.52425 13.5C7.18384 13.5 6.87759 13.716 6.75122 14.0451C6.58533 14.4763 6.35564 15.0741 6.19429 15.4946C6.06586 15.8284 6 16.1846 6 16.5441V18.6326C6 19.1117 6.37293 19.5 6.83313 19.5C8.54879 19.5 12.6247 19.5 16.2906 19.5" stroke="#222A33" stroke-miterlimit="2" stroke-linecap="round" stroke-linejoin="round"/>
<path fill-rule="evenodd" clip-rule="evenodd" d="M19.338 7.34082C19.244 6.99181 18.9321 6.75 18.5765 6.75C16.9232 6.75 12.3268 6.75 10.6735 6.75C10.3179 6.75 10.006 6.99181 9.91196 7.34082C9.46778 8.98584 8.25 13.5 8.25 13.5H15C15 13.5 20.5 9.5 19.338 7.34082Z" fill="#EDEBF2" stroke="#222A33" stroke-miterlimit="2" stroke-linecap="round" stroke-linejoin="round"/>
<path d="M20.7044 25.6673L20.3734 25.3746L20.0959 25.1293C19.9653 25.014 18.4396 23.6555 16.9426 21.8743C16.1942 20.9839 15.4432 19.9764 14.8769 18.9564C14.3155 17.9452 13.9082 16.8734 13.9082 15.8666L20.7044 25.6673ZM20.7044 25.6673L21.0356 25.3747M20.7044 25.6673L21.0356 25.3747M21.0356 25.3747L21.3135 25.1293L21.3136 25.1291M21.0356 25.3747L21.3136 25.1291M21.3136 25.1291C21.4439 25.014 22.9693 23.6555 24.4661 21.8742C25.2143 20.9839 25.9653 19.9763 26.5315 18.9563C27.0928 17.9451 27.5 16.8734 27.5 15.8666C27.5 12.0076 24.469 8.83728 20.7045 8.83728C16.9393 8.83728 13.908 12.0075 13.9082 15.8666L21.3136 25.1291ZM15.7688 15.8668C15.7688 13.0225 17.9998 10.7378 20.7045 10.7378C23.4085 10.7378 25.6394 13.0225 25.6394 15.8668C25.6394 16.4246 25.4146 17.1076 25.0099 17.8675C24.6099 18.6188 24.0584 19.4005 23.4615 20.1443C22.4657 21.3849 21.3689 22.4882 20.7045 23.1251C20.0399 22.4883 18.9429 21.3849 17.947 20.1442C17.35 19.4005 16.7984 18.6187 16.3983 17.8674C15.9937 17.1076 15.7688 16.4246 15.7688 15.8668Z" fill="#A1A6AB" stroke="white"/>
<path d="M6 15.75H7.71005C8.07634 15.75 8.411 15.9741 8.57476 16.329C8.76978 16.7516 9 17.25 9 17.25" stroke="#222A33" stroke-miterlimit="2" stroke-linecap="round" stroke-linejoin="round"/>
<path d="M8.25 12.75C8.25 12.75 7.58825 12 6.75 12" stroke="#222A33" stroke-width="2" stroke-miterlimit="2" stroke-linecap="round" stroke-linejoin="round"/>
<path fill-rule="evenodd" clip-rule="evenodd" d="M10.5 19.5H7.5V21.0055C7.5 21.2026 7.58229 21.392 7.72843 21.532C7.875 21.6715 8.07343 21.75 8.28 21.75C8.72357 21.75 9.27643 21.75 9.72 21.75C9.92657 21.75 10.125 21.6715 10.2716 21.532C10.4177 21.392 10.5 21.2026 10.5 21.0055C10.5 20.3501 10.5 19.5 10.5 19.5Z" stroke="#222A33" stroke-miterlimit="2" stroke-linecap="round" stroke-linejoin="round"/>
<path d="M15.0006 2.00001H15C12.4288 2.00001 9.91543 2.76244 7.77759 4.1909C5.63975 5.61936 3.97351 7.64968 2.98957 10.0251C2.00563 12.4006 1.74819 15.0144 2.2498 17.5362C2.75141 20.0579 3.98953 22.3743 5.80762 24.1924C7.6257 26.0105 9.94208 27.2486 12.4638 27.7502C14.9856 28.2518 17.5995 27.9944 19.9749 27.0104C22.3503 26.0265 24.3806 24.3603 25.8091 22.2224C27.2376 20.0846 28 17.5712 28 15V14.9995C27.9962 11.5529 26.6254 8.24869 24.1884 5.81164C21.7513 3.37459 18.4471 2.00379 15.0006 2.00001ZM14.9995 29.5C12.1318 29.4999 9.3286 28.6495 6.94424 27.0563C4.55972 25.463 2.70122 23.1984 1.60375 20.5489C0.506283 17.8994 0.219135 14.9839 0.77862 12.1712C1.33811 9.35847 2.7191 6.77482 4.74696 4.74696C6.77482 2.7191 9.35847 1.33811 12.1712 0.77862C14.9839 0.219135 17.8994 0.506283 20.5489 1.60375C23.1984 2.70122 25.463 4.55972 27.0563 6.94424C28.6495 9.3286 29.4999 12.1318 29.5 14.9995C29.4958 18.844 27.9668 22.5298 25.2483 25.2483C22.5298 27.9668 18.844 29.4958 14.9995 29.5Z" fill="black" stroke="white"/>
<path d="M21 20C21.7911 20 22.5645 19.7654 23.2223 19.3259C23.8801 18.8864 24.3928 18.2616 24.6955 17.5307C24.9983 16.7998 25.0775 15.9956 24.9231 15.2196C24.7688 14.4437 24.3878 13.731 23.8284 13.1716C23.269 12.6122 22.5563 12.2312 21.7804 12.0769C21.0044 11.9225 20.2002 12.0017 19.4693 12.3045C18.7384 12.6072 18.1136 13.1199 17.6741 13.7777C17.2346 14.4355 17 15.2089 17 16C17 17.0609 17.4214 18.0783 18.1716 18.8284C18.9217 19.5786 19.9391 20 21 20ZM21 12.6667C21.6593 12.6667 22.3037 12.8622 22.8519 13.2284C23.4001 13.5947 23.8273 14.1153 24.0796 14.7244C24.3319 15.3335 24.3979 16.0037 24.2693 16.6503C24.1407 17.2969 23.8232 17.8908 23.357 18.357C22.8908 18.8232 22.2969 19.1407 21.6503 19.2693C21.0037 19.3979 20.3335 19.3319 19.7244 19.0796C19.1153 18.8273 18.5947 18.4001 18.2284 17.8519C17.8622 17.3037 17.6667 16.6593 17.6667 16C17.6667 15.1159 18.0179 14.2681 18.643 13.643C19.2681 13.0179 20.1159 12.6667 21 12.6667Z" fill="#272835"/>
<path d="M20.6667 18H21.3333V16.3333H23V15.6667H21.3333V14H20.6667V15.6667H19V16.3333H20.6667V18Z" fill="#272835"/>
</svg>
