<svg width="27" height="28" viewBox="0 0 27 28" fill="none" xmlns="http://www.w3.org/2000/svg">
<path d="M13.5 26.5C11.0277 26.5 8.61099 25.7669 6.55538 24.3934C4.49976 23.0199 2.89761 21.0676 1.95151 18.7835C1.00542 16.4995 0.757874 13.9861 1.24019 11.5614C1.7225 9.13661 2.91301 6.90933 4.66117 5.16117C6.40933 3.41301 8.63661 2.2225 11.0614 1.74019C13.4861 1.25787 15.9995 1.50542 18.2835 2.45151C20.5676 3.39761 22.5199 4.99976 23.8934 7.05538C25.2669 9.11099 26 11.5277 26 14C25.9964 17.3141 24.6783 20.4914 22.3349 22.8349C19.9914 25.1783 16.8141 26.4964 13.5 26.5ZM13.5 3.58334C11.4398 3.58334 9.42583 4.19427 7.71281 5.33886C5.9998 6.48346 4.66467 8.11032 3.87626 10.0137C3.08785 11.9171 2.88156 14.0116 3.28349 16.0322C3.68542 18.0528 4.67751 19.9089 6.13431 21.3657C7.59111 22.8225 9.44718 23.8146 11.4678 24.2165C13.4884 24.6184 15.5829 24.4122 17.4863 23.6237C19.3897 22.8353 21.0165 21.5002 22.1611 19.7872C23.3057 18.0742 23.9167 16.0602 23.9167 14C23.9136 11.2383 22.8152 8.5905 20.8623 6.63766C18.9095 4.68481 16.2617 3.58637 13.5 3.58334Z" fill="#FFA9A9" stroke="white" stroke-width="1.5"/>
<path fill-rule="evenodd" clip-rule="evenodd" d="M11.4373 13.3749C10.9642 13.3749 10.4988 13.2469 10.0905 13.0055C9.70449 12.7759 9.37553 12.4488 9.14042 12.0606C8.91596 11.6901 8.78341 11.2724 8.75535 10.8507C8.72536 10.3955 8.8134 9.95607 9.01852 9.54226C9.01948 9.54128 9.01948 9.5393 9.02045 9.53832L11.2322 5.27016C11.2728 5.19232 11.3512 5.14404 11.4373 5.14404C11.5234 5.14404 11.6028 5.19232 11.6424 5.27016L13.8542 9.53733C13.8551 9.53832 13.8551 9.54029 13.8561 9.54128C14.0612 9.95509 14.1493 10.3955 14.1193 10.8497C14.0912 11.2704 13.9577 11.6891 13.7342 12.0596C13.4991 12.4488 13.1701 12.7759 12.7841 13.0045C12.3758 13.2469 11.9104 13.3749 11.4373 13.3749ZM9.43165 9.75606C9.26523 10.093 9.19364 10.4497 9.21783 10.8182C9.24105 11.163 9.35038 11.5059 9.53517 11.8113C9.73061 12.1345 10.0035 12.4054 10.3237 12.5966C10.6604 12.7966 11.0455 12.902 11.4363 12.902C11.8272 12.902 12.2123 12.7966 12.549 12.5966C12.8692 12.4064 13.1421 12.1345 13.3375 11.8113C13.5223 11.5059 13.6317 11.163 13.6549 10.8182C13.6791 10.4497 13.6075 10.092 13.441 9.75606L11.4373 5.88693L9.43165 9.75606Z" fill="#212121"/>
<path fill-rule="evenodd" clip-rule="evenodd" d="M11.3618 11.5967C11.2737 11.5967 11.2029 11.5258 11.2029 11.4377V9.78395C11.2029 9.69587 11.2737 9.625 11.3618 9.625C11.4499 9.625 11.5208 9.69587 11.5208 9.78395V11.4377C11.5208 11.5258 11.4493 11.5967 11.3618 11.5967Z" fill="#212121"/>
<path fill-rule="evenodd" clip-rule="evenodd" d="M12.1877 10.7699H10.534C10.4459 10.7699 10.375 10.6991 10.375 10.611C10.375 10.5229 10.4459 10.452 10.534 10.452H12.1877C12.2758 10.452 12.3467 10.5229 12.3467 10.611C12.3467 10.6991 12.2758 10.7699 12.1877 10.7699Z" fill="#212121"/>
<path d="M11.3354 16.8165C10.101 16.8165 8.93902 16.3387 8.06295 15.4708C7.18586 14.6017 6.70248 13.4479 6.7019 12.2217C6.70156 10.9992 7.18206 9.84682 8.05513 8.97686L8.38049 9.30337C7.595 10.0862 7.16261 11.1226 7.16295 12.2215C7.16341 13.3237 7.59834 14.3614 8.38739 15.1432C9.17656 15.925 10.2235 16.3555 11.3356 16.3555C11.3369 16.3555 11.3381 16.3556 11.3392 16.3555C12.4556 16.3555 13.5057 15.9225 14.2964 15.1361C15.0809 14.3551 15.5129 13.3193 15.5129 12.2197C15.5129 11.1165 15.0785 10.0786 14.2892 9.29739L14.6135 8.96973C15.4906 9.83819 15.9739 10.9925 15.9739 12.2197C15.9739 13.4428 15.4935 14.5946 14.6213 15.4629C13.7438 16.3358 12.578 16.8164 11.3392 16.8165C11.3382 16.8165 11.3369 16.8165 11.3354 16.8165Z" fill="#282D33"/>
<path d="M11.4945 15.7364C11.3355 15.7364 11.1754 15.7255 11.0149 15.7035C10.0999 15.5778 9.28975 15.104 8.7341 14.3691C8.18454 13.6423 7.95137 12.7476 8.07763 11.8497L8.53407 11.9138C8.42508 12.6894 8.62672 13.4627 9.10181 14.091C9.583 14.7275 10.2848 15.1379 11.0778 15.2467C11.8689 15.3555 12.6557 15.1513 13.2939 14.6712C13.9274 14.1955 14.3363 13.5048 14.4455 12.7267C14.4901 12.4067 14.4824 12.0863 14.4231 11.7746L14.8761 11.6884C14.9449 12.0496 14.9537 12.4204 14.902 12.7906C14.7758 13.6911 14.3032 14.4901 13.5711 15.0399C12.9643 15.496 12.2409 15.7364 11.4945 15.7364Z" fill="#282D33"/>
<path d="M18.0935 20.875L14.1722 16.9879L16.1478 15.03L20.0694 18.9167L18.0935 20.875ZM14.8269 16.9879L18.0935 20.2259L19.4146 18.9167L16.1478 15.6791L14.8269 16.9879Z" fill="#282D33"/>
<path d="M18.7188 18.9044L16.7279 16.9309L16.4033 17.2584L18.3941 19.2319L18.7188 18.9044Z" fill="#282D33"/>
<path d="M16.7449 16.3223L16.4203 15.9948L15.148 17.2555L15.4727 17.5831L16.7449 16.3223Z" fill="#282D33"/>
<path d="M15.5182 15.9336L14.8286 15.2499L14.5039 15.5774L15.1936 16.2611L15.5182 15.9336Z" fill="#282D33"/>
</svg>
