<svg width="27" height="28" viewBox="0 0 27 28" fill="none" xmlns="http://www.w3.org/2000/svg">
<path d="M13.5 26.5C11.0277 26.5 8.61099 25.7669 6.55538 24.3934C4.49976 23.0199 2.89761 21.0676 1.95151 18.7835C1.00542 16.4995 0.757874 13.9861 1.24019 11.5614C1.7225 9.13661 2.91301 6.90933 4.66117 5.16117C6.40933 3.41301 8.63661 2.2225 11.0614 1.74019C13.4861 1.25787 15.9995 1.50542 18.2835 2.45151C20.5676 3.39761 22.5199 4.99976 23.8934 7.05538C25.2669 9.11099 26 11.5277 26 14C25.9964 17.3141 24.6783 20.4914 22.3349 22.8349C19.9914 25.1783 16.8141 26.4964 13.5 26.5ZM13.5 3.58334C11.4398 3.58334 9.42583 4.19427 7.71281 5.33886C5.9998 6.48346 4.66467 8.11032 3.87626 10.0137C3.08785 11.9171 2.88156 14.0116 3.28349 16.0322C3.68542 18.0528 4.67751 19.9089 6.13431 21.3657C7.59111 22.8225 9.44718 23.8146 11.4678 24.2165C13.4884 24.6184 15.5829 24.4122 17.4863 23.6237C19.3897 22.8353 21.0165 21.5002 22.1611 19.7872C23.3057 18.0742 23.9167 16.0602 23.9167 14C23.9136 11.2383 22.8152 8.5905 20.8623 6.63766C18.9095 4.68481 16.2617 3.58637 13.5 3.58334Z" fill="#FFA9A9" stroke="white" stroke-width="1.5"/>
<path d="M9.4174 20.764C9.16331 20.764 8.9074 20.7194 8.66125 20.6278L8.36456 20.5174L9.70544 19.1559L9.51521 18.435L8.81162 18.2434L7.46678 19.6095L7.35636 19.3032C7.06344 18.491 7.26252 17.572 7.86341 16.962C8.40727 16.4094 9.19077 16.1886 9.93451 16.3705L11.8525 14.4224L12.1447 14.71L10.0549 16.8323L9.93604 16.7959C9.30352 16.6023 8.62149 16.7759 8.15542 17.2495C7.74476 17.6665 7.56408 18.2605 7.6563 18.8326L8.68778 17.7849L9.85124 18.1017L10.1614 19.2773L9.12508 20.3296C9.68693 20.4245 10.2716 20.2415 10.6817 19.8247C11.1494 19.3495 11.321 18.6536 11.1297 18.0091L11.0952 17.893L13.2781 15.6761L13.5703 15.9637L11.5546 18.011C11.7346 18.7645 11.5177 19.5596 10.974 20.1122C10.5563 20.5365 9.99175 20.764 9.4174 20.764Z" fill="#282D33"/>
<path d="M14.9584 14.5539L14.6661 14.2663L17.2112 11.6813L17.33 11.7177C17.9621 11.9111 18.6444 11.7376 19.1106 11.2642C19.5211 10.8472 19.7019 10.2532 19.61 9.68112L18.5784 10.7288L17.4149 10.4121L17.105 9.23681L18.1413 8.18428C17.5789 8.08911 16.9943 8.27253 16.5839 8.68919C16.1163 9.16411 15.9449 9.85986 16.1367 10.5048L16.1712 10.6208L13.8348 12.993L13.5427 12.7054L15.7117 10.5028C15.5312 9.74914 15.748 8.95385 16.2917 8.40155C16.8943 7.78978 17.8022 7.58745 18.6048 7.88596L18.9015 7.99638L17.5607 9.3581L17.7507 10.0787L18.4544 10.2702L19.7995 8.90413L19.9099 9.21057C20.2024 10.0226 20.0033 10.9416 19.4025 11.5518C18.8584 12.1043 18.0748 12.3252 17.3314 12.1431L14.9584 14.5539Z" fill="#282D33"/>
<path d="M13.7606 16.7736C13.6379 16.7736 13.5227 16.7263 13.4364 16.6406L11.6883 14.8718C11.5118 14.6963 11.5118 14.4108 11.6883 14.2353L11.6894 14.2343L11.0195 13.5687L12.5506 12.047L13.2204 12.7129C13.3067 12.6289 13.4204 12.5829 13.5414 12.5829C13.664 12.5829 13.7793 12.6302 13.8659 12.7159L15.6138 14.4849C15.79 14.6602 15.7901 14.9455 15.6141 15.1211L14.0852 16.6405C13.9983 16.7263 13.8832 16.7736 13.7606 16.7736ZM11.5748 13.5688L12.0153 14.0066C12.0284 14.0196 12.0435 14.0297 12.0582 14.0354L12.3367 14.1426L11.9702 14.5071C11.9447 14.5324 11.9447 14.5749 11.9702 14.6002L13.7181 16.3689C13.7326 16.3834 13.7492 16.3864 13.7605 16.3864C13.7719 16.3864 13.7885 16.3834 13.8035 16.3686L15.3318 14.8498C15.357 14.8246 15.3571 14.7819 15.3317 14.7567L13.5841 12.9879C13.5693 12.9733 13.5527 12.9702 13.5413 12.9702C13.5301 12.9702 13.5135 12.9732 13.4987 12.988L13.1286 13.3564L13.0172 13.0783C13.0105 13.0613 13.0003 13.0462 12.9873 13.0334L12.5505 12.5991L11.5748 13.5688Z" fill="#282D33"/>
<path d="M13.6556 14.2862L8.9534 9.51093L8.66131 9.79855L13.3635 14.5738L13.6556 14.2862Z" fill="#282D33"/>
<path d="M9.08531 10.1979L8.05637 10.0909L7.15228 8.65107L7.81733 7.97534L9.24006 8.89681L9.34478 9.93511L9.08531 10.1979ZM8.29734 9.7038L8.91582 9.76816L8.85186 9.13382L7.87498 8.5011L7.67184 8.7076L8.29734 9.7038Z" fill="#282D33"/>
<path d="M15.3445 14.2956L15.0524 14.008L13.0846 16.0066L13.3767 16.2942L15.3445 14.2956Z" fill="#282D33"/>
<path d="M17.2499 22.0001C17.9862 22.0001 18.7059 21.7817 19.3181 21.3727C19.9303 20.9636 20.4074 20.3822 20.6892 19.702C20.971 19.0218 21.0447 18.2733 20.9011 17.5512C20.7574 16.829 20.4029 16.1657 19.8822 15.6451C19.3616 15.1245 18.6983 14.7699 17.9762 14.6263C17.254 14.4826 16.5055 14.5564 15.8253 14.8381C15.1451 15.1199 14.5637 15.597 14.1546 16.2092C13.7456 16.8214 13.5273 17.5411 13.5273 18.2774C13.5273 19.2647 13.9195 20.2116 14.6176 20.9097C15.3157 21.6079 16.2626 22.0001 17.2499 22.0001ZM17.2499 16.0919C17.6822 16.0919 18.1047 16.22 18.4641 16.4602C18.8236 16.7003 19.1037 17.0417 19.2691 17.441C19.4345 17.8404 19.4778 18.2798 19.3935 18.7038C19.3091 19.1277 19.101 19.5172 18.7953 19.8228C18.4897 20.1285 18.1003 20.3366 17.6763 20.421C17.2523 20.5053 16.8129 20.462 16.4135 20.2966C16.0142 20.1312 15.6728 19.8511 15.4327 19.4916C15.1925 19.1322 15.0644 18.7097 15.0644 18.2774C15.0644 17.6978 15.2946 17.1419 15.7045 16.732C16.1144 16.3221 16.6703 16.0919 17.2499 16.0919Z" fill="#272835" stroke="white"/>
<path d="M16.4993 19.7813V20.2813H16.9993H17.5006H18.0006V19.7813V19.2071H18.7538H19.2538V18.7071V18.2774V17.7774H18.7538H18.0006V17.2032V16.7032H17.5006H16.9993H16.4993V17.2032V17.7774H15.746H15.246V18.2774V18.7071V19.2071H15.746H16.4993V19.7813Z" fill="#272835" stroke="white"/>
</svg>
