<svg width="27" height="28" viewBox="0 0 27 28" fill="none" xmlns="http://www.w3.org/2000/svg">
<path d="M13.5 26.5C11.0277 26.5 8.61099 25.7669 6.55538 24.3934C4.49976 23.0199 2.89761 21.0676 1.95151 18.7835C1.00542 16.4995 0.757874 13.9861 1.24019 11.5614C1.7225 9.13661 2.91301 6.90933 4.66117 5.16117C6.40933 3.41301 8.63661 2.2225 11.0614 1.74019C13.4861 1.25787 15.9995 1.50542 18.2835 2.45151C20.5676 3.39761 22.5199 4.99976 23.8934 7.05538C25.2669 9.11099 26 11.5277 26 14C25.9964 17.3141 24.6783 20.4914 22.3349 22.8349C19.9914 25.1783 16.8141 26.4964 13.5 26.5ZM13.5 3.58334C11.4398 3.58334 9.42583 4.19427 7.71281 5.33886C5.9998 6.48346 4.66467 8.11032 3.87626 10.0137C3.08785 11.9171 2.88156 14.0116 3.28349 16.0322C3.68542 18.0528 4.67751 19.9089 6.13431 21.3657C7.59111 22.8225 9.44718 23.8146 11.4678 24.2165C13.4884 24.6184 15.5829 24.4122 17.4863 23.6237C19.3897 22.8353 21.0165 21.5002 22.1611 19.7872C23.3057 18.0742 23.9167 16.0602 23.9167 14C23.9136 11.2383 22.8152 8.5905 20.8623 6.63766C18.9095 4.68481 16.2617 3.58637 13.5 3.58334Z" fill="#FFA9A9" stroke="white" stroke-width="1.5"/>
<path d="M9.46592 21.6983C9.19013 21.6983 8.91235 21.65 8.64517 21.5506L8.32314 21.4307L9.77857 19.9529L9.57209 19.1704L8.80839 18.9624L7.34866 20.4452L7.2288 20.1128C6.91086 19.2311 7.12694 18.2337 7.77917 17.5715C8.36949 16.9717 9.21993 16.7321 10.0272 16.9296L12.1091 14.8149L12.4262 15.1272L10.1579 17.4308L10.0289 17.3913C9.34232 17.1811 8.60202 17.3696 8.09613 17.8836C7.65038 18.3362 7.45427 18.9809 7.55437 19.6019L8.67397 18.4648L9.93683 18.8087L10.2735 20.0847L9.14864 21.2269C9.75849 21.3299 10.3931 21.1312 10.8383 20.6788C11.3459 20.163 11.5322 19.4077 11.3245 18.7081L11.2871 18.5821L13.6564 16.1758L13.9736 16.488L11.7857 18.7102C11.9811 19.528 11.7456 20.3911 11.1555 20.9909C10.7022 21.4515 10.0893 21.6983 9.46592 21.6983Z" fill="#282D33"/>
<path d="M15.481 14.9576L15.1637 14.6454L17.9263 11.8395L18.0553 11.879C18.7414 12.089 19.4819 11.9006 19.988 11.3868C20.4335 10.9342 20.6298 10.2895 20.53 9.66849L19.4103 10.8056L18.1474 10.4619L17.811 9.18622L18.9358 8.04377C18.3254 7.94047 17.6909 8.13956 17.2454 8.59182C16.7379 9.10731 16.5518 9.86251 16.76 10.5625L16.7975 10.6884L14.2614 13.2634L13.9443 12.9512L16.2987 10.5604C16.1028 9.74232 16.3381 8.87908 16.9283 8.27961C17.5824 7.61557 18.5678 7.39595 19.439 7.71997L19.761 7.83982L18.3057 9.31788L18.5119 10.1L19.2757 10.3079L20.7357 8.82512L20.8556 9.15774C21.1731 10.0392 20.957 11.0366 20.3049 11.699C19.7142 12.2987 18.8637 12.5384 18.0568 12.3408L15.481 14.9576Z" fill="#282D33"/>
<path d="M9.95258 14.4058C7.93995 14.4058 6.30273 12.7686 6.30273 10.7559C6.30273 8.7433 7.93995 7.10608 9.95258 7.10608C11.9652 7.10608 13.6024 8.7433 13.6024 10.7559C13.6024 12.7686 11.9652 14.4058 9.95258 14.4058ZM9.95258 7.36678C8.08386 7.36678 6.56344 8.8872 6.56344 10.7559C6.56344 12.6246 8.08386 14.1451 9.95258 14.1451C11.8213 14.1451 13.3417 12.6246 13.3417 10.7559C13.3417 8.8872 11.8213 7.36678 9.95258 7.36678Z" fill="#263238"/>
<path d="M12.7174 14.4058C12.6827 14.4058 12.6496 14.3919 12.6251 14.3677L11.94 13.6826C11.9131 13.6557 11.8993 13.6184 11.9022 13.5804C11.905 13.5426 11.9243 13.5079 11.9548 13.4852C12.2262 13.2855 12.4661 13.0475 12.6673 12.7774C12.69 12.7469 12.7247 12.7281 12.7625 12.7253C12.8011 12.7234 12.8373 12.7362 12.8642 12.7631L13.5469 13.4459C13.5978 13.4967 13.5978 13.5793 13.5469 13.6302L12.8094 14.3677C12.7852 14.3919 12.7521 14.4058 12.7174 14.4058ZM12.2296 13.6031L12.7176 14.0911L13.2709 13.5379L12.7846 13.0517C12.6196 13.255 12.4337 13.4396 12.2296 13.6031Z" fill="#263238"/>
<path d="M17.4827 20.1652C17.3075 20.1652 17.1322 20.0964 16.9985 19.9584L12.8034 15.629C12.5368 15.3534 12.5368 14.905 12.8034 14.6295L13.7718 13.6305C14.0388 13.3549 14.4728 13.3549 14.7398 13.6305L18.935 17.96C19.0641 18.0933 19.1353 18.2708 19.1353 18.4597C19.1353 18.6486 19.0641 18.8261 18.935 18.9594L17.967 19.9584C17.8337 20.0964 17.6584 20.1652 17.4827 20.1652ZM14.256 13.8947C14.1976 13.8947 14.1392 13.9173 14.0945 13.9635L13.126 14.9625C13.037 15.0543 13.037 15.2041 13.126 15.296L17.3212 19.6254C17.4102 19.7178 17.5548 19.7173 17.6443 19.6254L18.6123 18.626C18.6557 18.5817 18.6789 18.5223 18.6789 18.4592C18.6789 18.3966 18.6552 18.3372 18.6123 18.2925L14.4172 13.963C14.3724 13.9178 14.3145 13.8947 14.256 13.8947Z" fill="#263238"/>
</svg>
